<svg width="924" height="176" viewBox="0 0 924 176" fill="none" xmlns="http://www.w3.org/2000/svg">
<path d="M535.232 136.278H476.867V103.517H535.263C544.865 103.675 552.616 110.86 552.616 119.836C552.616 128.81 544.835 136.278 535.232 136.278ZM476.867 40.226H534.228C542.074 40.3197 548.725 46.376 548.725 54.3159C548.725 62.2226 541.758 68.5298 533.883 68.4361H476.867V40.226ZM568.212 86.0394C579.006 78.4457 583.085 65.863 583.085 52.0255C583.085 25.9803 561.151 5.11298 534.26 5.11298H436.859V171.391H538.088V171.454C566.517 171.454 590.176 149.521 590.176 122.661C590.176 105.151 579.633 92.1894 568.212 86.0394ZM718.424 4.73798V98.2168C718.424 126.803 701.729 138.789 681.208 138.789C660.655 138.789 644.086 126.834 644.086 98.2471V4.73798H602.634V98.4981C602.634 158.308 637.778 175.722 681.208 175.722C724.667 175.722 759.842 158.308 759.842 98.4981V4.73798H718.424ZM863.866 69.5365C830.321 62.2558 818.993 59.0236 818.993 48.3865C818.993 39.0043 831.137 34.2663 850.31 34.2663C868.415 34.2663 890.286 41.9856 903.12 49.6731L916.204 15.8466C896.75 7.75096 873.342 0 842.401 0C801.829 0 776.505 23.7231 776.505 52.7163C776.505 81.7428 797.373 94.5144 838.731 103.269C870.799 110.047 879.49 114.125 879.49 124.103C879.49 134.083 866.625 137.753 849.242 137.753C826.742 137.753 805.092 130.253 784.695 121.499L772.363 154.477C796.745 165.775 822.068 174.842 852.254 174.842C902.554 174.842 923.077 150.806 923.077 122.785C923.077 97.8692 905.818 78.6649 863.864 69.5351M84.0014 5.11154L0 171.361L49.8923 171.392L62.4447 144.658H119.74L101.919 108.225H79.2952L100.601 62.7577L154.259 171.392H204.278L117.012 5.11298L84.0014 5.11154ZM421.516 60.401C421.516 30.1212 400.742 5.55 358.034 5.55H271.774V171.828L311.75 171.796V40.6644H360.796C375.293 40.6644 381.317 49.6399 381.317 60.3087C381.317 71.0077 374.98 79.575 360.482 79.575H326.184L378.087 171.798H419.13C419.13 171.798 383.609 111.519 383.797 111.487C409.434 103.517 421.514 84.0937 421.514 60.401M212.844 171.453H254.201V5.20673H212.844V171.453Z" fill="white"/>
</svg>
