<svg width="1726" height="393" viewBox="0 0 1726 393" fill="none" xmlns="http://www.w3.org/2000/svg">
<g clip-path="url(#clip0_859_159)">
<path d="M270.122 46.2804C208.34 -15.4268 108.153 -15.4268 46.3361 46.2804C-15.4454 108.023 -15.4454 208.054 46.3361 269.797C108.153 331.539 208.34 331.539 270.122 269.797C331.938 208.054 331.903 108.023 270.122 46.2804Z" fill="#12285F"/>
<path d="M421.905 376.893C429.579 376.893 435.874 373.961 440.79 368.097C445.741 362.269 448.216 354.746 448.216 345.562C448.216 335.813 445.564 327.936 440.259 321.967C434.955 315.962 428.023 312.995 419.465 312.995H382.403V376.893H421.905ZM418.404 299.396C431.807 299.396 442.417 303.6 450.267 312.042C458.118 320.484 462.044 331.787 462.044 345.951C462.044 358.949 457.871 369.758 449.595 378.411C441.851 386.465 432.267 390.491 420.844 390.491H369.637V299.396H418.404Z" fill="white"/>
<path d="M559.402 390.491H478.7V299.396H556.431V312.995H491.467V336.378H536.627V349.977H491.467V376.893H559.402V390.491Z" fill="white"/>
<path d="M656.972 312.995H592.008V336.378H637.168V349.977H592.008V390.491H579.241V299.396H656.972V312.995Z" fill="white"/>
<path d="M752.667 390.491H671.966V299.396H749.697V312.995H684.768V336.378H729.893V349.977H684.768V376.893H752.667V390.491Z" fill="white"/>
<path d="M858.902 390.491H842.988L784.142 315.786V390.491H771.375V299.396H787.254L846.1 374.137V299.396H858.902V390.491Z" fill="white"/>
<path d="M968.885 320.166L957.286 325.075C949.47 315.256 938.542 310.346 924.467 310.346C913.823 310.346 905.159 313.56 898.439 320.024C891.755 326.488 888.396 334.718 888.396 344.679C888.396 354.993 891.72 363.329 898.333 369.652C904.982 376.009 913.929 379.153 925.245 379.153C938.861 379.153 949.576 374.173 957.392 364.177L968.355 371.347C962.802 378.976 956.543 384.487 949.541 387.913C942.574 391.304 934.193 392.999 924.467 392.999C910.852 392.999 899.536 388.973 890.518 380.919C880.191 371.7 875.063 359.62 875.063 344.679C875.063 330.02 880.297 318.011 890.73 308.721C899.818 300.562 911.064 296.5 924.467 296.5C943.776 296.5 958.594 304.377 968.885 320.166Z" fill="white"/>
<path d="M1066.92 390.491H986.214V299.396H1063.94V312.995H998.98V336.378H1044.14V349.977H998.98V376.893H1066.92V390.491Z" fill="white"/>
<path d="M1146.41 334.612C1156.28 333.199 1161.2 328.431 1161.2 320.271C1161.2 317.587 1160.38 315.291 1158.72 313.419C1157.02 311.547 1154.94 310.593 1152.36 310.593C1149.46 310.593 1147.09 311.688 1145.25 313.843C1143.37 316.033 1142.49 318.859 1142.49 322.285C1142.49 325.746 1143.8 329.844 1146.41 334.612ZM1159.39 372.76C1152.78 365.695 1146.7 357.783 1141.07 348.988C1126.96 351.567 1119.89 357.006 1119.89 365.307C1119.89 369.333 1121.62 372.654 1125.13 375.197C1128.59 377.74 1133.33 379.047 1139.38 379.047C1145.28 379.047 1151.97 376.928 1159.39 372.76ZM1196.46 390.844C1186.52 390.279 1177.18 387.242 1168.45 381.802C1159.92 388.69 1149.81 392.116 1138.1 392.116C1128.87 392.116 1121.38 389.502 1115.65 384.31C1109.88 379.118 1107.02 372.618 1107.02 364.812C1107.02 351.567 1115.97 342.418 1133.86 337.403C1131.21 332.457 1129.9 327.406 1129.9 322.285C1129.9 317.163 1131.28 312.536 1134.07 308.333C1138.67 301.268 1144.93 297.771 1152.78 297.771C1158.97 297.771 1163.99 299.891 1167.88 304.094C1171.74 308.368 1173.65 313.843 1173.65 320.66C1173.65 332.669 1167 340.935 1153.66 345.562C1158.33 352.626 1163.46 358.949 1169.08 364.565C1173.43 360.538 1177.11 353.333 1180.15 342.913H1193.24C1190.41 353.933 1185.46 363.717 1178.35 372.371C1184.08 375.373 1190.12 376.892 1196.46 376.892V390.844Z" fill="white"/>
<path d="M1318.67 320.767C1307.25 313.915 1295.62 310.453 1283.77 310.453C1275.88 310.453 1269.84 311.548 1265.66 313.738C1261.45 315.928 1259.37 318.93 1259.37 322.816C1259.37 326.807 1261.6 329.774 1266.09 331.611C1269.27 332.953 1274.5 333.871 1281.72 334.366C1292.36 335.213 1299.4 335.885 1302.79 336.379C1312.48 337.898 1319.59 340.688 1324.23 344.821C1328.82 348.918 1331.12 354.747 1331.12 362.305C1331.12 371.948 1327.51 379.401 1320.27 384.699C1313.02 389.962 1302.65 392.611 1289.07 392.611C1269.41 392.611 1254.13 387.49 1243.21 377.282L1250.21 366.332C1262.3 375.057 1275.28 379.401 1289.18 379.401C1298.2 379.401 1305.2 377.953 1310.15 375.021C1314.92 372.16 1317.29 368.24 1317.29 363.294C1317.29 357.537 1314.18 353.652 1307.92 351.744C1304.67 350.72 1295.86 349.66 1281.54 348.601C1268.81 347.576 1259.9 345.563 1254.81 342.56C1248.83 339.028 1245.86 333.094 1245.86 324.794C1245.86 316.246 1249.25 309.499 1256.01 304.554C1262.8 299.609 1272.35 297.137 1284.72 297.137C1301.31 297.137 1315.24 301.623 1326.45 310.594L1318.67 320.767Z" fill="white"/>
<path d="M1409.35 342.171C1419.21 342.171 1424.13 337.473 1424.13 328.078C1424.13 318.011 1418.93 312.995 1408.5 312.995H1363.23V342.171H1409.35ZM1411.58 299.396C1419.46 299.396 1425.69 301.975 1430.32 307.132C1434.92 312.289 1437.25 319.212 1437.25 327.831C1437.25 336.873 1434.85 343.796 1430.04 348.6C1425.26 353.368 1418.3 355.77 1409.14 355.77H1363.23V390.491H1350.47V299.396H1411.58Z" fill="white"/>
<path d="M1502.07 356.512L1482.45 312.395L1462.57 356.512H1502.07ZM1531.14 390.491H1517.17L1508.26 370.111H1456.35L1447.47 390.491H1433.5L1474.28 299.396H1490.37L1531.14 390.491Z" fill="white"/>
<path d="M1628.61 320.166L1616.97 325.075C1609.19 315.256 1598.23 310.346 1584.19 310.346C1573.54 310.346 1564.88 313.56 1558.16 320.024C1551.48 326.488 1548.12 334.718 1548.12 344.679C1548.12 354.993 1551.41 363.329 1558.05 369.652C1564.7 376.009 1573.65 379.153 1584.93 379.153C1598.58 379.153 1609.26 374.173 1617.08 364.177L1628.04 371.347C1622.52 378.976 1616.26 384.487 1609.26 387.913C1602.3 391.304 1593.91 392.999 1584.19 392.999C1570.57 392.999 1559.26 388.973 1550.24 380.919C1539.95 371.7 1534.79 359.62 1534.79 344.679C1534.79 330.02 1540.02 318.011 1550.45 308.721C1559.54 300.562 1570.79 296.5 1584.19 296.5C1603.5 296.5 1618.28 304.377 1628.61 320.166Z" fill="white"/>
<path d="M1726 390.491H1645.3V299.396H1723.03V312.995H1658.07V336.378H1703.19V349.977H1658.07V376.893H1726V390.491Z" fill="white"/>
<path d="M206.041 260.543C196.351 264.287 183.16 266.371 168.979 266.371C160.067 266.371 151.545 265.524 144.26 263.97C119.575 258.671 99.4176 245.072 86.3682 224.904C72.7883 203.852 69.3226 177.855 77.1027 155.355C84.8829 132.961 99.9127 116.324 119.434 109.684C121.733 108.907 124.208 108.271 127.002 107.706C127.249 107.67 131.67 107.141 132.306 107.67C133.58 108.8 131.21 109.824 130.467 110.319C129.725 110.778 126.436 112.756 124.314 114.31C115.438 120.845 109.426 129.534 104.545 139.459C98.9225 150.868 97.2603 163.619 98.7457 175.382C100.125 186.72 104.616 198.27 112.644 208.266C122.298 220.276 134.711 227.375 148.963 230.519C156.885 232.25 163.568 233.239 170.429 233.239C175.592 233.239 181.145 232.568 187.935 231.119C206.925 226.987 224.678 216.849 238.081 197.952C252.015 178.313 256.86 152.246 252.899 129.534C252.793 128.969 252.687 128.404 252.616 127.839C252.227 125.507 251.839 123.141 251.06 120.951C247.771 109.86 244.129 101.1 239.567 93.3644C233.696 83.439 226.27 74.6085 217.57 67.0497C199.747 51.6848 178.67 44.0552 153.349 41.4414C142.633 40.3464 132.554 40.6646 122.051 42.0065C117.206 42.6422 112.927 43.3841 108.931 44.2671L104.581 45.2914C103.697 45.4678 103.131 44.8321 103.025 44.2318C102.989 44.0203 102.953 43.2428 103.803 42.9602C121.485 36.9202 137.151 33.7412 153.384 33.7412C156.92 33.7412 160.457 33.9176 163.922 34.2006C188.783 36.214 209.295 42.5366 228.25 56.7006C260.785 81.002 279.104 118.055 277.23 155.849C274.719 206.112 248.797 244.013 206.041 260.543ZM137.258 118.302C155.718 106.151 180.579 111.273 192.744 129.711C204.91 148.184 199.782 173.015 181.321 185.131C162.826 197.281 138 192.195 125.835 173.722C113.669 155.248 118.762 130.452 137.258 118.302ZM192.143 282.018C188.96 282.619 185.813 283.149 182.665 283.608C170.04 285.303 157.203 285.692 144.543 284.314C122.016 281.912 99.8421 273.965 81.4526 260.578C47.5028 235.852 28.7598 191.947 34.9839 150.338C38.2374 128.58 48.4223 108.058 63.4876 92.0574C78.8003 75.8447 98.9579 65.4248 120.566 60.2325C144.33 54.5104 170.005 56.8769 191.825 68.3212C209.967 77.8581 223.723 90.0441 232.741 111.484C239.602 127.768 241.158 146.7 237.303 163.937C232.918 183.541 221.142 200.672 203.849 211.092C185.53 222.148 160.28 223.843 140.794 214.801C131.139 210.35 122.9 203.356 117.135 194.385C114.165 189.793 111.901 184.812 110.77 179.479C110.204 176.9 109.85 174.287 109.673 171.955C109.601 171.142 109.425 168.247 110.098 167.575C110.946 166.693 111.619 167.787 111.831 168.529C112.609 171.743 113.599 174.534 114.625 176.688C115.756 179.055 117.136 181.245 118.727 183.329C121.804 187.32 125.092 190.853 129.23 193.749C137.647 199.683 147.761 203.18 158.017 203.427C181.605 203.922 198.261 193.996 207.704 173.757C216.191 155.566 213.892 133.667 204.309 116.359C193.346 96.614 174.885 84.2866 150.343 81.4256C127.886 78.8118 104.723 84.6752 86.6515 98.0269C68.9339 111.096 56.4503 130.452 51.8175 151.928C46.9727 174.11 50.4738 197.634 60.2697 217.98C69.6412 237.442 84.8125 253.443 103.556 264.145C124.102 275.872 147.902 281.206 171.455 281.347C177.856 281.347 184.257 280.888 190.658 280.252C192.32 280.111 194.336 279.687 194.442 280.817C194.478 281.488 193.557 281.771 192.143 282.018ZM270.122 46.2804C208.34 -15.4268 108.153 -15.4268 46.3361 46.2804C-15.4454 108.023 -15.4454 208.054 46.3361 269.797C108.153 331.539 208.34 331.539 270.122 269.797C331.938 208.054 331.903 108.023 270.122 46.2804Z" fill="white"/>
<path d="M974.685 213.212H908.695V176.23H974.685C985.542 176.406 994.312 184.495 994.312 194.632C994.312 204.734 985.507 213.212 974.685 213.212ZM908.695 104.774H973.518C982.395 104.879 989.892 111.697 989.892 120.633C989.892 129.57 982.041 136.705 973.129 136.599H908.695V104.774ZM1011.96 156.485C1024.12 147.902 1028.72 133.702 1028.72 118.055C1028.72 88.667 1003.97 65.1073 973.554 65.1073H863.464V252.843H977.903V252.915C1010.01 252.915 1036.78 228.119 1036.78 197.848C1036.78 178.068 1024.87 163.443 1011.96 156.485ZM1181.74 64.6852V170.227C1181.74 202.476 1162.89 216.039 1139.66 216.039C1116.43 216.039 1097.72 202.546 1097.72 170.262V64.6852H1050.86V170.545C1050.86 238.045 1090.57 257.719 1139.7 257.719C1188.78 257.719 1228.57 238.045 1228.57 170.545V64.6852H1181.74ZM1346.15 137.837C1308.24 129.607 1295.4 125.968 1295.4 113.959C1295.4 103.363 1309.16 98.029 1330.84 98.029C1351.28 98.029 1376 106.753 1390.53 115.443L1405.32 77.2244C1383.32 68.1114 1356.87 59.3516 1321.89 59.3516C1276.02 59.3516 1247.38 86.1255 1247.38 118.869C1247.38 151.612 1270.97 166.023 1317.72 175.914C1354 183.578 1363.83 188.17 1363.83 199.438C1363.83 210.705 1349.26 214.873 1329.64 214.873C1304.17 214.873 1279.74 206.396 1256.65 196.506L1242.71 233.735C1270.3 246.522 1298.91 256.765 1333.03 256.765C1389.9 256.765 1413.06 229.603 1413.06 197.99C1413.06 169.838 1393.54 148.151 1346.15 137.837ZM464.59 65.109L369.637 252.809L426.007 252.845L440.189 222.645H504.976L484.854 181.53H459.25L483.333 130.208L544.018 252.845H600.531L501.899 65.1098L464.59 65.109ZM846.1 127.523C846.1 93.3311 822.654 65.6036 774.346 65.6036H676.811V253.339L722.042 253.303L722.006 105.234H777.457C793.866 105.27 800.692 115.371 800.692 127.416C800.692 139.496 793.513 149.174 777.139 149.174H738.344L797.014 253.303H843.412C843.412 253.303 803.273 185.273 803.486 185.238C832.484 176.231 846.1 154.261 846.1 127.523ZM610.219 252.914H656.971V65.2142H610.219V252.914Z" fill="white"/>
</g>
<defs>
<clipPath id="clip0_859_159">
<rect width="1726" height="393" fill="white"/>
</clipPath>
</defs>
</svg>
