<svg width="3050" height="472" viewBox="0 0 3050 472" fill="none" xmlns="http://www.w3.org/2000/svg">
<g clip-path="url(#clip0_859_106)">
<path d="M2921.1 471.999C2948.22 460.995 3018.95 420.516 3050 411.477C3018.95 411.477 3034.28 411.87 3003.23 411.87C2001.89 417.372 1000.95 426.018 0 442.131C973.83 458.244 1947.27 466.497 2921.1 471.999Z" fill="#A39161"/>
<path d="M2636.18 8.64613H2720.67V159.167H2724.6L2921.1 8.64613H3035.07L2813.03 172.923L3050 363.923H2931.32L2725.39 189.429H2720.67V363.923H2636.18V8.64613ZM2465.62 91.9634C2430.65 64.453 2398.42 56.9858 2365.8 56.9858C2267.95 56.9858 2203.11 113.186 2203.11 183.927C2203.11 259.777 2267.95 315.977 2365.8 315.977C2403.92 315.977 2440.86 303.007 2472.3 272.746L2541.86 310.082C2499.03 354.098 2434.58 373.356 2365.02 373.356C2218.82 373.356 2114.29 299.077 2114.29 188.25C2114.29 74.2781 2218.82 0 2365.02 0C2429.47 0 2484.49 15.7202 2531.25 56.1998L2465.62 91.9634ZM1913.08 8.64613H1997.57V363.923H1913.08V8.64613ZM1454.85 8.64613H1619.91C1711.08 8.64613 1796.75 30.6545 1796.75 110.435C1796.75 161.525 1757.06 199.254 1686.72 206.721L1812.87 363.923H1711.08L1601.04 213.402H1539.34V363.923H1454.85V8.64613ZM1604.97 159.167C1652.53 159.167 1708.33 156.023 1708.33 110.042C1708.33 67.99 1656.06 62.8809 1612.44 62.8809H1539.34V159.167H1604.97ZM994.266 8.64613H1159.32C1250.5 8.64613 1336.17 30.6545 1336.17 110.435C1336.17 161.525 1296.48 199.254 1226.13 206.721L1352.28 363.923H1250.5L1140.46 213.402H1078.76V363.923H994.266V8.64613ZM1144.39 159.167C1191.94 159.167 1247.74 156.023 1247.74 110.042C1247.74 67.99 1195.48 62.8809 1151.86 62.8809H1078.76V159.167H1144.39ZM625.641 8.64613H698.737L903.092 363.923H806.416L762.009 282.571H556.081L513.639 363.923H419.321L625.641 8.64613ZM732.927 228.336L659.831 83.7102L585.556 228.336H732.927ZM0.392639 8.64613H185.098C256.623 8.64613 330.505 33.4055 330.505 97.8585C330.505 137.945 297.101 164.669 247.977 175.674V176.853C307.712 181.962 350.548 216.939 350.548 262.528C350.548 339.95 260.553 363.923 170.95 363.923H0.392639V8.64613ZM84.8858 152.879H161.911C218.109 152.879 246.405 134.801 246.405 108.077C246.405 77.4221 218.109 62.4879 154.445 62.4879H84.8858V152.879ZM84.8858 309.689H162.698C206.32 309.689 266.447 304.187 266.447 257.419C266.447 220.083 234.222 207.114 165.842 207.114H84.8858V309.689Z" fill="white"/>
</g>
<defs>
<clipPath id="clip0_859_106">
<rect width="3050" height="472" fill="white"/>
</clipPath>
</defs>
</svg>
