<svg width="619" height="670" viewBox="0 0 619 670" fill="none" xmlns="http://www.w3.org/2000/svg">
<mask id="mask0_788_236" style="mask-type:luminance" maskUnits="userSpaceOnUse" x="0" y="0" width="619" height="670">
<path d="M0 0H619V670H0V0Z" fill="white"/>
</mask>
<g mask="url(#mask0_788_236)">
<path d="M101.308 129.292C96.9589 131.449 88.0993 134.039 74.9952 134.039C38.669 134.039 17.8086 109.4 17.8086 77.969C17.8086 40.5694 44.4032 20.7832 77.3986 20.7832C90.2058 20.7832 96.972 23.1914 101.308 25.4676L97.2818 47.8484C92.4226 45.7301 87.2929 43.7906 78.4072 43.7906C62.6868 43.7906 45.9738 53.009 45.9738 77.5391C45.9738 99.521 59.2904 111.109 78.5409 111.109C86.1268 111.109 91.3064 109.687 97.2818 106.974L101.308 129.292Z" fill="white"/>
<path d="M254.454 81.4916C254.454 75.5435 251.499 65.1414 240.117 65.1414C230.102 65.1414 225.416 73.6245 224.705 81.4916H254.454ZM224.867 98.7295C225.792 108.991 234.399 114.424 247.701 114.531C255.73 114.603 265.047 112.327 271.261 108.694L274.967 127.599C265.635 132.193 254.937 134.027 244.076 134.027C214.773 134.027 199.066 116.62 199.066 90.021C199.066 64.282 215.953 47.6836 241.271 47.6836C267.327 47.6836 279.007 66.615 279.007 90.3191C279.007 92.7998 278.71 96.8884 278.416 98.7295H224.867Z" fill="white"/>
<path d="M307.965 130.642L280.77 51.0527H307.926L322.706 107.35H323.189L337.969 51.0527H365.128L337.943 130.642H307.965Z" fill="white"/>
<path d="M372.175 77.2369C372.175 65.5249 371.797 57.9093 371.303 51.0782H394.487L395.183 65.8513H395.801C399.868 54.1573 407.641 49.6956 415.656 49.2606C419.47 49.0352 421.507 49.3072 423.883 49.75V73.0344C421.63 72.5994 417.161 72.0685 414.006 72.3662C404.528 73.2209 398.796 79.9947 397.194 87.846C396.863 89.4334 396.703 91.272 396.703 93.3642V130.658H372.175V77.2369Z" fill="white"/>
<path d="M484.836 90.8606C484.836 77.8975 480.315 66.636 468.583 66.636C456.821 66.636 452.337 77.8975 452.337 90.8606C452.337 103.831 456.821 115.08 468.583 115.08C480.315 115.08 484.836 103.831 484.836 90.8606ZM510.345 90.8606C510.345 116.913 494.412 134.037 468.583 134.037C442.754 134.037 426.791 116.913 426.791 90.8606C426.791 64.7614 442.754 47.6836 468.583 47.6836C494.412 47.6836 510.345 64.7614 510.345 90.8606Z" fill="white"/>
<path d="M521.286 76.4507C521.286 66.5307 520.91 58.0373 520.389 51.0873H543.581L544.11 62.1986H544.616C547.815 57.035 556.326 48.5391 569.573 48.5391C585.816 48.5391 596.397 59.4331 596.397 82.8754V130.661H571.801V86.5084C571.801 76.2903 568.244 69.2988 559.346 69.2988C552.512 69.2988 548.281 74.0167 546.702 78.5536C546.106 80.2108 545.879 82.4741 545.879 84.7631V130.661H521.286V76.4507Z" fill="white"/>
<path d="M161.614 48.5355C151.827 48.5355 142.363 52.8962 137.557 59.9292H137.249V21.1855L112.641 29.5909V130.676H137.249V83.4284C137.249 76.626 141.746 69.2953 150.364 69.2953C159.589 69.2953 163.158 76.4523 163.158 86.8416V130.676H187.79V83.5011C187.79 59.4475 177.308 48.5355 161.614 48.5355Z" fill="white"/>
</g>
<path d="M18.709 341.608L307.573 246.707L18.709 151.803V341.608Z" fill="url(#paint0_linear_788_236)"/>
<path d="M307.58 246.727L18.7812 341.629L307.58 436.549L596.35 341.629V151.85L307.58 246.727Z" fill="url(#paint1_linear_788_236)"/>
<mask id="mask1_788_236" style="mask-type:luminance" maskUnits="userSpaceOnUse" x="120" y="281" width="367" height="121">
<path d="M203.432 288.18C196.104 290.702 188.747 293.224 184.221 294.752C179.441 296.367 178.114 296.802 177.818 296.909C177.846 296.896 177.857 296.896 177.804 296.909H177.791C177.752 296.922 177.704 296.945 177.773 296.927C177.765 296.932 177.752 296.935 177.739 296.935C177.576 296.986 177.589 296.986 177.618 296.986C177.413 297.048 176.381 297.401 172.26 298.796C164.768 301.329 168.422 300.218 159.481 303.253C151.814 305.822 144.165 308.416 136.498 310.964C130.434 312.994 123.607 315.255 120.783 316.203V316.205C138.434 321.905 156.085 327.581 173.749 333.257C191.389 338.933 209.042 344.612 226.709 350.303C244.349 355.982 262.003 361.671 279.67 367.349C297.31 373.032 314.971 378.711 332.627 384.387C350.291 390.078 367.939 395.753 385.576 401.444H385.591C388.418 400.471 395.241 398.224 401.305 396.19C408.958 393.646 416.638 391.065 424.299 388.477C433.227 385.459 429.592 386.549 437.052 384.024C441.093 382.654 442.169 382.283 442.422 382.217C442.422 382.206 442.463 382.192 442.541 382.181C442.597 382.151 442.623 382.137 442.638 382.137C442.988 382.012 444.325 381.557 449.026 379.982C453.551 378.454 460.922 375.918 468.236 373.395C475.395 370.954 482.523 368.52 486.922 366.998C469.301 361.321 451.648 355.643 433.979 349.964C416.325 344.288 398.675 338.609 381.021 332.915C363.366 327.237 345.716 321.545 328.049 315.866C310.396 310.19 292.745 304.511 275.075 298.835C257.451 293.144 239.784 287.468 222.131 281.781C217.7 283.278 210.584 285.712 203.432 288.18ZM442.471 382.199C442.478 382.195 442.489 382.192 442.489 382.192C442.489 382.192 442.482 382.192 442.471 382.199ZM442.452 382.206C442.448 382.206 442.445 382.21 442.445 382.21C442.456 382.206 442.463 382.203 442.471 382.199C442.463 382.203 442.456 382.206 442.452 382.206ZM442.422 382.217C442.422 382.217 442.433 382.217 442.445 382.21C442.433 382.21 442.43 382.214 442.422 382.217Z" fill="white"/>
</mask>
<g mask="url(#mask1_788_236)">
<path d="M120.545 316.361C129.361 319.206 138.191 322.041 147.02 324.885C148.427 324.404 150.843 323.6 153.658 322.658C144.829 319.816 136.007 316.979 127.178 314.137C124.355 315.079 121.947 315.882 120.545 316.361Z" fill="#00A2E5"/>
<path d="M127.193 314.145C136.022 316.987 144.844 319.824 153.673 322.666C156.493 321.729 159.713 320.661 162.748 319.654C153.924 316.812 145.095 313.97 136.268 311.125C133.233 312.134 130.008 313.208 127.193 314.145Z" fill="#00A3E6"/>
<path d="M147.02 324.881C155.843 327.724 164.67 330.561 173.499 333.403C174.912 332.925 177.323 332.124 180.143 331.181C171.314 328.34 162.487 325.497 153.658 322.654C150.843 323.597 148.427 324.4 147.02 324.881Z" fill="#00A2E5"/>
<path d="M153.643 322.653C162.472 325.495 171.299 328.338 180.128 331.18C182.946 330.24 186.168 329.169 189.202 328.163C180.373 325.32 171.547 322.478 162.717 319.641C159.683 320.647 156.463 321.716 153.643 322.653Z" fill="#00A5E6"/>
<path d="M173.541 333.417C191.204 339.101 208.855 344.781 226.505 350.465C227.921 349.991 230.334 349.183 233.149 348.246C215.499 342.561 197.842 336.882 180.184 331.195C177.364 332.137 174.954 332.938 173.541 333.417Z" fill="#00A2E5"/>
<path d="M180.166 331.222C197.824 336.909 215.48 342.589 233.13 348.273C235.953 347.331 239.179 346.262 242.206 345.248C224.555 339.569 206.899 333.884 189.24 328.205C186.206 329.212 182.984 330.283 180.166 331.222Z" fill="#00A5E6"/>
<path d="M226.441 350.459C244.1 356.143 261.756 361.822 279.409 367.504C282.229 366.55 289.053 364.282 295.127 362.266C277.469 356.578 259.818 350.899 242.16 345.215C236.093 347.236 229.269 349.507 226.441 350.459Z" fill="#00A2E5"/>
<path d="M279.461 367.534C297.116 373.22 314.78 378.9 332.438 384.583C335.258 383.621 342.08 381.36 348.149 379.344C330.485 373.661 312.83 367.974 295.179 362.295C289.105 364.312 282.281 366.58 279.461 367.534Z" fill="#00A2E5"/>
<path d="M332.457 384.563C341.284 387.404 350.11 390.246 358.937 393.088C360.347 392.61 362.765 391.806 365.575 390.866C356.749 388.021 347.922 385.18 339.096 382.342C336.275 383.278 333.862 384.082 332.457 384.563Z" fill="#00A2E5"/>
<path d="M339.01 382.346C347.836 385.184 356.662 388.025 365.489 390.871C368.304 389.931 371.527 388.859 374.562 387.845C365.734 385.008 356.908 382.166 348.082 379.328C345.047 380.334 341.825 381.406 339.01 382.346Z" fill="#00A5E6"/>
<path d="M358.883 393.106C367.709 395.94 376.538 398.781 385.369 401.619C386.773 401.146 389.19 400.345 392.006 399.405C383.186 396.564 374.352 393.722 365.521 390.881C362.711 391.821 360.293 392.625 358.883 393.106Z" fill="#00A2E5"/>
<path d="M365.531 390.871C374.362 393.712 383.197 396.554 392.016 399.395C394.832 398.452 398.053 397.384 401.089 396.37C392.266 393.529 383.442 390.687 374.604 387.846C371.569 388.859 368.346 389.931 365.531 390.871Z" fill="#00A5E6"/>
<path d="M136.264 311.119C138.505 310.369 140.745 309.62 142.986 308.871C151.807 311.716 160.636 314.558 169.465 317.4C167.392 318.092 165.102 318.86 162.744 319.648C153.92 316.805 145.091 313.963 136.264 311.119Z" fill="#00A5E8"/>
<path d="M162.713 319.634C165.071 318.846 167.361 318.079 169.434 317.387C178.264 320.229 187.09 323.071 195.92 325.908C194.021 326.546 191.673 327.329 189.198 328.156C180.369 325.314 171.542 322.471 162.713 319.634Z" fill="#00A8E8"/>
<path d="M142.959 308.895C148.378 307.078 153.804 305.25 159.225 303.414C168.052 306.256 176.881 309.101 185.705 311.938C180.514 313.699 176.26 315.138 169.438 317.424C160.609 314.582 151.78 311.74 142.959 308.895Z" fill="#00A7E9"/>
<path d="M169.41 317.437C178.24 320.279 187.067 323.121 195.895 325.958C200.009 324.586 202.831 323.634 205.25 322.818C196.42 319.975 187.291 317.239 178.157 314.494C175.589 315.359 172.824 316.296 169.41 317.437Z" fill="#00ABEB"/>
<path d="M178.17 314.475C187.304 317.219 196.434 319.956 205.264 322.798C207.684 321.977 209.69 321.295 212.176 320.458C203.351 317.616 194.522 314.774 185.691 311.932C183.097 312.812 180.734 313.61 178.17 314.475Z" fill="#00AFED"/>
<path d="M189.26 328.199C206.918 333.878 224.574 339.563 242.225 345.242C244.622 344.449 246.931 343.672 248.955 343C231.29 337.315 213.64 331.636 195.981 325.951C194.083 326.59 191.735 327.372 189.26 328.199Z" fill="#00A9E9"/>
<path d="M242.184 345.227C259.841 350.911 277.493 356.59 295.151 362.277C297.469 361.495 299.744 360.746 301.872 360.03C284.219 354.343 266.563 348.664 248.913 342.984C246.889 343.657 244.581 344.434 242.184 345.227Z" fill="#00A9E9"/>
<path d="M295.156 362.289C312.807 367.968 330.462 373.654 348.127 379.337C350.367 378.588 352.608 377.84 354.848 377.091C337.19 371.4 319.529 365.726 301.878 360.041C299.75 360.757 297.475 361.506 295.156 362.289Z" fill="#00A9E9"/>
<path d="M195.955 325.938C213.614 331.623 231.264 337.302 248.928 342.986C252.571 341.769 255.352 340.834 257.872 339.979C240.211 334.295 222.973 328.477 205.31 322.797C202.891 323.613 200.068 324.566 195.955 325.938Z" fill="#00ADEB"/>
<path d="M205.285 322.811C222.949 328.491 240.187 334.309 257.847 339.994C260.362 339.144 262.608 338.384 265.162 337.52C247.512 331.835 229.853 326.155 212.197 320.471C209.711 321.307 207.706 321.99 205.285 322.811Z" fill="#00B1EE"/>
<path d="M248.879 343.003C266.529 348.682 284.185 354.362 301.838 360.048C305.012 358.977 307.767 358.059 310.376 357.178C292.73 351.494 275.477 345.675 257.823 339.996C255.303 340.851 252.522 341.785 248.879 343.003Z" fill="#00ADEB"/>
<path d="M257.902 339.978C275.556 345.657 292.809 351.475 310.455 357.16C313.072 356.277 315.547 355.44 318.182 354.547C300.526 348.862 282.875 343.178 265.217 337.504C262.663 338.369 260.417 339.128 257.902 339.978Z" fill="#00B1EE"/>
<path d="M301.852 360.017C319.502 365.702 337.164 371.376 354.822 377.067C357.533 376.156 360.248 375.249 362.959 374.335C345.301 368.641 328.06 362.831 310.389 357.146C307.78 358.027 305.025 358.946 301.852 360.017Z" fill="#00ACEB"/>
<path d="M310.398 357.199C328.07 362.883 345.31 368.694 362.969 374.388C365.679 373.47 368.395 372.552 371.106 371.638C353.437 365.953 335.794 360.273 318.126 354.586C315.491 355.479 313.015 356.316 310.398 357.199Z" fill="#00B1EE"/>
<path d="M348.176 379.335C357.002 382.173 365.829 385.015 374.656 387.853C378.489 386.572 382.329 385.29 386.161 384.002C377.334 381.164 368.503 378.322 359.676 375.484C355.843 376.773 352.009 378.054 348.176 379.335Z" fill="#00A9E9"/>
<path d="M359.619 375.471C368.446 378.308 377.277 381.15 386.104 383.988C389.936 382.699 393.765 381.411 397.594 380.115C388.759 377.277 379.936 374.435 371.115 371.594C367.286 372.89 363.453 374.182 359.619 375.471Z" fill="#00AFED"/>
<path d="M374.625 387.853C383.459 390.695 392.286 393.536 401.109 396.378C404.942 395.1 408.778 393.815 412.61 392.53C403.784 389.685 394.953 386.843 386.13 384.002C382.297 385.291 378.457 386.572 374.625 387.853Z" fill="#00A8E8"/>
<path d="M386.094 383.984C394.917 386.826 403.748 389.668 412.574 392.513C416.407 391.22 420.236 389.928 424.068 388.636C415.237 385.794 406.41 382.953 397.584 380.111C393.755 381.407 389.926 382.696 386.094 383.984Z" fill="#00ADEC"/>
<path d="M159.223 303.375C168.166 300.358 164.518 301.47 172 298.932C180.824 301.769 189.651 304.611 198.48 307.453C190.998 309.997 194.652 308.88 185.703 311.899C176.879 309.062 168.049 306.218 159.223 303.375Z" fill="#00ABED"/>
<path d="M185.744 311.942C194.694 308.922 191.04 310.04 198.522 307.496C207.351 310.338 216.181 313.181 225.007 316.018C217.525 318.561 221.176 317.444 212.229 320.469C203.405 317.626 194.576 314.785 185.744 311.942Z" fill="#00B1EF"/>
<path d="M171.998 298.944C179.474 296.398 176.793 297.33 177.479 297.08C186.308 299.925 195.138 302.767 203.964 305.604C203.277 305.851 205.96 304.924 198.477 307.466C189.649 304.623 180.822 301.781 171.998 298.944Z" fill="#00ADEE"/>
<path d="M198.471 307.459C205.953 304.918 203.27 305.845 203.958 305.598C212.787 308.44 221.616 311.277 230.437 314.124C229.75 314.372 232.437 313.442 224.956 315.98C216.129 313.144 207.3 310.301 198.471 307.459Z" fill="#00B2F0"/>
<path d="M177.534 297.084C178.226 296.837 175.069 297.924 184.011 294.898C192.845 297.741 201.674 300.583 210.501 303.425C201.557 306.445 204.714 305.359 204.02 305.608C195.193 302.771 186.364 299.929 177.534 297.084Z" fill="#00ADEE"/>
<path d="M203.984 305.622C204.678 305.373 201.521 306.459 210.465 303.439C219.289 306.277 228.118 309.118 236.945 311.961C228.001 314.986 231.158 313.902 230.463 314.149C221.642 311.302 212.813 308.465 203.984 305.622Z" fill="#00B2F0"/>
<path d="M212.195 320.463C229.851 326.147 247.509 331.827 265.16 337.512C274.107 334.482 270.459 335.601 277.94 333.055C260.281 327.375 242.626 321.696 224.973 316.012C217.491 318.556 221.142 317.438 212.195 320.463Z" fill="#00B3F0"/>
<path d="M265.191 337.501C282.85 343.175 300.5 348.86 318.157 354.544C327.098 351.522 323.455 352.639 330.937 350.101C313.281 344.408 295.627 338.729 277.972 333.045C270.491 335.591 274.139 334.471 265.191 337.501Z" fill="#00B3F0"/>
<path d="M318.115 354.545C335.784 360.232 353.427 365.912 371.096 371.597C380.033 368.572 376.391 369.692 383.866 367.144C366.207 361.46 348.559 355.781 330.896 350.102C323.414 352.64 327.057 351.523 318.115 354.545Z" fill="#00B3F0"/>
<path d="M225.018 315.993C242.671 321.677 260.327 327.356 277.985 333.036C285.472 330.498 282.772 331.427 283.472 331.185C265.813 325.5 248.163 319.816 230.499 314.137C229.812 314.384 232.499 313.454 225.018 315.993Z" fill="#00B3F0"/>
<path d="M277.941 333.046C295.597 338.731 313.25 344.41 330.906 350.102C338.396 347.556 335.7 348.488 336.395 348.241C318.737 342.559 301.083 336.88 283.428 331.195C282.728 331.437 285.428 330.508 277.941 333.046Z" fill="#00B3F0"/>
<path d="M330.914 350.113C348.578 355.792 366.226 361.472 383.884 367.155C391.37 364.618 388.674 365.547 389.374 365.3C371.71 359.626 354.062 353.941 336.403 348.252C335.709 348.499 338.404 347.567 330.914 350.113Z" fill="#00B3F0"/>
<path d="M230.456 314.143C248.12 319.823 265.77 325.507 283.429 331.192C284.116 330.94 280.964 332.024 289.9 329.001C272.247 323.314 254.591 317.634 236.938 311.955C227.994 314.98 231.151 313.896 230.456 314.143Z" fill="#00B3F0"/>
<path d="M283.434 331.179C301.089 336.864 318.743 342.543 336.401 348.225C337.085 347.98 333.941 349.061 342.882 346.036C325.224 340.352 307.566 334.673 289.904 328.988C280.968 332.011 284.12 330.927 283.434 331.179Z" fill="#00B3F0"/>
<path d="M336.356 348.256C354.015 353.946 371.663 359.631 389.327 365.305C390.012 365.058 386.861 366.142 395.803 363.111C378.146 357.432 360.491 351.753 342.838 346.068C333.896 349.093 337.041 348.012 336.356 348.256Z" fill="#00B3F0"/>
<path d="M371.111 371.611C380.048 368.586 376.409 369.706 383.88 367.158C392.715 370 401.538 372.845 410.365 375.679C402.886 378.227 406.532 377.107 397.59 380.132C388.755 377.294 379.932 374.453 371.111 371.611Z" fill="#00B3F0"/>
<path d="M397.633 380.129C406.575 377.104 402.929 378.224 410.408 375.676C419.242 378.521 428.061 381.363 436.888 384.204C429.413 386.748 433.056 385.639 424.117 388.654C415.287 385.812 406.46 382.971 397.633 380.129Z" fill="#00B1EF"/>
<path d="M383.908 367.164C391.394 364.626 388.698 365.556 389.398 365.309C398.225 368.155 407.052 370.993 415.879 373.834C415.182 374.084 417.871 373.151 410.393 375.685C401.566 372.85 392.739 370.009 383.908 367.164Z" fill="#00B3F0"/>
<path d="M410.383 375.675C417.861 373.141 415.172 374.074 415.869 373.824C424.696 376.662 433.526 379.504 442.353 382.345C441.657 382.595 444.35 381.659 436.864 384.203C428.037 381.361 419.217 378.52 410.383 375.675Z" fill="#00B2F0"/>
<path d="M389.354 365.272C390.039 365.025 386.888 366.109 395.831 363.078C404.658 365.928 413.488 368.772 422.311 371.606C413.369 374.635 416.527 373.548 415.835 373.798C407.008 370.956 398.181 368.118 389.354 365.272Z" fill="#00B3F0"/>
<path d="M415.872 373.831C416.565 373.581 413.407 374.668 422.349 371.643C431.176 374.484 440.006 377.318 448.833 380.163C439.887 383.192 443.046 382.102 442.357 382.352C433.53 379.51 424.699 376.669 415.872 373.831Z" fill="#00B2F0"/>
<path d="M184.012 294.895C192.846 297.737 201.675 300.579 210.502 303.421C212.766 302.656 215.733 301.642 219.052 300.502C210.23 297.659 201.401 294.822 192.572 291.98C189.248 293.116 186.276 294.135 184.012 294.895Z" fill="#00AEEF"/>
<path d="M192.559 292.01C201.388 294.853 210.217 297.69 219.039 300.532C222.358 299.391 226.035 298.135 229.701 296.874C220.872 294.036 212.043 291.194 203.213 288.352C199.555 289.608 195.878 290.869 192.559 292.01Z" fill="#00AEEF"/>
<path d="M210.463 303.464C219.286 306.301 228.116 309.143 236.942 311.986C239.207 311.221 242.179 310.207 245.505 309.066C236.671 306.224 227.841 303.387 219.012 300.545C215.693 301.685 212.727 302.7 210.463 303.464Z" fill="#00B2F0"/>
<path d="M219.01 300.502C227.839 303.344 236.668 306.181 245.503 309.023C248.819 307.89 252.491 306.629 256.162 305.373C247.328 302.53 238.499 299.689 229.672 296.844C226.005 298.105 222.329 299.361 219.01 300.502Z" fill="#00B1F0"/>
<path d="M236.936 311.98C254.589 317.659 272.245 323.338 289.898 329.026C292.165 328.259 295.139 327.246 298.458 326.106C280.8 320.427 263.149 314.747 245.499 309.061C242.172 310.201 239.2 311.215 236.936 311.98Z" fill="#00B3F0"/>
<path d="M245.484 309.059C263.135 314.746 280.786 320.425 298.444 326.104C301.768 324.969 305.432 323.713 309.099 322.451C291.448 316.772 273.795 311.088 256.144 305.408C252.473 306.664 248.801 307.926 245.484 309.059Z" fill="#00B2F0"/>
<path d="M289.932 328.99C307.593 334.675 325.251 340.354 342.91 346.039C345.171 345.274 348.143 344.259 351.465 343.119C333.811 337.435 316.148 331.756 298.492 326.07C295.173 327.211 292.198 328.223 289.932 328.99Z" fill="#00B3F0"/>
<path d="M298.48 326.069C316.136 331.754 333.8 337.434 351.453 343.118C354.775 341.983 358.447 340.721 362.108 339.465C344.455 333.78 326.791 328.101 309.135 322.416C305.469 323.677 301.805 324.934 298.48 326.069Z" fill="#00B2F0"/>
<path d="M342.904 346.07C360.557 351.754 378.212 357.433 395.869 363.113C398.13 362.353 401.102 361.339 404.424 360.198C386.771 354.519 369.112 348.835 351.459 343.15C348.137 344.291 345.165 345.305 342.904 346.07Z" fill="#00B3F0"/>
<path d="M351.404 343.151C369.057 348.835 386.716 354.52 404.369 360.199C407.692 359.066 411.364 357.805 415.025 356.543C397.371 350.864 379.717 345.177 362.059 339.498C358.398 340.754 354.726 342.016 351.404 343.151Z" fill="#00B2F0"/>
<path d="M395.828 363.074C404.655 365.925 413.486 368.768 422.309 371.603C424.57 370.835 427.542 369.822 430.868 368.691C422.037 365.853 413.21 363.005 404.383 360.16C401.061 361.301 398.089 362.315 395.828 363.074Z" fill="#00B3F0"/>
<path d="M404.375 360.187C413.202 363.032 422.029 365.88 430.859 368.718C434.174 367.577 437.846 366.315 441.515 365.058C432.688 362.216 423.854 359.374 415.031 356.531C411.37 357.793 407.697 359.054 404.375 360.187Z" fill="#00B2F0"/>
<path d="M422.303 371.636C431.126 374.481 439.96 377.315 448.787 380.16C451.048 379.393 454.02 378.38 457.342 377.246C448.515 374.404 439.685 371.566 430.862 368.725C427.536 369.855 424.563 370.872 422.303 371.636Z" fill="#00B2F0"/>
<path d="M430.85 368.73C439.673 371.571 448.503 374.409 457.33 377.251C460.652 376.109 464.325 374.853 467.986 373.591C459.159 370.756 450.325 367.911 441.505 365.07C437.84 366.327 434.168 367.588 430.85 368.73Z" fill="#00B1F0"/>
<path d="M203.172 288.34C210.331 285.884 217.457 283.438 221.87 281.945C230.699 284.788 239.534 287.629 248.355 290.467C243.942 291.966 236.812 294.406 229.66 296.862C220.831 294.025 212.002 291.183 203.172 288.34Z" fill="#00AEEF"/>
<path d="M229.719 296.859C236.871 294.402 244.001 291.962 248.414 290.463C257.248 293.306 266.072 296.148 274.894 298.985C270.481 300.483 263.351 302.929 256.209 305.388C247.375 302.545 238.546 299.703 229.719 296.859Z" fill="#00B0F0"/>
<path d="M256.168 305.381C273.827 311.06 291.482 316.745 309.133 322.424C316.285 319.978 323.409 317.527 327.828 316.029C310.172 310.345 292.521 304.665 274.853 298.979C270.44 300.477 263.31 302.923 256.168 305.381Z" fill="#00B0F0"/>
<path d="M309.164 322.43C326.819 328.115 344.478 333.8 362.126 339.479C369.281 337.028 376.407 334.577 380.828 333.084C363.17 327.399 345.517 321.72 327.859 316.035C323.44 317.533 316.316 319.984 309.164 322.43Z" fill="#00B0F0"/>
<path d="M362.088 339.463C379.747 345.15 397.401 350.829 415.054 356.508C422.209 354.055 429.338 351.604 433.755 350.111C416.097 344.432 398.444 338.747 380.79 333.068C376.369 334.561 369.243 337.012 362.088 339.463Z" fill="#00B0F0"/>
<path d="M415.084 356.523C422.239 354.069 429.367 351.618 433.784 350.125C442.611 352.97 451.434 355.812 460.265 358.654C455.848 360.147 448.719 362.593 441.568 365.05C432.741 362.207 423.911 359.365 415.084 356.523Z" fill="#00B0F0"/>
<path d="M441.535 365.062C448.686 362.605 455.815 360.159 460.232 358.666C469.062 361.503 477.897 364.346 486.716 367.183C482.299 368.688 475.174 371.126 468.012 373.582C459.189 370.748 450.355 367.902 441.535 365.062Z" fill="#00B0F0"/>
</g>
<path d="M18.709 372.359L18.7247 562.228L307.547 467.286L18.7116 372.355L18.709 372.359Z" fill="url(#paint2_linear_788_236)"/>
<path d="M307.511 467.242L18.7812 562.199L307.566 657.118L596.375 562.199V372.355H596.371L307.511 467.242Z" fill="url(#paint3_linear_788_236)"/>
<mask id="mask2_788_236" style="mask-type:luminance" maskUnits="userSpaceOnUse" x="120" y="502" width="372" height="122">
<path d="M209.287 508.287C201.649 510.923 193.877 513.585 189.175 515.185C180.224 518.199 182.614 517.366 181.82 517.645C181.017 517.939 183.391 517.087 174.45 520.134C165.496 523.152 170.878 521.459 166.528 522.858C164.853 523.416 162.41 524.184 156.731 526.093C152.395 527.532 144.825 530.164 138.326 532.363C131.455 534.716 123.604 537.323 120.783 538.263C138.434 543.938 156.1 549.632 173.752 555.312C191.392 560.988 209.045 566.663 226.725 572.343C244.365 578.044 262.019 583.713 279.685 589.399C297.326 595.093 314.976 600.758 332.643 606.449C350.286 612.11 367.934 617.811 385.566 623.487H385.607C388.46 622.529 396.278 619.94 403.146 617.591C409.615 615.395 417.228 612.763 421.552 611.306C427.217 609.415 429.656 608.644 431.366 608.09C435.701 606.672 430.304 608.365 439.269 605.362C448.215 602.344 445.835 603.17 446.613 602.873C447.418 602.597 445.045 603.431 453.98 600.402C458.695 598.812 466.465 596.125 474.081 593.533C480.956 591.176 487.664 588.871 491.899 587.443C474.241 581.752 456.587 576.073 438.934 570.397C421.284 564.718 403.63 559.042 385.965 553.351C368.312 547.661 350.656 541.971 333.019 536.31C315.352 530.616 297.712 524.951 280.061 519.26C262.381 513.57 244.754 507.891 227.1 502.215C222.846 503.643 216.119 505.945 209.287 508.287Z" fill="white"/>
</mask>
<g mask="url(#mask2_788_236)">
<path d="M120.545 538.393C123.347 537.453 131.197 534.846 138.078 532.508C146.905 535.342 155.729 538.184 164.555 541.025C157.669 543.364 149.827 545.967 147.02 546.914C138.191 544.072 129.366 541.234 120.545 538.393Z" fill="#CE293E"/>
<path d="M147.02 546.938C149.827 545.99 157.669 543.387 164.555 541.049C173.385 543.89 182.214 546.732 191.04 549.573C184.154 551.912 176.312 554.519 173.497 555.466C164.67 552.624 155.846 549.783 147.02 546.938Z" fill="#CE293E"/>
<path d="M173.541 555.457C191.191 561.136 208.85 566.816 226.511 572.499C229.313 571.552 237.162 568.949 244.05 566.614C226.391 560.931 208.735 555.24 191.084 549.564C184.198 551.903 176.356 554.51 173.541 555.457Z" fill="#CE293E"/>
<path d="M226.441 572.483C244.087 578.162 261.743 583.852 279.399 589.528C282.208 588.57 290.051 585.974 296.937 583.636C279.286 577.956 261.635 572.277 243.98 566.598C237.093 568.933 229.243 571.535 226.441 572.483Z" fill="#CE293E"/>
<path d="M279.461 589.549C297.114 595.232 314.765 600.911 332.42 606.601C335.23 605.643 343.07 603.048 349.97 600.709C332.311 595.022 314.655 589.343 296.999 583.656C290.113 585.995 282.271 588.59 279.461 589.549Z" fill="#CE293E"/>
<path d="M332.385 606.58C335.195 605.622 343.035 603.026 349.934 600.688C358.755 603.525 367.577 606.363 376.413 609.205C369.519 611.543 361.68 614.143 358.865 615.097C350.033 612.252 341.212 609.418 332.385 606.58Z" fill="#CE293E"/>
<path d="M358.836 615.121C361.651 614.166 369.49 611.567 376.384 609.229C385.211 612.07 394.034 614.912 402.865 617.749C395.982 620.092 388.135 622.698 385.315 623.642C376.485 620.797 367.662 617.962 358.836 615.121Z" fill="#CE293E"/>
<path d="M138.068 532.531C146.895 535.366 155.719 538.207 164.545 541.049C166.172 540.498 167.864 539.922 169.557 539.338C160.73 536.493 151.901 533.651 143.072 530.824C141.385 531.393 139.693 531.977 138.068 532.531Z" fill="#D8253C"/>
<path d="M143.078 530.814C151.907 533.64 160.736 536.482 169.563 539.327C171.253 538.751 172.945 538.174 174.569 537.613C165.742 534.76 156.918 531.922 148.092 529.092C146.465 529.65 144.773 530.23 143.078 530.814Z" fill="#DB263C"/>
<path d="M148.088 529.11C151.336 527.994 154.316 526.973 156.478 526.246C160.889 527.667 165.302 529.084 169.718 530.512C167.55 531.235 164.576 532.252 161.325 533.365C156.914 531.94 152.498 530.527 148.088 529.11Z" fill="#DC253C"/>
<path d="M161.336 533.345C165.749 534.758 170.165 536.19 174.576 537.611C176.203 537.06 177.76 536.524 179.18 536.043C174.764 534.615 170.353 533.194 165.94 531.773C164.519 532.258 162.963 532.787 161.336 533.345Z" fill="#DD3043"/>
<path d="M165.967 531.773C170.38 533.194 174.791 534.615 179.207 536.043C180.63 535.551 181.915 535.114 182.996 534.754C178.586 533.334 174.167 531.906 169.756 530.492C168.675 530.845 167.382 531.289 165.967 531.773Z" fill="#DF3245"/>
<path d="M164.518 541.053C173.347 543.894 182.177 546.736 191.003 549.577C192.622 549.023 194.317 548.446 196.009 547.87C187.18 545.029 178.353 542.183 169.529 539.342C167.837 539.926 166.144 540.502 164.518 541.053Z" fill="#D93141"/>
<path d="M169.551 539.324C178.375 542.169 187.202 545.011 196.031 547.852C197.718 547.268 199.412 546.685 201.037 546.13C192.208 543.289 183.387 540.458 174.558 537.609C172.933 538.171 171.241 538.747 169.551 539.324Z" fill="#DB3444"/>
<path d="M174.586 537.614C178.999 539.042 183.415 540.463 187.826 541.88C189.45 541.319 191.009 540.783 192.429 540.298C188.014 538.87 183.6 537.467 179.19 536.043C177.769 536.528 176.213 537.064 174.586 537.614Z" fill="#DE3847"/>
<path d="M179.168 536.05C183.578 537.471 187.992 538.873 192.408 540.302C193.828 539.817 195.116 539.384 196.197 539.024C191.786 537.603 187.373 536.182 182.957 534.762C181.876 535.121 180.591 535.558 179.168 536.05Z" fill="#E13B4B"/>
<path d="M187.811 541.871C192.221 543.285 196.639 544.702 201.05 546.126C202.674 545.572 204.233 545.032 205.66 544.551C201.243 543.131 196.825 541.71 192.414 540.289C190.994 540.774 189.435 541.31 187.811 541.871Z" fill="#DE3C4A"/>
<path d="M192.416 540.285C196.826 541.706 201.245 543.127 205.662 544.548C207.077 544.059 208.362 543.623 209.451 543.263C205.032 541.838 200.621 540.425 196.205 539.008C195.124 539.368 193.837 539.801 192.416 540.285Z" fill="#E1404F"/>
<path d="M191.039 549.541C244.005 566.587 296.961 583.64 349.932 600.681C351.551 600.127 353.243 599.551 354.93 598.967C301.967 581.925 249.011 564.876 196.045 547.834C194.353 548.41 192.658 548.987 191.039 549.541Z" fill="#D93543"/>
<path d="M196.002 547.87C248.967 564.912 301.924 581.961 354.886 599.003C356.584 598.427 358.276 597.847 359.906 597.281C306.936 580.236 253.973 563.194 201.008 546.148C199.384 546.699 197.689 547.287 196.002 547.87Z" fill="#DC3947"/>
<path d="M201.059 546.136C254.024 563.181 306.987 580.223 359.957 597.265C361.581 596.71 363.137 596.174 364.552 595.69C311.59 578.641 258.628 561.599 205.668 544.561C204.242 545.041 202.683 545.581 201.059 546.136Z" fill="#DF3D4B"/>
<path d="M205.713 544.564C258.672 561.602 311.635 578.648 364.597 595.693C366.023 595.205 367.308 594.779 368.389 594.412C315.424 577.374 262.459 560.321 209.502 543.279C208.413 543.639 207.129 544.076 205.713 544.564Z" fill="#E24151"/>
<path d="M349.955 600.718C358.776 603.556 367.597 606.394 376.434 609.236C378.054 608.681 379.745 608.105 381.44 607.529C372.613 604.683 363.785 601.842 354.953 599.004C353.266 599.588 351.574 600.164 349.955 600.718Z" fill="#D93543"/>
<path d="M354.918 599.019C363.749 601.857 372.578 604.698 381.405 607.543C383.092 606.96 384.786 606.372 386.418 605.821C377.576 602.98 368.753 600.138 359.937 597.297C358.308 597.862 356.615 598.442 354.918 599.019Z" fill="#DC3947"/>
<path d="M359.951 597.262C364.359 598.683 368.767 600.104 373.18 601.525C374.804 600.963 376.368 600.43 377.791 599.95C373.374 598.521 368.966 597.104 364.547 595.684C363.132 596.168 361.575 596.704 359.951 597.262Z" fill="#DF3D4B"/>
<path d="M364.535 595.684C368.953 597.104 373.362 598.521 377.779 599.95C379.195 599.465 380.487 599.032 381.567 598.672C377.154 597.251 372.736 595.83 368.327 594.402C367.246 594.769 365.961 595.195 364.535 595.684Z" fill="#E14150"/>
<path d="M373.178 601.528C377.587 602.949 382.008 604.37 386.429 605.79C388.053 605.236 389.61 604.7 391.029 604.215C386.615 602.795 382.198 601.367 377.789 599.953C376.366 600.438 374.802 600.966 373.178 601.528Z" fill="#DE3C4A"/>
<path d="M377.783 599.949C382.193 601.363 386.61 602.791 391.024 604.212C392.439 603.727 393.724 603.29 394.811 602.934C390.398 601.513 385.984 600.093 381.571 598.672C380.491 599.032 379.198 599.465 377.783 599.949Z" fill="#E1404F"/>
<path d="M376.406 609.232C385.233 612.074 394.053 614.915 402.887 617.753C404.503 617.21 406.198 616.622 407.889 616.05C399.062 613.208 390.235 610.367 381.412 607.521C379.717 608.102 378.026 608.678 376.406 609.232Z" fill="#D93142"/>
<path d="M381.369 607.511C390.196 610.352 399.019 613.194 407.85 616.035C409.541 615.455 411.228 614.872 412.863 614.317C404.029 611.472 395.209 608.631 386.382 605.789C384.751 606.34 383.056 606.927 381.369 607.511Z" fill="#DB3444"/>
<path d="M386.426 605.798C390.832 607.215 395.253 608.639 399.666 610.056C401.29 609.506 402.847 608.97 404.266 608.485C399.852 607.064 395.439 605.643 391.025 604.223C389.606 604.707 388.05 605.243 386.426 605.798Z" fill="#DE3747"/>
<path d="M391.008 604.219C395.421 605.64 399.835 607.061 404.248 608.481C405.663 607.993 406.948 607.563 408.036 607.2C403.622 605.783 399.209 604.359 394.796 602.941C393.708 603.298 392.423 603.734 391.008 604.219Z" fill="#E03B4B"/>
<path d="M399.674 610.04C402.922 608.931 405.894 607.914 408.061 607.188C412.475 608.608 416.888 610.025 421.294 611.439C419.138 612.166 416.162 613.197 412.914 614.31C408.501 612.885 404.08 611.464 399.674 610.04Z" fill="#DC3043"/>
<path d="M156.492 526.219C162.167 524.325 164.601 523.543 166.295 522.996C170.706 524.413 175.117 525.841 179.53 527.262C177.841 527.805 175.407 528.591 169.732 530.485C165.316 529.057 160.903 527.64 156.492 526.219Z" fill="#DD233B"/>
<path d="M169.67 530.489C175.345 528.591 177.779 527.809 179.469 527.266C183.884 528.686 188.295 530.107 192.706 531.528C191.019 532.075 188.585 532.857 182.91 534.751C178.5 533.331 174.081 531.902 169.67 530.489Z" fill="#E03346"/>
<path d="M182.967 534.759C188.641 532.864 191.075 532.082 192.762 531.535C197.18 532.956 201.591 534.377 206.002 535.797C204.32 536.344 201.881 537.126 196.206 539.021C191.796 537.6 187.382 536.179 182.967 534.759Z" fill="#E13D4D"/>
<path d="M196.215 539.007C201.889 537.112 204.328 536.33 206.011 535.783C210.429 537.2 214.84 538.617 219.256 540.038C217.574 540.593 215.127 541.363 209.46 543.262C205.042 541.841 200.631 540.424 196.215 539.007Z" fill="#E24251"/>
<path d="M166.299 522.995C170.637 521.586 165.268 523.285 174.215 520.268C178.628 521.688 183.039 523.105 187.454 524.523C178.508 527.533 183.871 525.848 179.534 527.261C175.121 525.841 170.71 524.412 166.299 522.995Z" fill="#DF223B"/>
<path d="M179.5 527.252C183.837 525.839 178.474 527.524 187.42 524.514C191.831 525.927 196.244 527.355 200.66 528.776C191.713 531.794 197.074 530.105 192.737 531.515C188.326 530.094 183.916 528.673 179.5 527.252Z" fill="#E33546"/>
<path d="M192.773 531.547C197.111 530.138 191.75 531.826 200.696 528.809C205.108 530.229 209.521 531.65 213.936 533.071C204.995 536.089 210.356 534.4 206.014 535.81C201.602 534.389 197.192 532.968 192.773 531.547Z" fill="#E6404F"/>
<path d="M206.021 535.817C210.365 534.407 205.003 536.096 213.944 533.078C218.355 534.499 222.766 535.916 227.179 537.34C218.238 540.355 223.604 538.658 219.267 540.072C214.851 538.651 210.44 537.234 206.021 535.817Z" fill="#E84854"/>
<path d="M209.418 543.276C227.068 548.948 244.724 554.639 262.375 560.322C267.284 558.681 269.579 557.939 271.214 557.399C253.888 551.61 236.553 545.835 219.213 540.053C217.532 540.607 215.085 541.382 209.418 543.276Z" fill="#E34353"/>
<path d="M262.389 560.32C280.047 565.996 297.703 571.672 315.354 577.355C319.493 575.975 321.639 575.277 323.243 574.73C305.908 568.952 288.563 563.177 271.228 557.395C269.593 557.934 267.298 558.676 262.389 560.32Z" fill="#E34353"/>
<path d="M315.338 577.336C332.985 583.023 350.65 588.706 368.302 594.385C371.687 593.258 373.676 592.594 375.233 592.069C357.898 586.286 340.564 580.504 323.227 574.711C321.623 575.258 319.477 575.955 315.338 577.336Z" fill="#E34353"/>
<path d="M219.223 540.056C236.562 545.838 253.897 551.613 271.224 557.402C275.105 556.128 271.994 557.097 280.098 554.37C262.447 548.69 244.796 543.011 227.135 537.324C218.194 540.338 223.56 538.642 219.223 540.056Z" fill="#E94B56"/>
<path d="M271.223 557.413C288.558 563.195 305.902 568.97 323.237 574.749C326.65 573.636 325.802 573.879 333.059 571.426C315.406 565.747 297.752 560.064 280.097 554.381C271.993 557.109 275.104 556.139 271.223 557.413Z" fill="#E94B56"/>
<path d="M323.221 574.737C340.558 580.53 357.893 586.312 375.227 592.094C378.188 591.099 379.585 590.633 386.013 588.463C368.343 582.78 350.706 577.093 333.042 571.414C325.785 573.866 326.634 573.624 323.221 574.737Z" fill="#E84955"/>
<path d="M368.381 594.418C371.765 593.291 373.754 592.627 375.311 592.102C379.967 593.449 384.615 594.793 389.263 596.14C387.695 596.669 385.36 597.436 381.62 598.688C377.207 597.267 372.79 595.846 368.381 594.418Z" fill="#E34353"/>
<path d="M381.582 598.706C385.321 597.454 387.657 596.687 389.225 596.158C393.88 597.506 398.536 598.849 403.187 600.2C401.564 600.733 399.351 601.456 394.822 602.968C390.409 601.548 385.995 600.127 381.582 598.706Z" fill="#E24251"/>
<path d="M394.855 602.934C399.384 601.422 401.597 600.698 403.221 600.166C407.876 601.502 412.524 602.853 417.183 604.197C415.511 604.74 413.407 605.412 408.096 607.193C403.682 605.776 399.269 604.351 394.855 602.934Z" fill="#E13D4D"/>
<path d="M408.057 607.195C413.368 605.414 415.472 604.743 417.144 604.199C421.796 605.536 426.452 606.887 431.1 608.23C429.413 608.785 426.969 609.559 421.29 611.446C416.884 610.033 412.47 608.616 408.057 607.195Z" fill="#E03346"/>
<path d="M375.291 592.102C378.252 591.107 379.649 590.64 386.077 588.471C390.49 589.891 394.904 591.305 399.317 592.726C392.49 595.035 392.427 595.083 389.243 596.14C384.595 594.796 379.947 593.453 375.291 592.102Z" fill="#E84955"/>
<path d="M389.227 596.131C392.411 595.074 392.474 595.026 399.301 592.717C403.715 594.138 408.121 595.558 412.541 596.979C404.851 599.575 406.836 598.965 403.189 600.173C398.538 598.822 393.882 597.478 389.227 596.131Z" fill="#E74754"/>
<path d="M403.213 600.182C406.859 598.974 404.874 599.584 412.565 596.988C416.978 598.405 421.384 599.83 425.805 601.247C417.243 604.136 421.295 602.87 417.176 604.213C412.517 602.87 407.868 601.519 403.213 600.182Z" fill="#E5404F"/>
<path d="M417.127 604.224C421.246 602.881 417.194 604.147 425.753 601.258C430.166 602.682 434.576 604.103 438.993 605.527C430.043 608.542 435.421 606.845 431.082 608.255C426.434 606.912 421.779 605.561 417.127 604.224Z" fill="#E33547"/>
<path d="M174.205 520.286C183.147 517.257 180.762 518.091 181.567 517.801C185.972 519.225 190.391 520.646 194.801 522.067C194.002 522.346 196.386 521.516 187.445 524.541C183.029 523.124 178.619 521.707 174.205 520.286Z" fill="#E0223B"/>
<path d="M187.455 524.521C196.397 521.496 194.012 522.326 194.812 522.047C199.222 523.468 203.64 524.892 208.052 526.313C207.253 526.588 209.642 525.766 200.695 528.784C196.279 527.363 191.866 525.935 187.455 524.521Z" fill="#E63747"/>
<path d="M200.656 528.811C209.603 525.793 207.214 526.615 208.013 526.34C212.429 527.753 216.84 529.181 221.253 530.602C220.454 530.881 222.843 530.055 213.897 533.073C209.481 531.652 205.067 530.231 200.656 528.811Z" fill="#EB4551"/>
<path d="M213.928 533.059C222.874 530.041 220.485 530.867 221.284 530.588C225.7 532.009 230.11 533.429 234.529 534.85C233.73 535.129 236.109 534.299 227.162 537.321C222.749 535.896 218.338 534.479 213.928 533.059Z" fill="#F04D57"/>
<path d="M181.543 517.776C182.337 517.5 179.958 518.326 188.899 515.309C193.31 516.729 197.728 518.146 202.139 519.56C193.197 522.578 195.577 521.755 194.777 522.042C190.367 520.621 185.948 519.2 181.543 517.776Z" fill="#E1213B"/>
<path d="M194.838 522.062C195.637 521.775 193.258 522.598 202.2 519.58C206.611 521.001 211.029 522.422 215.44 523.846C206.498 526.86 208.877 526.038 208.078 526.328C203.667 524.903 199.249 523.483 194.838 522.062Z" fill="#E73848"/>
<path d="M208.016 526.331C208.815 526.041 206.436 526.864 215.377 523.85C219.793 525.27 224.203 526.684 228.617 528.112C219.675 531.122 222.052 530.304 221.255 530.594C216.842 529.173 212.431 527.745 208.016 526.331Z" fill="#EB4450"/>
<path d="M221.289 530.577C222.085 530.287 219.709 531.106 228.65 528.096C233.066 529.516 237.477 530.937 241.891 532.358C232.949 535.376 235.333 534.553 234.534 534.84C230.116 533.419 225.705 531.998 221.289 530.577Z" fill="#F04D57"/>
<path d="M227.178 537.328C244.839 543.015 262.489 548.694 280.14 554.374C289.087 551.345 286.71 552.167 287.507 551.899C269.856 546.216 252.201 540.544 234.544 534.857C233.745 535.136 236.124 534.307 227.178 537.328Z" fill="#F04F59"/>
<path d="M280.102 554.365C297.757 560.048 315.411 565.731 333.064 571.411C342.006 568.396 339.624 569.219 340.434 568.936C322.783 563.249 305.132 557.577 287.468 551.891C286.672 552.159 289.048 551.336 280.102 554.365Z" fill="#F04F59"/>
<path d="M333.098 571.422C350.762 577.101 368.399 582.788 386.069 588.471C395.011 585.442 392.628 586.272 393.432 585.989C375.767 580.299 358.126 574.619 340.468 568.947C339.658 569.23 342.04 568.408 333.098 571.422Z" fill="#F04F59"/>
<path d="M234.562 534.849C252.219 540.532 269.874 546.208 287.525 551.891C288.324 551.615 285.953 552.434 294.887 549.405C277.226 543.737 259.575 538.05 241.919 532.367C232.977 535.385 235.362 534.563 234.562 534.849Z" fill="#F04F59"/>
<path d="M287.486 551.884C305.15 557.571 322.801 563.246 340.452 568.929C341.24 568.658 338.863 569.469 347.805 566.459C330.157 560.772 312.499 555.089 294.848 549.398C285.915 552.427 288.286 551.609 287.486 551.884Z" fill="#F04F59"/>
<path d="M340.459 568.951C358.117 574.623 375.762 580.303 393.423 585.993C394.217 585.714 391.837 586.533 400.779 583.522C383.125 577.839 365.471 572.153 347.813 566.48C338.871 569.491 341.248 568.676 340.459 568.951Z" fill="#F04F59"/>
<path d="M386.021 588.462C394.964 585.433 392.58 586.263 393.385 585.98C397.794 587.401 402.212 588.822 406.625 590.239C405.821 590.533 408.204 589.699 399.262 592.717C394.848 591.296 390.435 589.883 386.021 588.462Z" fill="#F04F59"/>
<path d="M399.295 592.705C408.237 589.687 405.854 590.52 406.658 590.227C411.068 591.655 415.481 593.068 419.895 594.496C419.094 594.775 421.474 593.946 412.535 596.967C408.114 595.546 403.708 594.125 399.295 592.705Z" fill="#EE4C57"/>
<path d="M412.543 596.967C421.482 593.945 419.102 594.775 419.902 594.496C424.316 595.917 428.722 597.338 433.132 598.758C432.342 599.037 434.722 598.211 425.783 601.225C421.362 599.808 416.956 598.384 412.543 596.967Z" fill="#EA4551"/>
<path d="M425.746 601.235C434.688 598.221 432.309 599.047 433.094 598.768C437.515 600.185 441.929 601.609 446.335 603.026C445.549 603.309 447.929 602.487 438.986 605.501C434.569 604.08 430.16 602.659 425.746 601.235Z" fill="#E53748"/>
<path d="M393.383 585.959C394.176 585.68 391.796 586.499 400.739 583.488C405.152 584.909 409.558 586.326 413.979 587.74C405.037 590.754 407.416 589.946 406.623 590.218C402.21 588.801 397.793 587.38 393.383 585.959Z" fill="#F04F59"/>
<path d="M406.656 590.261C407.45 589.99 405.07 590.797 414.008 587.783C418.422 589.2 422.831 590.628 427.249 592.042C418.31 595.067 420.686 594.237 419.889 594.531C415.476 593.103 411.066 591.689 406.656 590.261Z" fill="#F04D57"/>
<path d="M419.928 594.495C420.721 594.201 418.345 595.031 427.283 592.006C431.697 593.434 436.107 594.855 440.524 596.276C431.581 599.293 433.961 598.467 433.157 598.757C428.747 597.336 424.337 595.916 419.928 594.495Z" fill="#EB4551"/>
<path d="M433.129 598.757C433.933 598.471 431.557 599.293 440.5 596.275C444.913 597.696 449.326 599.113 453.74 600.538C444.798 603.552 447.174 602.733 446.369 603.016C441.963 601.599 437.55 600.174 433.129 598.757Z" fill="#E63747"/>
<path d="M188.926 515.308C191.281 514.508 194.402 513.443 197.885 512.25C202.301 513.663 206.713 515.092 211.126 516.512C207.642 517.705 204.521 518.766 202.165 519.559C197.755 518.142 193.336 516.729 188.926 515.308Z" fill="#E3203B"/>
<path d="M202.129 519.596C206.54 521.017 210.958 522.437 215.369 523.862C216.547 523.465 217.918 522.999 219.422 522.489C215.011 521.064 210.601 519.647 206.185 518.227C204.678 518.737 203.307 519.199 202.129 519.596Z" fill="#E83747"/>
<path d="M206.236 518.221C210.652 519.642 215.063 521.059 219.474 522.483C220.985 521.969 222.633 521.404 224.378 520.805C219.967 519.384 215.556 517.964 211.141 516.543C209.396 517.141 207.748 517.707 206.236 518.221Z" fill="#E83646"/>
<path d="M197.877 512.275C206.704 515.116 215.528 517.958 224.354 520.799C227.843 519.606 231.69 518.288 235.5 516.981C226.665 514.136 217.844 511.295 209.015 508.453C205.21 509.76 201.358 511.078 197.877 512.275Z" fill="#E5203B"/>
<path d="M215.377 523.848C219.793 525.268 224.203 526.682 228.617 528.11C229.794 527.713 231.165 527.251 232.669 526.741C228.259 525.32 223.848 523.899 219.43 522.475C217.926 522.985 216.555 523.451 215.377 523.848Z" fill="#EC4451"/>
<path d="M219.438 522.49C223.856 523.915 228.267 525.335 232.677 526.756C234.189 526.235 235.845 525.673 237.581 525.078C233.171 523.65 228.76 522.233 224.342 520.812C222.597 521.411 220.95 521.976 219.438 522.49Z" fill="#EC424F"/>
<path d="M228.65 528.114C233.066 529.534 237.477 530.955 241.891 532.376C243.069 531.979 244.437 531.513 245.944 530.992C241.533 529.575 237.122 528.165 232.703 526.744C231.199 527.254 229.828 527.717 228.65 528.114Z" fill="#F04D57"/>
<path d="M232.686 526.713C237.104 528.134 241.515 529.543 245.926 530.961C247.438 530.45 249.091 529.889 250.83 529.29C246.419 527.877 242.009 526.456 237.59 525.035C235.853 525.63 234.198 526.192 232.686 526.713Z" fill="#F04B55"/>
<path d="M224.328 520.792C227.817 519.599 231.664 518.281 235.473 516.971C239.885 518.388 244.296 519.816 248.714 521.237C244.901 522.544 241.058 523.862 237.568 525.058C233.157 523.63 228.747 522.213 224.328 520.792Z" fill="#EC3F4A"/>
<path d="M237.602 525.062C241.091 523.865 244.935 522.547 248.748 521.24C253.158 522.654 257.569 524.071 261.987 525.488C258.175 526.802 254.331 528.124 250.842 529.317C246.431 527.904 242.021 526.483 237.602 525.062Z" fill="#EF4650"/>
<path d="M241.898 532.351C259.554 538.034 277.205 543.721 294.866 549.389C296.043 548.993 297.414 548.53 298.927 548.016C281.266 542.34 263.607 536.657 245.951 530.967C244.445 531.488 243.076 531.954 241.898 532.351Z" fill="#F04F59"/>
<path d="M245.959 531C263.615 536.691 281.273 542.374 298.934 548.05C300.446 547.539 302.094 546.97 303.838 546.376C286.178 540.7 268.519 535.017 250.863 529.33C249.124 529.928 247.471 530.49 245.959 531Z" fill="#F04D56"/>
<path d="M250.873 529.315C268.529 535.002 286.187 540.685 303.848 546.361C307.325 545.164 311.171 543.842 314.981 542.539C297.33 536.86 279.674 531.177 262.018 525.486C258.206 526.801 254.362 528.122 250.873 529.315Z" fill="#EF4851"/>
<path d="M294.822 549.42C312.473 555.11 330.131 560.793 347.78 566.48C348.965 566.076 350.334 565.614 351.843 565.1C334.189 559.413 316.534 553.73 298.883 548.047C297.371 548.561 296 549.023 294.822 549.42Z" fill="#F04F59"/>
<path d="M298.883 548.037C316.534 553.72 334.189 559.404 351.843 565.09C353.352 564.576 355.003 564.007 356.747 563.416C339.094 557.733 321.433 552.054 303.787 546.363C302.043 546.958 300.395 547.527 298.883 548.037Z" fill="#F04D56"/>
<path d="M303.799 546.365C321.445 552.051 339.105 557.735 356.759 563.418C360.243 562.228 364.092 560.907 367.894 559.596C350.241 553.913 332.588 548.222 314.932 542.543C311.122 543.846 307.275 545.168 303.799 546.365Z" fill="#EF4851"/>
<path d="M347.818 566.46C365.476 572.133 383.131 577.819 400.785 583.502C401.961 583.099 403.332 582.636 404.84 582.122C387.187 576.439 369.534 570.748 351.881 565.08C350.372 565.594 349.004 566.057 347.818 566.46Z" fill="#F04F59"/>
<path d="M351.879 565.094C369.532 570.762 387.184 576.453 404.838 582.136C406.346 581.622 408 581.056 409.732 580.458C392.085 574.779 374.435 569.096 356.783 563.42C355.039 564.011 353.388 564.58 351.879 565.094Z" fill="#F04D56"/>
<path d="M356.77 563.421C374.421 569.097 392.072 574.78 409.718 580.46C413.208 579.263 417.051 577.945 420.865 576.638C403.204 570.955 385.558 565.279 367.904 559.6C364.102 560.91 360.253 562.232 356.77 563.421Z" fill="#EF4851"/>
<path d="M400.744 583.517C405.154 584.938 409.564 586.355 413.985 587.768C415.158 587.372 416.525 586.909 418.029 586.395C413.627 584.978 409.21 583.554 404.8 582.137C403.292 582.651 401.921 583.113 400.744 583.517Z" fill="#F04F59"/>
<path d="M404.803 582.131C409.212 583.548 413.63 584.972 418.032 586.39C419.548 585.879 421.194 585.314 422.937 584.715C418.531 583.295 414.118 581.874 409.697 580.453C407.965 581.048 406.311 581.617 404.803 582.131Z" fill="#F04D56"/>
<path d="M414.016 587.756C418.429 589.173 422.839 590.601 427.256 592.014C428.437 591.618 429.807 591.155 431.308 590.652C426.895 589.228 422.489 587.807 418.064 586.383C416.559 586.897 415.193 587.359 414.016 587.756Z" fill="#F04D57"/>
<path d="M418.053 586.397C422.477 587.821 426.887 589.246 431.301 590.666C432.813 590.152 434.459 589.58 436.202 588.981C431.788 587.564 427.375 586.14 422.958 584.723C421.215 585.321 419.569 585.886 418.053 586.397Z" fill="#F04B55"/>
<path d="M409.695 580.455C413.185 579.258 417.029 577.94 420.843 576.633C425.256 578.05 429.662 579.474 434.083 580.891C430.269 582.206 426.425 583.524 422.936 584.717C418.53 583.296 414.116 581.875 409.695 580.455Z" fill="#EF4851"/>
<path d="M422.99 584.704C426.48 583.511 430.324 582.193 434.134 580.879C438.547 582.307 442.957 583.728 447.374 585.149C443.564 586.452 439.72 587.773 436.234 588.963C431.821 587.546 427.407 586.121 422.99 584.704Z" fill="#EF4650"/>
<path d="M427.266 592.016C431.679 593.444 436.089 594.865 440.506 596.286C441.675 595.889 443.05 595.427 444.562 594.917C440.152 593.492 435.731 592.075 431.322 590.654C429.817 591.157 428.446 591.62 427.266 592.016Z" fill="#EC4451"/>
<path d="M431.324 590.654C435.738 592.075 440.155 593.492 444.565 594.916C446.073 594.402 447.723 593.837 449.466 593.238C445.052 591.818 440.639 590.397 436.226 588.969C434.483 589.567 432.836 590.14 431.324 590.654Z" fill="#EC434F"/>
<path d="M440.467 596.287C442.824 595.494 445.938 594.433 449.424 593.24C453.838 594.661 458.247 596.078 462.664 597.499C459.175 598.692 456.065 599.757 453.707 600.55C449.294 599.125 444.88 597.708 440.467 596.287Z" fill="#E83847"/>
<path d="M436.24 588.965C445.067 591.814 453.894 594.655 462.721 597.493C466.203 596.296 470.054 594.975 473.861 593.668C465.034 590.822 456.207 587.992 447.38 585.15C443.57 586.454 439.726 587.775 436.24 588.965Z" fill="#EC3F4A"/>
<path d="M209.014 508.473C217.843 511.314 226.664 514.156 235.498 517.001C238.92 515.826 242.312 514.662 245.38 513.612C236.551 510.767 227.729 507.926 218.9 505.084C215.832 506.134 212.44 507.298 209.014 508.473Z" fill="#E71F3A"/>
<path d="M218.891 505.059C227.72 507.901 236.541 510.743 245.371 513.588C248.439 512.53 251.181 511.594 253.304 510.878C244.47 508.037 235.648 505.199 226.819 502.357C224.701 503.077 221.959 504.009 218.891 505.059Z" fill="#E81D3A"/>
<path d="M235.465 516.99C244.287 519.832 253.116 522.666 261.945 525.5C265.371 524.333 268.76 523.169 271.832 522.115C263.003 519.27 254.173 516.443 245.347 513.602C242.279 514.652 238.886 515.815 235.465 516.99Z" fill="#ED3442"/>
<path d="M245.342 513.582C254.168 516.424 262.997 519.251 271.827 522.096C274.896 521.042 277.637 520.11 279.755 519.398C270.926 516.556 262.097 513.715 253.275 510.873C251.152 511.589 248.41 512.525 245.342 513.582Z" fill="#EC2A3E"/>
<path d="M262.01 525.502C279.666 531.192 297.321 536.876 314.972 542.555C318.398 541.387 321.796 540.213 324.859 539.155C307.203 533.483 289.553 527.804 271.896 522.117C268.825 523.171 265.436 524.335 262.01 525.502Z" fill="#EF3B45"/>
<path d="M271.887 522.089C289.543 527.776 307.194 533.455 324.849 539.127C327.918 538.085 330.654 537.141 332.775 536.436C315.122 530.753 297.471 525.074 279.815 519.391C277.698 520.103 274.956 521.035 271.887 522.089Z" fill="#EE2E3E"/>
<path d="M314.934 542.526C332.589 548.202 350.243 553.885 367.896 559.565C371.322 558.39 374.718 557.222 377.776 556.176C360.129 550.504 342.476 544.817 324.82 539.127C321.757 540.184 318.36 541.359 314.934 542.526Z" fill="#EF3B45"/>
<path d="M324.811 539.138C342.467 544.829 360.12 550.515 377.766 556.187C380.839 555.138 383.576 554.201 385.696 553.489C368.043 547.817 350.39 542.127 332.736 536.447C330.615 537.152 327.879 538.096 324.811 539.138Z" fill="#EE2E3E"/>
<path d="M367.906 559.596C385.56 565.275 403.206 570.965 420.867 576.648C424.297 575.474 427.694 574.31 430.759 573.26C413.106 567.577 395.448 561.886 377.787 556.207C374.729 557.253 371.332 558.421 367.906 559.596Z" fill="#EF3B45"/>
<path d="M377.783 556.179C395.444 561.858 413.102 567.549 430.756 573.232C433.821 572.182 436.558 571.246 438.674 570.533C421.013 564.847 403.366 559.167 385.713 553.48C383.593 554.193 380.856 555.129 377.783 556.179Z" fill="#EE2E3E"/>
<path d="M420.83 576.605C429.65 579.447 438.48 582.292 447.307 585.134C450.741 583.959 454.13 582.791 457.199 581.745C448.376 578.885 439.545 576.051 430.722 573.217C427.653 574.267 424.26 575.431 420.83 576.605Z" fill="#EF3B45"/>
<path d="M430.707 573.235C439.534 576.07 448.361 578.908 457.188 581.764C460.257 580.706 462.987 579.767 465.11 579.054C456.279 576.213 447.445 573.375 438.625 570.537C436.51 571.249 433.772 572.185 430.707 573.235Z" fill="#EE2E3E"/>
<path d="M447.305 585.17C456.128 588.011 464.955 590.842 473.782 593.687C477.216 592.505 480.605 591.348 483.674 590.298C474.847 587.453 466.016 584.619 457.197 581.781C454.124 582.828 450.735 583.995 447.305 585.17Z" fill="#ED3442"/>
<path d="M457.254 581.762C466.077 584.6 474.908 587.434 483.735 590.279C486.807 589.229 489.537 588.297 491.664 587.574C482.837 584.732 474.006 581.894 465.179 579.053C463.057 579.765 460.327 580.705 457.254 581.762Z" fill="#EC2A3E"/>
</g>
<defs>
<linearGradient id="paint0_linear_788_236" x1="22.8511" y1="146.201" x2="255.385" y2="317.571" gradientUnits="userSpaceOnUse">
<stop stop-color="#00A9EB"/>
<stop offset="0.00999451" stop-color="#00A9EB"/>
<stop offset="0.300003" stop-color="#00A8EA"/>
<stop offset="0.311666" stop-color="#00A8EA"/>
<stop offset="0.600006" stop-color="#0081C8"/>
<stop offset="0.991796" stop-color="#0062B0"/>
<stop offset="1" stop-color="#0062B0"/>
</linearGradient>
<linearGradient id="paint1_linear_788_236" x1="265.286" y1="422.749" x2="374.878" y2="80.6154" gradientUnits="userSpaceOnUse">
<stop stop-color="#0066B3"/>
<stop offset="0.132215" stop-color="#00AEEF"/>
<stop offset="0.300003" stop-color="#00AEEF"/>
<stop offset="0.5" stop-color="#00AEEF"/>
<stop offset="0.653513" stop-color="#00AEEF"/>
<stop offset="0.949997" stop-color="#0066B3"/>
<stop offset="1" stop-color="#0066B3"/>
</linearGradient>
<linearGradient id="paint2_linear_788_236" x1="22.8101" y1="366.798" x2="255.368" y2="538.184" gradientUnits="userSpaceOnUse">
<stop stop-color="#ED1A3A"/>
<stop offset="0.220152" stop-color="#E11837"/>
<stop offset="0.25" stop-color="#E11837"/>
<stop offset="0.391208" stop-color="#CF3141"/>
<stop offset="0.399994" stop-color="#CF3141"/>
<stop offset="0.566012" stop-color="#B33848"/>
<stop offset="0.574997" stop-color="#B33848"/>
<stop offset="0.583114" stop-color="#B33848"/>
<stop offset="1" stop-color="#9B2E3C"/>
</linearGradient>
<linearGradient id="paint3_linear_788_236" x1="265.176" y1="643.472" x2="374.782" y2="301.296" gradientUnits="userSpaceOnUse">
<stop stop-color="#9B2E3C"/>
<stop offset="0.227468" stop-color="#ED1A3A"/>
<stop offset="0.449997" stop-color="#ED1A3A"/>
<stop offset="0.917689" stop-color="#9B2E3C"/>
<stop offset="0.949997" stop-color="#9B2E3C"/>
<stop offset="1" stop-color="#9B2E3C"/>
</linearGradient>
</defs>
</svg>
