<svg width="1174" height="916" viewBox="0 0 1174 916" fill="none" xmlns="http://www.w3.org/2000/svg">
<g clip-path="url(#clip0_859_148)">
<mask id="mask0_859_148" style="mask-type:luminance" maskUnits="userSpaceOnUse" x="0" y="0" width="1174" height="916">
<path d="M1174 0H0V916H1174V0Z" fill="white"/>
</mask>
<g mask="url(#mask0_859_148)">
<path fill-rule="evenodd" clip-rule="evenodd" d="M118.549 394.115V423.626H34.909V457.919H111.688V485.193H34.909V524.37H120.365V553.882H0V394.115H118.549Z" fill="white"/>
<path fill-rule="evenodd" clip-rule="evenodd" d="M248.497 397.573C242.847 395.231 236.39 394.111 229.327 394.111H143.972V554.082H178.781V491.601H213.588C222.366 491.601 228.621 493.535 232.456 497.401C236.29 501.267 238.809 507.374 240.021 515.719C240.93 522.128 241.636 528.845 242.039 535.867C242.442 542.888 243.654 548.892 245.571 553.98H280.378C278.764 551.742 277.554 549.096 276.746 545.84C275.939 542.685 275.334 539.224 274.931 535.663C274.526 532.101 274.224 528.642 274.124 525.182C274.062 523.056 273.961 521.123 273.869 519.357C273.811 518.25 273.759 517.208 273.72 516.226C273.519 512.155 272.913 508.187 272.105 504.116C271.198 500.046 269.986 496.383 268.17 493.025C266.456 489.667 264.134 486.716 261.31 484.273C258.485 481.831 254.954 479.999 250.615 478.778V478.372C259.494 474.81 265.85 469.619 269.785 462.7C273.72 455.78 275.637 447.639 275.637 438.277C275.637 432.17 274.526 426.473 272.408 421.18C270.289 415.787 267.162 411.207 263.125 407.137C259.09 403.066 254.146 399.912 248.497 397.573ZM234.878 460.982C230.944 464.541 224.892 466.373 216.92 466.373V466.273H178.783V421.293H216.92C224.892 421.293 230.843 423.125 234.878 426.584C238.813 430.046 240.832 435.743 240.832 443.477C240.832 451.618 238.915 457.419 234.878 460.982Z" fill="white"/>
<path fill-rule="evenodd" clip-rule="evenodd" d="M398.022 552.673C390.454 555.93 382.888 557.456 375.119 557.456C363.011 557.456 352.115 555.318 342.33 551.044C332.643 546.771 324.471 540.971 317.812 533.44C311.153 526.011 306.008 517.259 302.477 507.184C298.944 497.11 297.128 486.221 297.128 474.621C297.128 462.716 298.944 451.623 302.477 441.345C306.008 431.168 311.153 422.213 317.812 414.582C324.471 406.949 332.643 401.047 342.33 396.672C352.014 392.295 362.911 390.158 375.119 390.158C383.292 390.158 391.161 391.379 398.728 393.822C406.396 396.263 413.256 399.927 419.411 404.711C425.566 409.492 430.61 415.395 434.646 422.416C438.681 429.438 441.103 437.478 442.01 446.637H408.716C406.598 437.682 402.663 430.965 396.71 426.489C390.756 422.009 383.594 419.771 375.22 419.771C367.351 419.771 360.69 421.297 355.244 424.35C349.794 427.402 345.356 431.472 341.924 436.664C338.495 441.854 336.074 447.655 334.46 454.268C332.945 460.884 332.139 467.6 332.139 474.621C332.139 481.336 332.945 487.85 334.46 494.159C335.973 500.469 338.495 506.166 341.924 511.255C345.356 516.343 349.794 520.415 355.244 523.467C360.69 526.521 367.351 528.046 375.22 528.046C386.722 528.046 395.701 525.095 401.957 519.193C408.213 513.291 411.944 504.743 412.954 493.549H377.842V467.395H444.431V553.792H422.235L418.705 535.678C412.45 543.819 405.59 549.519 398.022 552.673Z" fill="white"/>
<path d="M359.346 898.625C359.346 898.625 595.239 676.689 546.526 435.909C540.928 409.023 526.795 297.04 267.667 150.407C439.648 208.008 504.421 241.148 687.509 183.784C715.935 163.457 808.557 151.116 847.64 0.333399C852.91 -8.9655 860.451 241.751 767.987 417.123C765.318 426.342 603.72 722.147 420.462 859.672C413.968 863.934 359.346 898.625 359.346 898.625Z" fill="url(#paint0_linear_859_148)"/>
<path d="M1149.87 23.7832C1149.87 23.7832 895.021 224.794 921.919 468.594C925.081 495.832 929.102 608.5 1174 776.35C1007.9 704.486 927.403 655.359 736.733 709.037C720.115 722.553 665.11 725.812 582.94 876.769C576.856 885.581 591.852 635.363 699.681 468.594C703.165 459.643 906.132 171.318 1100.98 49.8914C1107.83 46.1973 1149.87 23.7832 1149.87 23.7832Z" fill="url(#paint1_linear_859_148)"/>
</g>
</g>
<defs>
<linearGradient id="paint0_linear_859_148" x1="1031.06" y1="-61.1047" x2="248.333" y2="-174.315" gradientUnits="userSpaceOnUse">
<stop stop-color="white"/>
<stop offset="1" stop-color="#807F7D"/>
</linearGradient>
<linearGradient id="paint1_linear_859_148" x1="657.036" y1="1059.33" x2="1172.21" y2="979.864" gradientUnits="userSpaceOnUse">
<stop stop-color="#777674"/>
<stop offset="1" stop-color="white"/>
</linearGradient>
<clipPath id="clip0_859_148">
<rect width="1174" height="916" fill="white"/>
</clipPath>
</defs>
</svg>
