<svg width="973" height="759" viewBox="0 0 973 759" fill="none" xmlns="http://www.w3.org/2000/svg">
<g clip-path="url(#clip0_788_310)">
<mask id="mask0_788_310" style="mask-type:luminance" maskUnits="userSpaceOnUse" x="0" y="0" width="973" height="759">
<path d="M973 0H0V759H973V0Z" fill="white"/>
</mask>
<g mask="url(#mask0_788_310)">
<path fill-rule="evenodd" clip-rule="evenodd" d="M98.252 326.564V351.017H28.9322V379.433H92.566V402.031H28.9322V434.494H99.7572V458.948H0V326.564H98.252Z" fill="white"/>
<path fill-rule="evenodd" clip-rule="evenodd" d="M205.951 329.427C201.269 327.486 195.918 326.559 190.064 326.559H119.322V459.111H148.171V407.339H177.019C184.294 407.339 189.479 408.941 192.657 412.145C195.834 415.348 197.922 420.408 198.926 427.323C199.68 432.634 200.265 438.199 200.599 444.018C200.933 449.835 201.937 454.81 203.526 459.027H232.374C231.037 457.172 230.034 454.979 229.364 452.281C228.695 449.667 228.193 446.799 227.86 443.849C227.524 440.897 227.274 438.031 227.191 435.164C227.139 433.402 227.056 431.801 226.98 430.337C226.932 429.42 226.888 428.556 226.856 427.743C226.689 424.37 226.188 421.082 225.517 417.709C224.766 414.336 223.762 411.301 222.256 408.519C220.836 405.736 218.911 403.291 216.571 401.267C214.229 399.243 211.303 397.725 207.707 396.714V396.377C215.065 393.425 220.334 389.125 223.595 383.392C226.856 377.657 228.445 370.912 228.445 363.154C228.445 358.095 227.524 353.374 225.768 348.988C224.013 344.519 221.421 340.724 218.075 337.351C214.731 333.979 210.633 331.365 205.951 329.427ZM194.665 381.968C191.403 384.917 186.388 386.435 179.781 386.435V386.352H148.173V349.082H179.781C186.388 349.082 191.32 350.6 194.665 353.466C197.926 356.334 199.599 361.055 199.599 367.463C199.599 374.209 198.01 379.015 194.665 381.968Z" fill="white"/>
<path fill-rule="evenodd" clip-rule="evenodd" d="M329.876 457.946C323.604 460.644 317.333 461.908 310.894 461.908C300.859 461.908 291.829 460.137 283.718 456.595C275.691 453.055 268.917 448.249 263.399 442.009C257.879 435.853 253.615 428.601 250.689 420.253C247.761 411.905 246.256 402.883 246.256 393.271C246.256 383.406 247.761 374.215 250.689 365.698C253.615 357.266 257.879 349.846 263.399 343.523C268.917 337.198 275.691 332.308 283.718 328.683C291.745 325.055 300.776 323.285 310.894 323.285C317.668 323.285 324.19 324.296 330.461 326.321C336.816 328.344 342.502 331.38 347.603 335.344C352.704 339.305 356.885 344.196 360.229 350.014C363.574 355.832 365.581 362.494 366.333 370.083H338.739C336.983 362.663 333.722 357.098 328.789 353.389C323.854 349.677 317.918 347.822 310.977 347.822C304.456 347.822 298.936 349.087 294.421 351.616C289.905 354.145 286.227 357.518 283.383 361.82C280.541 366.121 278.534 370.927 277.196 376.407C275.941 381.889 275.273 387.454 275.273 393.271C275.273 398.836 275.941 404.233 277.196 409.461C278.45 414.689 280.541 419.41 283.383 423.626C286.227 427.842 289.905 431.216 294.421 433.745C298.936 436.276 304.456 437.539 310.977 437.539C320.511 437.539 327.953 435.094 333.137 430.204C338.322 425.313 341.414 418.231 342.251 408.955H313.151V387.284H368.34V458.872H349.943L347.018 443.864C341.833 450.609 336.148 455.332 329.876 457.946Z" fill="white"/>
<path d="M297.823 744.602C297.823 744.602 493.328 560.705 452.955 361.193C448.316 338.916 436.602 246.127 221.84 124.626C364.376 172.354 418.06 199.814 569.801 152.282C593.36 135.439 670.124 125.214 702.516 0.27469C706.884 -7.4304 713.133 200.314 636.5 345.627C634.288 353.267 500.357 598.371 348.475 712.325C343.093 715.856 297.823 744.602 297.823 744.602Z" fill="url(#paint0_linear_788_310)"/>
<path d="M953.003 19.7051C953.003 19.7051 741.786 186.263 764.078 388.277C766.699 410.846 770.032 504.203 973.001 643.284C835.338 583.737 768.623 543.03 610.597 587.508C596.825 598.708 551.237 601.408 483.136 726.491C478.093 733.793 490.522 526.462 579.889 388.277C582.777 380.86 750.994 141.952 912.484 41.3384C918.163 38.2775 953.003 19.7051 953.003 19.7051Z" fill="url(#paint1_linear_788_310)"/>
</g>
</g>
<defs>
<linearGradient id="paint0_linear_788_310" x1="854.536" y1="-50.6331" x2="205.822" y2="-144.481" gradientUnits="userSpaceOnUse">
<stop stop-color="white"/>
<stop offset="1" stop-color="#807F7D"/>
</linearGradient>
<linearGradient id="paint1_linear_788_310" x1="544.546" y1="877.759" x2="971.514" y2="811.887" gradientUnits="userSpaceOnUse">
<stop stop-color="#777674"/>
<stop offset="1" stop-color="white"/>
</linearGradient>
<clipPath id="clip0_788_310">
<rect width="973" height="759" fill="white"/>
</clipPath>
</defs>
</svg>
