<svg width="2792" height="669" viewBox="0 0 2792 669" fill="none" xmlns="http://www.w3.org/2000/svg">
<path d="M1067.28 290.162V428.59C1062.07 435.263 1053.85 442.506 1042.62 450.318C1031.55 458.131 1017.07 464.885 999.162 470.582C981.258 476.116 959.286 478.883 933.244 478.883C910.62 478.883 889.95 475.139 871.232 467.652C852.515 460.003 836.402 448.854 822.893 434.205C809.383 419.557 798.967 401.653 791.643 380.494C784.318 359.335 780.656 335.165 780.656 307.984V284.547C780.656 257.366 784.074 233.196 790.91 212.037C797.909 190.878 807.837 172.975 820.695 158.326C833.716 143.678 849.26 132.529 867.326 124.879C885.555 117.229 905.9 113.404 928.361 113.404C958.472 113.404 983.212 118.368 1002.58 128.297C1022.11 138.225 1037.09 151.897 1047.5 169.312C1057.92 186.565 1064.43 206.422 1067.03 228.883H1001.6C999.813 216.513 996.232 205.689 990.861 196.412C985.49 186.972 977.84 179.648 967.912 174.439C958.146 169.068 945.451 166.383 929.826 166.383C916.643 166.383 905.005 168.987 894.914 174.195C884.823 179.404 876.359 186.972 869.523 196.9C862.688 206.829 857.479 219.117 853.898 233.766C850.48 248.414 848.771 265.178 848.771 284.059V307.984C848.771 327.027 850.725 343.954 854.631 358.766C858.537 373.414 864.152 385.784 871.477 395.875C878.964 405.803 888.16 413.372 899.064 418.58C910.132 423.626 922.665 426.148 936.662 426.148C949.357 426.148 959.855 425.09 968.156 422.975C976.62 420.696 983.374 418.01 988.42 414.918C993.465 411.826 997.372 408.814 1000.14 405.885V339.234H929.582V290.162H1067.28Z" fill="white"/>
<path d="M1244.52 478.883C1224.5 478.883 1206.52 475.628 1190.57 469.117C1174.62 462.607 1161.03 453.574 1149.8 442.018C1138.73 430.299 1130.18 416.708 1124.16 401.246C1118.3 385.621 1115.37 368.857 1115.37 350.953V341.188C1115.37 320.842 1118.3 302.369 1124.16 285.768C1130.02 269.003 1138.32 254.599 1149.06 242.555C1159.81 230.51 1172.66 221.233 1187.64 214.723C1202.61 208.212 1219.13 204.957 1237.2 204.957C1255.92 204.957 1272.44 208.131 1286.76 214.479C1301.08 220.663 1313.05 229.452 1322.65 240.846C1332.25 252.239 1339.49 265.911 1344.38 281.861C1349.26 297.649 1351.7 315.146 1351.7 334.352V361.451H1144.67V317.018H1288.22V312.135C1287.9 301.881 1285.95 292.522 1282.37 284.059C1278.78 275.432 1273.25 268.596 1265.76 263.551C1258.28 258.342 1248.59 255.738 1236.71 255.738C1227.11 255.738 1218.73 257.854 1211.56 262.086C1204.57 266.155 1198.71 272.014 1193.99 279.664C1189.43 287.151 1186.01 296.103 1183.73 306.52C1181.45 316.936 1180.31 328.492 1180.31 341.188V350.953C1180.31 362.021 1181.78 372.275 1184.71 381.715C1187.8 391.155 1192.28 399.374 1198.14 406.373C1204.16 413.209 1211.32 418.58 1219.62 422.486C1228.08 426.23 1237.69 428.102 1248.43 428.102C1261.94 428.102 1274.15 425.497 1285.05 420.289C1296.12 414.918 1305.72 407.024 1313.86 396.607L1346.33 430.299C1340.8 438.437 1333.31 446.249 1323.87 453.736C1314.59 461.223 1303.36 467.327 1290.18 472.047C1276.99 476.604 1261.78 478.883 1244.52 478.883Z" fill="white"/>
<path d="M1383.44 344.605V339.479C1383.44 320.11 1386.21 302.288 1391.74 286.012C1397.27 269.573 1405.33 255.331 1415.91 243.287C1426.49 231.243 1439.43 221.884 1454.73 215.211C1470.03 208.375 1487.44 204.957 1506.97 204.957C1526.83 204.957 1544.41 208.375 1559.71 215.211C1575.17 221.884 1588.19 231.243 1598.77 243.287C1609.35 255.331 1617.41 269.573 1622.94 286.012C1628.48 302.288 1631.24 320.11 1631.24 339.479V344.605C1631.24 363.811 1628.48 381.633 1622.94 398.072C1617.41 414.348 1609.35 428.59 1598.77 440.797C1588.19 452.841 1575.25 462.2 1559.95 468.873C1544.65 475.546 1527.16 478.883 1507.46 478.883C1487.93 478.883 1470.43 475.546 1454.97 468.873C1439.51 462.2 1426.49 452.841 1415.91 440.797C1405.33 428.59 1397.27 414.348 1391.74 398.072C1386.21 381.633 1383.44 363.811 1383.44 344.605ZM1447.89 339.479V344.605C1447.89 356.161 1449.03 366.985 1451.31 377.076C1453.59 387.167 1457.09 396.038 1461.81 403.688C1466.53 411.337 1472.63 417.359 1480.12 421.754C1487.77 425.986 1496.88 428.102 1507.46 428.102C1517.88 428.102 1526.83 425.986 1534.32 421.754C1541.81 417.359 1547.91 411.337 1552.63 403.688C1557.51 396.038 1561.09 387.167 1563.37 377.076C1565.65 366.985 1566.79 356.161 1566.79 344.605V339.479C1566.79 328.085 1565.65 317.424 1563.37 307.496C1561.09 297.405 1557.51 288.535 1552.63 280.885C1547.91 273.072 1541.72 266.969 1534.07 262.574C1526.59 258.017 1517.55 255.738 1506.97 255.738C1496.56 255.738 1487.61 258.017 1480.12 262.574C1472.63 266.969 1466.53 273.072 1461.81 280.885C1457.09 288.535 1453.59 297.405 1451.31 307.496C1449.03 317.424 1447.89 328.085 1447.89 339.479Z" fill="white"/>
<path d="M1891.01 357.057H1958.15C1956.36 380.82 1949.76 401.897 1938.37 420.289C1926.98 438.518 1911.11 452.841 1890.76 463.258C1870.42 473.674 1845.76 478.883 1816.79 478.883C1794.49 478.883 1774.39 474.977 1756.49 467.164C1738.75 459.189 1723.53 447.877 1710.83 433.229C1698.3 418.417 1688.7 400.676 1682.02 380.006C1675.35 359.173 1672.01 335.816 1672.01 309.938V282.838C1672.01 256.959 1675.43 233.603 1682.27 212.77C1689.1 191.936 1698.87 174.195 1711.56 159.547C1724.42 144.736 1739.8 133.342 1757.71 125.367C1775.77 117.392 1795.96 113.404 1818.25 113.404C1847.23 113.404 1871.72 118.775 1891.74 129.518C1911.76 140.097 1927.3 154.664 1938.37 173.219C1949.44 191.773 1956.11 213.095 1958.39 237.184H1891.25C1889.95 222.21 1886.69 209.514 1881.49 199.098C1876.44 188.681 1868.79 180.787 1858.54 175.416C1848.45 169.882 1835.02 167.115 1818.25 167.115C1805.23 167.115 1793.76 169.557 1783.83 174.439C1774.06 179.322 1765.93 186.646 1759.42 196.412C1752.91 206.015 1748.02 218.059 1744.77 232.545C1741.51 246.868 1739.88 263.469 1739.88 282.35V309.938C1739.88 328.004 1741.35 344.199 1744.28 358.521C1747.21 372.844 1751.77 384.97 1757.95 394.898C1764.14 404.827 1772.11 412.395 1781.88 417.604C1791.64 422.812 1803.28 425.416 1816.79 425.416C1833.23 425.416 1846.57 422.812 1856.83 417.604C1867.24 412.395 1875.14 404.745 1880.51 394.654C1886.04 384.563 1889.54 372.031 1891.01 357.057Z" fill="white"/>
<path d="M2162.49 411.256V209.84H2227.43V474H2166.4L2162.49 411.256ZM2170.79 356.568L2190.81 356.08C2190.81 373.821 2188.86 390.178 2184.95 405.152C2181.05 420.126 2174.94 433.147 2166.64 444.215C2158.5 455.12 2148.17 463.665 2135.64 469.85C2123.1 475.872 2108.29 478.883 2091.2 478.883C2078.18 478.883 2066.3 477.092 2055.56 473.512C2044.82 469.768 2035.54 463.99 2027.73 456.178C2020.08 448.202 2014.14 438.03 2009.9 425.66C2005.67 413.128 2003.56 398.072 2003.56 380.494V209.84H2068.01V380.982C2068.01 389.771 2068.99 397.096 2070.94 402.955C2073.06 408.814 2075.9 413.616 2079.48 417.359C2083.23 420.94 2087.54 423.544 2092.42 425.172C2097.47 426.637 2102.84 427.369 2108.54 427.369C2124.16 427.369 2136.45 424.277 2145.4 418.092C2154.52 411.744 2161.03 403.281 2164.93 392.701C2168.84 381.959 2170.79 369.915 2170.79 356.568Z" fill="white"/>
<path d="M2284.32 99H2349.02V415.65L2342.67 474H2284.32V99ZM2518.94 339.234V344.361C2518.94 364.055 2516.74 382.122 2512.35 398.561C2508.11 414.999 2501.68 429.241 2493.06 441.285C2484.43 453.167 2473.69 462.444 2460.83 469.117C2448.14 475.628 2433.24 478.883 2416.15 478.883C2399.88 478.883 2385.72 475.709 2373.67 469.361C2361.79 463.014 2351.78 454.062 2343.64 442.506C2335.51 430.787 2329 417.034 2324.11 401.246C2319.23 385.296 2315.57 367.88 2313.13 349V335.084C2315.57 316.041 2319.23 298.626 2324.11 282.838C2329 267.05 2335.51 253.297 2343.64 241.578C2351.78 229.859 2361.79 220.826 2373.67 214.479C2385.56 208.131 2399.55 204.957 2415.67 204.957C2432.92 204.957 2447.97 208.294 2460.83 214.967C2473.85 221.477 2484.6 230.755 2493.06 242.799C2501.68 254.68 2508.11 268.84 2512.35 285.279C2516.74 301.555 2518.94 319.54 2518.94 339.234ZM2454.24 344.361V339.234C2454.24 328.004 2453.35 317.424 2451.55 307.496C2449.76 297.405 2446.83 288.535 2442.77 280.885C2438.7 273.235 2433.16 267.213 2426.16 262.818C2419.17 258.424 2410.38 256.227 2399.8 256.227C2389.71 256.227 2381.08 257.936 2373.92 261.354C2366.92 264.771 2361.06 269.492 2356.34 275.514C2351.78 281.536 2348.2 288.616 2345.6 296.754C2343.16 304.892 2341.53 313.681 2340.71 323.121V361.207C2341.85 373.74 2344.54 385.051 2348.77 395.143C2353 405.071 2359.27 412.965 2367.57 418.824C2376.03 424.684 2386.94 427.613 2400.29 427.613C2410.7 427.613 2419.41 425.579 2426.41 421.51C2433.41 417.278 2438.94 411.419 2443.01 403.932C2447.08 396.282 2449.93 387.411 2451.55 377.32C2453.35 367.229 2454.24 356.243 2454.24 344.361Z" fill="white"/>
<path d="M2684.46 478.883C2664.45 478.883 2646.46 475.628 2630.51 469.117C2614.56 462.607 2600.97 453.574 2589.74 442.018C2578.67 430.299 2570.13 416.708 2564.1 401.246C2558.24 385.621 2555.31 368.857 2555.31 350.953V341.188C2555.31 320.842 2558.24 302.369 2564.1 285.768C2569.96 269.003 2578.26 254.599 2589.01 242.555C2599.75 230.51 2612.61 221.233 2627.58 214.723C2642.55 208.212 2659.07 204.957 2677.14 204.957C2695.86 204.957 2712.38 208.131 2726.7 214.479C2741.02 220.663 2752.99 229.452 2762.59 240.846C2772.19 252.239 2779.44 265.911 2784.32 281.861C2789.2 297.649 2791.64 315.146 2791.64 334.352V361.451H2584.61V317.018H2728.17V312.135C2727.84 301.881 2725.89 292.522 2722.31 284.059C2718.73 275.432 2713.19 268.596 2705.71 263.551C2698.22 258.342 2688.53 255.738 2676.65 255.738C2667.05 255.738 2658.67 257.854 2651.51 262.086C2644.51 266.155 2638.65 272.014 2633.93 279.664C2629.37 287.151 2625.95 296.103 2623.67 306.52C2621.4 316.936 2620.26 328.492 2620.26 341.188V350.953C2620.26 362.021 2621.72 372.275 2624.65 381.715C2627.74 391.155 2632.22 399.374 2638.08 406.373C2644.1 413.209 2651.26 418.58 2659.56 422.486C2668.03 426.23 2677.63 428.102 2688.37 428.102C2701.88 428.102 2714.09 425.497 2724.99 420.289C2736.06 414.918 2745.66 407.024 2753.8 396.607L2786.27 430.299C2780.74 438.437 2773.25 446.249 2763.81 453.736C2754.53 461.223 2743.3 467.327 2730.12 472.047C2716.94 476.604 2701.72 478.883 2684.46 478.883Z" fill="white"/>
<path d="M572 449.818L504.5 459.282C439.387 468.406 424.352 480.218 394.718 514.327C362.46 551.541 339.987 569.486 299.495 570.924C297.983 570.962 296.432 571 295 571V557.031C296.273 557.031 297.625 556.993 298.978 556.955C334.259 555.743 352.795 540.79 383.422 505.469C415.123 468.936 432.426 455.307 502.392 445.464L569.852 436L572 449.818Z" fill="white"/>
<path d="M588.96 379.634C585.589 382.324 584.794 372.967 578.771 376.755C556.611 390.771 519.072 409.522 485.207 412.931C446.38 416.795 401.378 437.401 375.771 463.008C348.876 489.903 318.08 517.177 292.359 517.177C291.829 517.177 291.261 517.177 290.73 517.139V503.161C290.882 503.199 290.996 503.199 291.147 503.199C291.564 503.199 292.018 503.237 292.473 503.237C313.118 503.237 342.475 476.569 365.922 453.122C393.575 425.469 442.061 403.234 483.805 399.029C517.935 395.658 559.073 373.877 578.771 360.012C580.854 358.535 582.71 357.134 584.301 355.884L588.96 379.634Z" fill="white"/>
<path d="M588.96 298.609C588.43 299.139 584.756 302.889 578.771 308.192C562.141 322.814 527.86 349.33 494.412 351.414C453.501 353.989 422.136 369.861 387.59 392.892C375.582 400.885 364.748 410.582 354.293 419.976C335.05 437.174 316.868 453.462 295.238 454.94C293.723 455.053 292.246 455.091 290.73 455.091V441.151C291.905 441.151 293.117 441.076 294.291 441C311.148 439.864 326.83 425.81 344.975 409.559C355.808 399.862 366.983 389.824 379.824 381.263C416.265 356.982 449.524 340.239 493.54 337.512C532.367 335.087 575.702 292.131 578.771 289.063C578.846 288.949 578.922 288.874 578.922 288.874L588.96 298.609Z" fill="white"/>
<path d="M290.733 557.406V571.384H290.544C275.202 571.384 264.861 568.088 251.376 559.338C247.853 557.065 243.572 553.353 238.156 548.618C221.072 533.807 195.275 511.382 167.017 510.397C127.091 509.071 75.8773 480.85 55.2327 429.598C40.7625 393.688 21.5194 382.021 10.6857 376.263L4.24609 377.968L7.99623 357.816C8.37503 357.967 5.0037 356.187 7.99623 357.816L7.92047 357.967C22.7695 366.414 53.3387 387.552 68.1877 424.371C86.5974 470.13 132.053 495.245 167.471 496.457C200.692 497.593 229.86 522.935 247.285 538.087C252.133 542.254 256.3 545.89 258.99 547.633C270.354 555.019 277.968 557.482 290.733 557.406Z" fill="white"/>
<path d="M233.346 476.57C252.475 489.6 270.468 501.912 290.734 503.199V517.177H290.318C266.074 515.776 245.43 501.684 225.505 488.085C209.557 477.252 194.519 466.986 178.609 463.577C138.759 455.054 111.94 420.469 81.0301 376.188C52.8852 335.921 3.14869 318.761 2.65625 318.61L7.1261 305.39C9.32314 306.109 61.7492 324.216 92.4699 368.195C122.585 411.34 146.601 442.44 181.564 449.94C200.125 453.917 217.02 465.433 233.346 476.57Z" fill="white"/>
<path d="M203.533 405.052C243.572 428.197 266.452 441.455 290.733 441.152V455.092H289.9C262.209 455.092 236.906 440.47 196.525 417.136L185.389 410.734C152.622 391.87 141.524 375.809 127.47 355.505C119.818 344.444 111.106 331.868 97.1659 316.716C60.1571 276.525 4.77641 270.957 4.24609 270.919L5.53402 257.017C7.99622 257.244 66.824 263.191 107.431 307.246C122.053 323.117 131.031 336.11 138.948 347.55C152.509 367.172 162.32 381.339 192.359 398.612L203.533 405.052Z" fill="white"/>
<path d="M290.767 668.47C287.586 668.47 284.441 667.637 281.638 665.97L8.86394 505.207C3.40921 501.987 0 496.04 0 489.714V179.022C0 172.696 3.37133 166.748 8.82606 163.529L281.6 2.50042C287.169 -0.795146 294.101 -0.833036 299.707 2.38677L580.436 163.453C586.005 166.635 589.49 172.62 589.49 179.059V489.638C589.49 496.078 586.043 502.025 580.436 505.245L299.707 666.084C296.942 667.675 293.874 668.47 290.767 668.47ZM21.478 487.744L290.805 646.462L568.05 487.668V181.105L290.805 22.0465L21.478 180.991V487.744Z" fill="white"/>
<rect x="279" y="325" width="23" height="331" fill="white"/>
<rect x="560.656" y="164" width="23" height="331" transform="rotate(60 560.656 164)" fill="white"/>
<rect width="23" height="331" transform="matrix(-0.5 0.866025 0.866025 0.5 19.5 166)" fill="white"/>
</svg>
