<svg width="2792" height="669" viewBox="0 0 2792 669" fill="none" xmlns="http://www.w3.org/2000/svg">
<path d="M1067.28 312.162V450.59C1062.07 457.263 1053.85 464.506 1042.62 472.318C1031.55 480.131 1017.07 486.885 999.162 492.582C981.258 498.116 959.286 500.883 933.244 500.883C910.62 500.883 889.95 497.139 871.232 489.652C852.515 482.003 836.402 470.854 822.893 456.205C809.383 441.557 798.967 423.653 791.643 402.494C784.318 381.335 780.656 357.165 780.656 329.984V306.547C780.656 279.366 784.074 255.196 790.91 234.037C797.909 212.878 807.837 194.975 820.695 180.326C833.716 165.678 849.26 154.529 867.326 146.879C885.555 139.229 905.9 135.404 928.361 135.404C958.472 135.404 983.212 140.368 1002.58 150.297C1022.11 160.225 1037.09 173.897 1047.5 191.312C1057.92 208.565 1064.43 228.422 1067.03 250.883H1001.6C999.813 238.513 996.232 227.689 990.861 218.412C985.49 208.972 977.84 201.648 967.912 196.439C958.146 191.068 945.451 188.383 929.826 188.383C916.643 188.383 905.005 190.987 894.914 196.195C884.823 201.404 876.359 208.972 869.523 218.9C862.688 228.829 857.479 241.117 853.898 255.766C850.48 270.414 848.771 287.178 848.771 306.059V329.984C848.771 349.027 850.725 365.954 854.631 380.766C858.537 395.414 864.152 407.784 871.477 417.875C878.964 427.803 888.16 435.372 899.064 440.58C910.132 445.626 922.665 448.148 936.662 448.148C949.357 448.148 959.855 447.09 968.156 444.975C976.62 442.696 983.374 440.01 988.42 436.918C993.465 433.826 997.372 430.814 1000.14 427.885V361.234H929.582V312.162H1067.28Z" fill="black"/>
<path d="M1244.52 500.883C1224.5 500.883 1206.52 497.628 1190.57 491.117C1174.62 484.607 1161.03 475.574 1149.8 464.018C1138.73 452.299 1130.18 438.708 1124.16 423.246C1118.3 407.621 1115.37 390.857 1115.37 372.953V363.188C1115.37 342.842 1118.3 324.369 1124.16 307.768C1130.02 291.003 1138.32 276.599 1149.06 264.555C1159.81 252.51 1172.66 243.233 1187.64 236.723C1202.61 230.212 1219.13 226.957 1237.2 226.957C1255.92 226.957 1272.44 230.131 1286.76 236.479C1301.08 242.663 1313.05 251.452 1322.65 262.846C1332.25 274.239 1339.49 287.911 1344.38 303.861C1349.26 319.649 1351.7 337.146 1351.7 356.352V383.451H1144.67V339.018H1288.22V334.135C1287.9 323.881 1285.95 314.522 1282.37 306.059C1278.78 297.432 1273.25 290.596 1265.76 285.551C1258.28 280.342 1248.59 277.738 1236.71 277.738C1227.11 277.738 1218.73 279.854 1211.56 284.086C1204.57 288.155 1198.71 294.014 1193.99 301.664C1189.43 309.151 1186.01 318.103 1183.73 328.52C1181.45 338.936 1180.31 350.492 1180.31 363.188V372.953C1180.31 384.021 1181.78 394.275 1184.71 403.715C1187.8 413.155 1192.28 421.374 1198.14 428.373C1204.16 435.209 1211.32 440.58 1219.62 444.486C1228.08 448.23 1237.69 450.102 1248.43 450.102C1261.94 450.102 1274.15 447.497 1285.05 442.289C1296.12 436.918 1305.72 429.024 1313.86 418.607L1346.33 452.299C1340.8 460.437 1333.31 468.249 1323.87 475.736C1314.59 483.223 1303.36 489.327 1290.18 494.047C1276.99 498.604 1261.78 500.883 1244.52 500.883Z" fill="black"/>
<path d="M1383.44 366.605V361.479C1383.44 342.11 1386.21 324.288 1391.74 308.012C1397.27 291.573 1405.33 277.331 1415.91 265.287C1426.49 253.243 1439.43 243.884 1454.73 237.211C1470.03 230.375 1487.44 226.957 1506.97 226.957C1526.83 226.957 1544.41 230.375 1559.71 237.211C1575.17 243.884 1588.19 253.243 1598.77 265.287C1609.35 277.331 1617.41 291.573 1622.94 308.012C1628.48 324.288 1631.24 342.11 1631.24 361.479V366.605C1631.24 385.811 1628.48 403.633 1622.94 420.072C1617.41 436.348 1609.35 450.59 1598.77 462.797C1588.19 474.841 1575.25 484.2 1559.95 490.873C1544.65 497.546 1527.16 500.883 1507.46 500.883C1487.93 500.883 1470.43 497.546 1454.97 490.873C1439.51 484.2 1426.49 474.841 1415.91 462.797C1405.33 450.59 1397.27 436.348 1391.74 420.072C1386.21 403.633 1383.44 385.811 1383.44 366.605ZM1447.89 361.479V366.605C1447.89 378.161 1449.03 388.985 1451.31 399.076C1453.59 409.167 1457.09 418.038 1461.81 425.688C1466.53 433.337 1472.63 439.359 1480.12 443.754C1487.77 447.986 1496.88 450.102 1507.46 450.102C1517.88 450.102 1526.83 447.986 1534.32 443.754C1541.81 439.359 1547.91 433.337 1552.63 425.688C1557.51 418.038 1561.09 409.167 1563.37 399.076C1565.65 388.985 1566.79 378.161 1566.79 366.605V361.479C1566.79 350.085 1565.65 339.424 1563.37 329.496C1561.09 319.405 1557.51 310.535 1552.63 302.885C1547.91 295.072 1541.72 288.969 1534.07 284.574C1526.59 280.017 1517.55 277.738 1506.97 277.738C1496.56 277.738 1487.61 280.017 1480.12 284.574C1472.63 288.969 1466.53 295.072 1461.81 302.885C1457.09 310.535 1453.59 319.405 1451.31 329.496C1449.03 339.424 1447.89 350.085 1447.89 361.479Z" fill="black"/>
<path d="M1891.01 379.057H1958.15C1956.36 402.82 1949.76 423.897 1938.37 442.289C1926.98 460.518 1911.11 474.841 1890.76 485.258C1870.42 495.674 1845.76 500.883 1816.79 500.883C1794.49 500.883 1774.39 496.977 1756.49 489.164C1738.75 481.189 1723.53 469.877 1710.83 455.229C1698.3 440.417 1688.7 422.676 1682.02 402.006C1675.35 381.173 1672.01 357.816 1672.01 331.938V304.838C1672.01 278.959 1675.43 255.603 1682.27 234.77C1689.1 213.936 1698.87 196.195 1711.56 181.547C1724.42 166.736 1739.8 155.342 1757.71 147.367C1775.77 139.392 1795.96 135.404 1818.25 135.404C1847.23 135.404 1871.72 140.775 1891.74 151.518C1911.76 162.097 1927.3 176.664 1938.37 195.219C1949.44 213.773 1956.11 235.095 1958.39 259.184H1891.25C1889.95 244.21 1886.69 231.514 1881.49 221.098C1876.44 210.681 1868.79 202.787 1858.54 197.416C1848.45 191.882 1835.02 189.115 1818.25 189.115C1805.23 189.115 1793.76 191.557 1783.83 196.439C1774.06 201.322 1765.93 208.646 1759.42 218.412C1752.91 228.015 1748.02 240.059 1744.77 254.545C1741.51 268.868 1739.88 285.469 1739.88 304.35V331.938C1739.88 350.004 1741.35 366.199 1744.28 380.521C1747.21 394.844 1751.77 406.97 1757.95 416.898C1764.14 426.827 1772.11 434.395 1781.88 439.604C1791.64 444.812 1803.28 447.416 1816.79 447.416C1833.23 447.416 1846.57 444.812 1856.83 439.604C1867.24 434.395 1875.14 426.745 1880.51 416.654C1886.04 406.563 1889.54 394.031 1891.01 379.057Z" fill="black"/>
<path d="M2162.49 433.256V231.84H2227.43V496H2166.4L2162.49 433.256ZM2170.79 378.568L2190.81 378.08C2190.81 395.821 2188.86 412.178 2184.95 427.152C2181.05 442.126 2174.94 455.147 2166.64 466.215C2158.5 477.12 2148.17 485.665 2135.64 491.85C2123.1 497.872 2108.29 500.883 2091.2 500.883C2078.18 500.883 2066.3 499.092 2055.56 495.512C2044.82 491.768 2035.54 485.99 2027.73 478.178C2020.08 470.202 2014.14 460.03 2009.9 447.66C2005.67 435.128 2003.56 420.072 2003.56 402.494V231.84H2068.01V402.982C2068.01 411.771 2068.99 419.096 2070.94 424.955C2073.06 430.814 2075.9 435.616 2079.48 439.359C2083.23 442.94 2087.54 445.544 2092.42 447.172C2097.47 448.637 2102.84 449.369 2108.54 449.369C2124.16 449.369 2136.45 446.277 2145.4 440.092C2154.52 433.744 2161.03 425.281 2164.93 414.701C2168.84 403.959 2170.79 391.915 2170.79 378.568Z" fill="black"/>
<path d="M2284.32 121H2349.02V437.65L2342.67 496H2284.32V121ZM2518.94 361.234V366.361C2518.94 386.055 2516.74 404.122 2512.35 420.561C2508.11 436.999 2501.68 451.241 2493.06 463.285C2484.43 475.167 2473.69 484.444 2460.83 491.117C2448.14 497.628 2433.24 500.883 2416.15 500.883C2399.88 500.883 2385.72 497.709 2373.67 491.361C2361.79 485.014 2351.78 476.062 2343.64 464.506C2335.51 452.787 2329 439.034 2324.11 423.246C2319.23 407.296 2315.57 389.88 2313.13 371V357.084C2315.57 338.041 2319.23 320.626 2324.11 304.838C2329 289.05 2335.51 275.297 2343.64 263.578C2351.78 251.859 2361.79 242.826 2373.67 236.479C2385.56 230.131 2399.55 226.957 2415.67 226.957C2432.92 226.957 2447.97 230.294 2460.83 236.967C2473.85 243.477 2484.6 252.755 2493.06 264.799C2501.68 276.68 2508.11 290.84 2512.35 307.279C2516.74 323.555 2518.94 341.54 2518.94 361.234ZM2454.24 366.361V361.234C2454.24 350.004 2453.35 339.424 2451.55 329.496C2449.76 319.405 2446.83 310.535 2442.77 302.885C2438.7 295.235 2433.16 289.213 2426.16 284.818C2419.17 280.424 2410.38 278.227 2399.8 278.227C2389.71 278.227 2381.08 279.936 2373.92 283.354C2366.92 286.771 2361.06 291.492 2356.34 297.514C2351.78 303.536 2348.2 310.616 2345.6 318.754C2343.16 326.892 2341.53 335.681 2340.71 345.121V383.207C2341.85 395.74 2344.54 407.051 2348.77 417.143C2353 427.071 2359.27 434.965 2367.57 440.824C2376.03 446.684 2386.94 449.613 2400.29 449.613C2410.7 449.613 2419.41 447.579 2426.41 443.51C2433.41 439.278 2438.94 433.419 2443.01 425.932C2447.08 418.282 2449.93 409.411 2451.55 399.32C2453.35 389.229 2454.24 378.243 2454.24 366.361Z" fill="black"/>
<path d="M2684.46 500.883C2664.45 500.883 2646.46 497.628 2630.51 491.117C2614.56 484.607 2600.97 475.574 2589.74 464.018C2578.67 452.299 2570.13 438.708 2564.1 423.246C2558.24 407.621 2555.31 390.857 2555.31 372.953V363.188C2555.31 342.842 2558.24 324.369 2564.1 307.768C2569.96 291.003 2578.26 276.599 2589.01 264.555C2599.75 252.51 2612.61 243.233 2627.58 236.723C2642.55 230.212 2659.07 226.957 2677.14 226.957C2695.86 226.957 2712.38 230.131 2726.7 236.479C2741.02 242.663 2752.99 251.452 2762.59 262.846C2772.19 274.239 2779.44 287.911 2784.32 303.861C2789.2 319.649 2791.64 337.146 2791.64 356.352V383.451H2584.61V339.018H2728.17V334.135C2727.84 323.881 2725.89 314.522 2722.31 306.059C2718.73 297.432 2713.19 290.596 2705.71 285.551C2698.22 280.342 2688.53 277.738 2676.65 277.738C2667.05 277.738 2658.67 279.854 2651.51 284.086C2644.51 288.155 2638.65 294.014 2633.93 301.664C2629.37 309.151 2625.95 318.103 2623.67 328.52C2621.4 338.936 2620.26 350.492 2620.26 363.188V372.953C2620.26 384.021 2621.72 394.275 2624.65 403.715C2627.74 413.155 2632.22 421.374 2638.08 428.373C2644.1 435.209 2651.26 440.58 2659.56 444.486C2668.03 448.23 2677.63 450.102 2688.37 450.102C2701.88 450.102 2714.09 447.497 2724.99 442.289C2736.06 436.918 2745.66 429.024 2753.8 418.607L2786.27 452.299C2780.74 460.437 2773.25 468.249 2763.81 475.736C2754.53 483.223 2743.3 489.327 2730.12 494.047C2716.94 498.604 2701.72 500.883 2684.46 500.883Z" fill="black"/>
<path d="M578.771 174.893V493.881L290.73 658.886V340.126L578.771 174.893Z" fill="#8C632F"/>
<path d="M290.729 340.126L10.7578 174.855L290.729 9.62195L578.77 174.855L290.729 340.126Z" fill="#298492"/>
<path d="M290.729 340.126V658.848L10.7578 493.843V174.855L290.729 340.126Z" fill="#CCA063"/>
<path d="M290.729 593.24V658.886L10.7578 493.881V414.029C10.7578 414.029 40.6452 431.075 93.147 458.425C145.649 485.774 187.696 539.715 223.568 565.701C259.441 591.649 290.729 593.24 290.729 593.24Z" fill="#3A6247"/>
<path d="M554.527 450.13L490.245 459.6C428.235 468.729 413.916 480.547 385.696 514.677C354.975 551.913 333.573 569.869 295.011 571.308C293.571 571.346 292.094 571.384 290.73 571.384V557.406C291.943 557.406 293.231 557.368 294.518 557.33C328.118 556.118 345.77 541.156 374.938 505.813C405.128 469.259 421.606 455.622 488.237 445.773L552.482 436.303L554.527 450.13Z" fill="#3F2C14"/>
<path d="M290.73 593.24C290.73 593.24 323.913 597.217 360.809 571.232C397.704 545.246 426.417 498.085 480.434 470.736C534.451 443.386 578.771 413.991 578.771 413.991V493.843L290.73 658.848V593.24Z" fill="#204130"/>
<path d="M588.96 379.634C585.589 382.324 584.793 372.967 578.771 376.755C556.611 390.771 519.072 409.522 485.207 412.931C446.38 416.795 401.378 437.401 375.771 463.008C348.876 489.903 318.08 517.177 292.359 517.177C291.829 517.177 291.261 517.177 290.73 517.139V503.161C290.882 503.199 290.996 503.199 291.147 503.199C291.564 503.199 292.018 503.237 292.473 503.237C313.118 503.237 342.475 476.569 365.922 453.122C393.575 425.469 442.061 403.234 483.805 399.029C517.935 395.658 559.073 373.877 578.771 360.012C580.854 358.535 582.71 357.134 584.301 355.884L588.96 379.634Z" fill="#3F2C14"/>
<path d="M588.96 298.609C588.43 299.139 584.756 302.889 578.771 308.192C562.141 322.814 527.86 349.33 494.412 351.414C453.501 353.989 422.136 369.861 387.59 392.892C375.582 400.885 364.748 410.582 354.293 419.976C335.05 437.174 316.868 453.462 295.238 454.94C293.723 455.053 292.246 455.091 290.73 455.091V441.151C291.905 441.151 293.117 441.076 294.291 441C311.148 439.864 326.83 425.81 344.975 409.559C355.808 399.862 366.983 389.824 379.824 381.263C416.265 356.982 449.524 340.239 493.54 337.512C532.367 335.087 575.702 292.131 578.771 289.063C578.846 288.949 578.922 288.874 578.922 288.874L588.96 298.609Z" fill="#3F2C14"/>
<path d="M290.733 557.406V571.384H290.544C275.202 571.384 264.861 568.088 251.376 559.338C247.853 557.065 243.572 553.353 238.156 548.618C221.072 533.807 195.275 511.382 167.017 510.397C127.091 509.071 75.8773 480.85 55.2327 429.598C40.7625 393.688 21.5194 382.021 10.6857 376.263L4.24609 377.968L7.99623 357.816C5.0037 356.187 8.37503 357.967 7.99623 357.816L7.92047 357.967C22.7695 366.414 53.3387 387.552 68.1877 424.371C86.5974 470.13 132.053 495.245 167.471 496.457C200.692 497.593 229.86 522.935 247.285 538.087C252.133 542.254 256.3 545.89 258.99 547.633C270.354 555.019 277.968 557.482 290.733 557.406Z" fill="#BA7F3E"/>
<path d="M233.346 476.57C252.475 489.6 270.468 501.912 290.734 503.199V517.177H290.318C266.074 515.776 245.43 501.684 225.505 488.085C209.557 477.252 194.519 466.986 178.609 463.577C138.759 455.054 111.94 420.469 81.0301 376.188C52.8852 335.921 3.14869 318.761 2.65625 318.61L7.1261 305.39C9.32314 306.109 61.7492 324.216 92.4699 368.195C122.585 411.34 146.601 442.44 181.564 449.94C200.125 453.917 217.02 465.433 233.346 476.57Z" fill="#BA7F3E"/>
<path d="M203.533 405.052C243.572 428.197 266.452 441.455 290.733 441.152V455.092H289.9C262.209 455.092 236.906 440.47 196.525 417.136L185.389 410.734C152.622 391.87 141.524 375.809 127.47 355.505C119.818 344.444 111.106 331.868 97.1659 316.716C60.1571 276.525 4.77641 270.957 4.24609 270.919L5.53402 257.017C7.99622 257.244 66.824 263.191 107.431 307.246C122.053 323.117 131.031 336.11 138.948 347.55C152.509 367.172 162.32 381.339 192.359 398.612L203.533 405.052Z" fill="#BA7F3E"/>
<path d="M290.729 593.24V615.059C290.729 615.059 255.198 610.059 211.598 578.429C167.998 546.761 158.755 528.276 112.428 494.676C66.1385 461.114 10.7578 436.795 10.7578 436.795V414.029C10.7578 414.029 40.6452 431.075 93.147 458.425C145.649 485.774 187.696 539.715 223.568 565.701C259.441 591.649 290.729 593.24 290.729 593.24Z" fill="#204130"/>
<path d="M245.764 208.833C243.567 208.833 241.37 207.924 239.779 206.182L193.868 155.119L46.7419 159.968C42.2721 160.044 38.5598 156.634 38.4462 152.165C38.2946 147.733 41.7796 143.982 46.2495 143.869L197.088 138.907C199.474 138.831 201.747 139.816 203.338 141.558L251.787 195.386C254.779 198.681 254.476 203.795 251.181 206.75C249.628 208.151 247.696 208.833 245.764 208.833Z" fill="#13494B"/>
<path d="M260.77 237.774C272.862 237.774 282.664 227.971 282.664 215.879C282.664 203.787 272.862 193.984 260.77 193.984C248.678 193.984 238.875 203.787 238.875 215.879C238.875 227.971 248.678 237.774 260.77 237.774Z" fill="#CCA062"/>
<path d="M260.768 245.842C244.252 245.842 230.805 232.395 230.805 215.879C230.805 199.363 244.252 185.916 260.768 185.916C277.284 185.916 290.731 199.363 290.731 215.879C290.731 232.395 277.284 245.842 260.768 245.842ZM260.768 202.015C253.116 202.015 246.904 208.227 246.904 215.879C246.904 223.531 253.116 229.743 260.768 229.743C268.42 229.743 274.632 223.531 274.632 215.879C274.632 208.227 268.42 202.015 260.768 202.015Z" fill="#13494B"/>
<path d="M336.074 120.611C348.166 120.611 357.969 110.808 357.969 98.7158C357.969 86.6237 348.166 76.8212 336.074 76.8212C323.982 76.8212 314.18 86.6237 314.18 98.7158C314.18 110.808 323.982 120.611 336.074 120.611Z" fill="#CCA062"/>
<path d="M336.073 128.679C319.557 128.679 306.109 115.232 306.109 98.7158C306.109 82.2001 319.557 68.7527 336.073 68.7527C352.588 68.7527 366.036 82.2001 366.036 98.7158C366.036 115.269 352.626 128.679 336.073 128.679ZM336.073 84.8896C328.421 84.8896 322.208 91.1019 322.208 98.7537C322.208 106.405 328.421 112.618 336.073 112.618C343.724 112.618 349.937 106.405 349.937 98.7537C349.937 91.1019 343.724 84.8896 336.073 84.8896Z" fill="#13494B"/>
<path d="M419.029 176.029H316.185C313.912 176.029 311.715 175.044 310.2 173.34L262.168 119.777H123.943C119.511 119.777 115.875 116.179 115.875 111.709C115.875 107.239 119.474 103.64 123.943 103.64H265.766C268.039 103.64 270.236 104.625 271.752 106.33L319.783 159.93H415.544L466.19 106.178C469.258 102.958 474.334 102.807 477.592 105.837C480.812 108.906 480.963 113.982 477.933 117.201L424.901 173.453C423.348 175.12 421.226 176.029 419.029 176.029Z" fill="#13494B"/>
<path d="M290.767 668.47C287.586 668.47 284.441 667.637 281.638 665.97L8.86394 505.207C3.40921 501.987 0 496.04 0 489.714V179.022C0 172.696 3.37133 166.748 8.82606 163.529L281.6 2.50042C287.169 -0.795146 294.101 -0.833036 299.707 2.38677L580.436 163.453C586.005 166.635 589.49 172.62 589.49 179.059V489.638C589.49 496.078 586.043 502.025 580.436 505.245L299.707 666.084C296.942 667.675 293.874 668.47 290.767 668.47ZM21.478 487.744L290.805 646.462L568.05 487.668V181.105L290.805 22.0465L21.478 180.991V487.744Z" fill="#010202"/>
</svg>
