<svg width="1063" height="193" viewBox="0 0 1063 193" fill="none" xmlns="http://www.w3.org/2000/svg">
<g clip-path="url(#clip0_788_250)">
<mask id="mask0_788_250" style="mask-type:luminance" maskUnits="userSpaceOnUse" x="-2150" y="-783" width="3692" height="5228">
<path d="M-2149.01 4444.04H1541.98V-782.19H-2149.01V4444.04Z" fill="white"/>
</mask>
<g mask="url(#mask0_788_250)">
<path d="M117.514 103.337L107.289 100.264C105.243 99.5878 104.288 98.8987 104.424 98.2221C104.697 97.5392 106.13 97.1916 108.721 97.1916H153.712C156.167 97.1916 157.395 97.6013 157.395 98.4207C157.531 98.967 156.849 99.5133 155.349 100.06L146.557 103.337C142.595 104.84 140.623 107.503 140.623 111.32C140.623 123.196 141.373 135.077 142.874 146.947C125.283 157.047 105.857 162.1 84.5892 162.1C69.4539 162.1 56.0918 159.232 44.5032 153.502C21.053 141.627 7.75922 121.153 4.62798 92.0764C4.34896 88.9353 4.21875 85.7321 4.21875 82.4482C4.21875 58.8403 12.0561 40.3412 27.7371 26.9636C45.5945 11.8167 67.2713 4.24327 92.7676 4.24327C107.494 4.24327 123.243 6.76362 140.009 11.8105L136.735 48.4609C136.599 50.5095 136.059 51.4655 135.104 51.3289C134.286 51.1923 133.604 50.0377 133.058 47.8526L129.171 29.8315C128.625 27.1001 127.875 25.1261 126.92 23.8907C125.965 22.6678 123.919 21.3704 120.788 20.0047C113.012 16.4539 103.606 14.6785 92.563 14.6785C75.3815 14.6785 60.5934 18.7073 48.1863 26.7587C30.3227 38.3672 21.6669 57.338 22.2125 83.6836C22.4853 95.559 24.6679 106.274 28.754 115.827C33.9376 127.976 41.5704 136.847 51.6585 142.44C63.1108 148.722 74.4266 151.863 85.6123 151.863C95.564 151.863 105.448 149.405 115.263 144.494C121.259 141.49 124.328 137.188 124.464 131.595C124.88 119.856 124.13 111.6 122.22 106.82C121.674 105.318 120.105 104.157 117.514 103.337Z" fill="white"/>
<path d="M175.793 30.6515C175.793 25.0583 175.657 21.7806 175.384 20.8246C174.975 18.2298 173.815 16.6592 171.905 16.113L160.453 12.6366C158.134 11.9538 156.975 11.2026 156.975 10.3832C156.975 9.70038 158.339 9.35895 161.067 9.35895H207.899C210.627 9.35895 211.991 9.70038 211.991 10.3832C211.991 11.2026 210.832 11.9538 208.513 12.6366L197.061 16.113C195.014 16.6592 193.787 18.2298 193.378 20.8246C193.105 21.7806 192.968 25.0583 192.968 30.6515C192.559 43.756 192.354 61.299 192.354 83.2744C192.354 104.84 192.559 124.016 192.968 140.801C192.968 144.352 194.537 146.128 197.674 146.128H232.236C235.51 146.128 237.791 145.892 239.087 145.414C240.383 144.936 241.369 143.744 242.051 141.832L247.78 126.884C248.32 124.972 249.07 124.016 250.025 124.016C250.707 124.016 251.048 124.494 251.048 125.45L250.025 157.184H161.067C158.339 157.184 156.975 156.842 156.975 156.159C156.975 155.346 158.134 154.595 160.453 153.906L171.905 150.43C173.815 149.883 174.975 148.449 175.384 146.128C175.657 145.041 175.793 141.627 175.793 135.891C176.196 122.65 176.407 105.113 176.407 83.2744C176.407 61.4356 176.196 43.8925 175.793 30.6515Z" fill="white"/>
<path d="M359.032 157.186H260.047C257.319 157.186 255.955 156.844 255.955 156.161C255.955 155.342 257.115 154.591 259.434 153.908L270.886 150.425C272.796 149.885 273.955 148.451 274.364 146.13C274.637 145.037 274.773 141.629 274.773 135.893C275.183 121.696 275.387 104.159 275.387 83.2763C275.387 61.9776 275.183 44.4408 274.773 30.6534C274.773 25.0602 274.637 21.7826 274.364 20.8204C273.955 18.2317 272.796 16.6612 270.886 16.1149L259.434 12.6324C257.115 11.9557 255.955 11.1984 255.955 10.379C255.955 9.70232 257.319 9.3547 260.047 9.3547C283.634 9.3547 302.924 9.22433 317.923 8.95119C332.103 8.67805 344.101 8.13177 353.916 7.31235V34.9492C353.916 37.544 353.575 38.9097 352.899 39.0463C352.348 39.1828 351.665 38.1586 350.847 35.9734C347.443 26.8295 344.919 21.7143 343.282 20.6217C341.646 19.5229 335.513 18.9829 324.879 18.9829H296.86C294.677 18.9829 293.313 19.2871 292.767 19.9016C292.222 20.5162 291.955 21.9874 291.955 24.3029L291.335 75.6967H331.216C333.808 75.6967 335.581 75.4608 336.536 74.9828C337.491 74.5048 338.508 73.1019 339.606 70.7802C340.554 68.8682 341.509 66.4161 342.464 63.4116C342.873 62.319 343.419 61.841 344.101 61.9776C344.919 61.9776 345.329 62.4556 345.329 63.4116V102.111C345.329 104.842 344.988 106.344 344.306 106.611C343.351 107.021 342.6 106.208 342.055 104.153C340.963 100.199 339.668 95.698 338.173 90.6449C337.212 87.5038 334.899 85.9332 331.216 85.9332H291.335L291.955 140.803C291.955 144.354 293.518 146.13 296.655 146.13H341.038C344.306 146.13 346.587 145.894 347.883 145.416C349.179 144.938 350.202 143.777 350.952 141.933C351.703 140.089 353.575 135.074 356.576 126.886C357.258 124.974 358.077 124.018 359.032 124.018C359.714 124.018 360.055 124.496 360.055 125.452L359.032 157.186Z" fill="white"/>
<path d="M518.296 159.844H507.253C502.479 153.704 493.209 142.785 479.438 127.086C459.534 105.52 430.969 74.9469 393.754 35.3602C393.481 46.6955 393.344 62.6618 393.344 83.2714C393.344 104.57 393.549 122.107 393.958 135.888C393.958 141.487 394.088 144.833 394.361 145.926C394.771 148.384 395.93 149.887 397.84 150.427L409.497 153.909C411.679 154.592 412.77 155.343 412.77 156.163C412.77 156.845 411.475 157.187 408.883 157.187H366.961C364.233 157.187 362.869 156.845 362.869 156.163C362.869 155.343 364.029 154.592 366.348 153.909L377.8 150.427C379.703 149.887 380.863 148.384 381.278 145.926C381.545 144.97 381.688 141.63 381.688 135.888C382.097 122.107 382.301 104.57 382.301 83.2714C382.301 62.6618 382.097 45.1249 381.688 30.6547C381.688 25.465 381.34 17.0722 380.664 5.46996H391.298C396.203 11.746 406.502 23.7579 422.177 41.4996L505.207 130.363C505.48 120.263 505.616 104.57 505.616 83.2714C505.616 62.6618 505.412 45.1249 505.002 30.6547C505.002 25.0553 504.866 21.7777 504.593 20.8217C504.184 18.233 502.956 16.6625 500.916 16.1162L489.464 12.6337C487.139 11.957 485.986 11.1997 485.986 10.3803C485.986 9.69743 487.35 9.35599 490.072 9.35599H531.999C534.591 9.35599 535.887 9.69743 535.887 10.3803C535.887 11.1997 534.789 11.957 532.613 12.6337L520.956 16.1162C519.046 16.6625 517.887 18.1648 517.478 20.6168C517.205 21.7094 517.069 25.0553 517.069 30.6547C516.659 45.1249 516.455 62.6618 516.455 83.2714C516.455 104.57 516.659 122.107 517.069 135.888C517.069 141.078 517.478 149.067 518.296 159.844Z" fill="white"/>
<path d="M561.017 145.927C538.795 129.681 528.304 107.91 529.525 80.615C530.201 68.5968 533.543 57.336 539.545 46.8263C546.359 34.9509 556.107 25.1241 568.787 17.3458C583.103 8.60535 600.211 4.24131 620.12 4.24131C633.749 4.24131 647.111 6.28987 660.2 10.3808V45.1875C660.2 47.2422 659.797 48.2603 658.979 48.2603C658.154 48.2603 657.335 46.7643 656.523 43.7535C654.471 35.7021 652.294 29.9661 649.975 26.5581C646.844 21.7781 641.933 18.5688 635.256 16.9361C630.208 15.707 624.622 15.0924 618.483 15.0924C596.124 15.0924 578.397 21.7781 565.308 35.1558C553.856 47.0312 548.133 63.4817 548.133 84.501C548.133 91.1868 548.809 97.1958 550.179 102.516C556.72 126.949 572.122 142.587 596.397 149.409C601.302 150.775 607.031 151.451 613.579 151.451C631.845 151.451 645.412 147.292 654.272 138.961C656.864 136.509 659.586 132.481 662.451 126.881C662.86 126.205 663.883 123.678 665.52 119.308C666.748 116.303 667.771 114.801 668.589 114.801C669.129 114.801 669.408 115.211 669.408 116.03L663.679 152.271C645.679 158.82 629.322 162.098 614.596 162.098C593.737 162.098 575.88 156.709 561.017 145.927Z" fill="white"/>
<path d="M734.398 18.4707C739.581 17.2416 744.827 16.627 750.147 16.627C768.141 16.627 783.89 23.1141 797.388 36.0759C803.657 42.0849 808.568 49.8632 812.114 59.4169C815.245 68.294 816.814 77.5062 816.814 87.0599C816.814 93.6153 815.996 99.6865 814.359 105.28C807.954 128.074 792.955 142.34 769.368 148.076C764.594 149.168 759.553 149.715 754.233 149.715C735.011 149.715 719.2 143.128 706.793 129.955C694.38 116.783 688.179 100.301 688.179 80.5046C688.179 73.4091 689.134 66.7917 691.044 60.6461C698.137 37.9878 712.584 23.9335 734.398 18.4707ZM713.335 14.5785C688.248 27.0002 673.999 46.66 670.595 73.5457C670.316 76.1405 670.186 78.8719 670.186 81.7337C670.186 92.5165 672.157 103.032 676.113 113.269C680.751 125.827 687.565 135.927 696.562 143.569C711.561 156.4 728.606 162.807 747.691 162.807C756.825 162.807 766.435 161.311 776.53 158.306C789.886 154.488 801.412 148.076 811.091 139.062C821.452 129.372 828.335 117.974 831.745 104.87C833.518 98.1842 834.405 91.1508 834.405 83.7823C834.405 63.3092 828.948 46.3869 818.042 33.003C802.776 14.3054 782.457 4.95651 757.104 4.95651C752.739 4.95651 748.373 5.22965 744.015 5.77593C732.283 7.41477 722.059 10.3448 713.335 14.5785Z" fill="white"/>
<path d="M869.971 82.9637C867.918 82.9637 865.946 82.8954 864.037 82.7589L863.832 40.5836V30.9554C863.968 27.1376 864.037 25.2256 864.037 25.2256C864.037 23.0467 865.333 21.4017 867.924 20.3091C869.971 19.4897 872.699 19.08 876.103 19.08C884.281 19.08 891.238 20.8554 896.961 24.4062C907.459 30.9616 912.363 40.1738 911.687 52.0492C911.005 64.1978 905.009 73.0003 893.694 78.4631C887.555 81.4677 879.649 82.9637 869.971 82.9637ZM828.043 10.892C828.043 11.7114 829.202 12.4688 831.521 13.1454L842.974 16.6279C844.883 17.1742 846.037 18.7448 846.446 21.3334C846.719 22.2894 846.861 25.5671 846.861 31.1664C847.264 45.6366 847.475 63.1735 847.475 83.7831C847.475 105.082 847.264 122.619 846.861 136.406C846.861 142.142 846.719 145.482 846.446 146.438C846.037 148.896 844.883 150.398 842.974 150.945L831.521 154.421C829.202 155.104 828.043 155.855 828.043 156.674C828.043 157.357 829.407 157.699 832.135 157.699H878.961C881.696 157.699 883.06 157.357 883.06 156.674C883.06 155.855 881.894 155.104 879.581 154.421L868.129 150.945C866.083 150.398 864.855 148.828 864.446 146.233C864.167 145.004 864.037 141.726 864.037 136.406V93.8148C867.031 93.9576 868.879 93.9576 869.561 93.8148L912.71 138.653C927.43 153.943 954.57 176.384 963.777 180.549C976.836 186.471 1004.33 194.299 1022.48 183.039C1023.67 182.3 1003.06 181.499 995.896 180.382C987.835 179.128 977.077 174.484 975.707 173.82C962.413 167.426 944.947 151.882 936.08 142.595L891.238 91.7663C907.322 87.9485 918.433 80.9835 924.572 70.8835C928.391 64.4709 930.295 57.2327 930.295 49.1813C930.295 41.8127 928.732 35.4622 925.595 30.1422C919.735 20.3091 911.824 13.9648 901.866 11.0968C896.279 9.458 887.016 8.78136 874.057 9.04829L832.135 9.86771C829.407 9.86771 828.043 10.2154 828.043 10.892Z" fill="white"/>
<path d="M1057.76 157.363H958.782C956.047 157.363 954.689 157.022 954.689 156.339C954.689 155.52 955.849 154.768 958.168 154.086L969.614 150.603C971.524 150.063 972.683 148.629 973.092 146.307C973.365 145.215 973.502 141.807 973.502 136.071C973.911 121.874 974.122 104.337 974.122 83.4479C974.122 62.1553 973.911 44.6185 973.502 30.8311C973.502 25.2318 973.365 21.9541 973.092 20.9981C972.683 18.4095 971.524 16.8389 969.614 16.2926L958.168 12.8101C955.849 12.1335 954.689 11.3761 954.689 10.5629C954.689 9.88005 956.047 9.53243 958.782 9.53243C982.362 9.53243 1001.66 9.39586 1016.65 9.12272C1030.83 8.85579 1042.83 8.30951 1052.65 7.49009V35.1269C1052.65 37.7217 1052.3 39.0874 1051.62 39.224C1051.08 39.3606 1050.39 38.3363 1049.58 36.1512C1046.17 27.0072 1043.65 21.892 1042.01 20.7995C1040.37 19.7007 1034.24 19.1606 1023.61 19.1606H995.594C993.405 19.1606 992.041 19.4648 991.495 20.0794C990.95 20.6939 990.683 22.1652 990.683 24.4806L990.063 75.8744H1029.95C1032.54 75.8744 1034.31 75.6385 1035.26 75.1605C1036.22 74.6825 1037.24 73.2796 1038.33 70.9579C1039.29 69.0459 1040.24 66.5939 1041.19 63.5893C1041.6 62.4968 1042.15 62.0188 1042.83 62.1553C1043.65 62.1553 1044.06 62.6333 1044.06 63.5893V102.288C1044.06 105.02 1043.72 106.522 1043.03 106.789C1042.08 107.199 1041.33 106.385 1040.79 104.331C1039.69 100.376 1038.4 95.8695 1036.9 90.8226C1035.95 87.6815 1033.63 86.111 1029.95 86.111H990.063L990.683 140.981C990.683 144.532 992.252 146.307 995.383 146.307H1039.76C1043.03 146.307 1045.32 146.071 1046.61 145.593C1047.91 145.109 1048.93 143.955 1049.68 142.111C1050.43 140.267 1052.3 135.251 1055.3 127.063C1055.99 125.151 1056.8 124.189 1057.76 124.189C1058.44 124.189 1058.78 124.673 1058.78 125.629L1057.76 157.363Z" fill="white"/>
</g>
</g>
<defs>
<clipPath id="clip0_788_250">
<rect width="1063" height="193" fill="white"/>
</clipPath>
</defs>
</svg>
