<svg width="2777" height="669" viewBox="0 0 2777 669" fill="none" xmlns="http://www.w3.org/2000/svg">
<path d="M1059.96 316.998V447.125C1055.56 453.635 1048.56 460.96 1038.96 469.098C1029.36 477.073 1016.09 484.072 999.164 490.094C982.4 495.953 960.753 498.883 934.223 498.883C912.576 498.883 892.637 495.139 874.408 487.652C856.342 480.003 840.635 468.935 827.289 454.449C814.105 439.801 803.852 422.06 796.527 401.227C789.366 380.23 785.785 356.467 785.785 329.938V302.35C785.785 275.82 788.878 252.138 795.062 231.305C801.41 210.471 810.688 192.812 822.895 178.326C835.102 163.678 850.076 152.61 867.816 145.123C885.557 137.473 905.902 133.648 928.852 133.648C956.033 133.648 978.738 138.368 996.967 147.809C1015.36 157.086 1029.68 169.944 1039.94 186.383C1050.35 202.822 1057.03 221.539 1059.96 242.535H1012.84C1010.72 229.677 1006.49 217.958 1000.14 207.379C993.956 196.799 985.085 188.336 973.529 181.988C961.973 175.478 947.081 172.223 928.852 172.223C912.413 172.223 898.171 175.234 886.127 181.256C874.083 187.278 864.154 195.904 856.342 207.135C848.529 218.365 842.67 231.956 838.764 247.906C835.02 263.857 833.148 281.842 833.148 301.861V329.938C833.148 350.445 835.508 368.756 840.229 384.869C845.111 400.982 852.029 414.736 860.98 426.129C869.932 437.359 880.593 445.904 892.963 451.764C905.495 457.623 919.33 460.553 934.467 460.553C951.231 460.553 964.822 459.169 975.238 456.402C985.655 453.473 993.793 450.055 999.652 446.148C1005.51 442.079 1009.99 438.255 1013.08 434.674V355.084H930.805V316.998H1059.96Z" fill="black"/>
<path d="M1240.86 498.883C1222.47 498.883 1205.79 495.79 1190.81 489.605C1176 483.258 1163.23 474.387 1152.48 462.994C1141.9 451.601 1133.77 438.092 1128.07 422.467C1122.37 406.842 1119.53 389.752 1119.53 371.197V360.943C1119.53 339.459 1122.7 320.335 1129.05 303.57C1135.39 286.643 1144.02 272.32 1154.93 260.602C1165.83 248.883 1178.2 240.012 1192.04 233.99C1205.87 227.968 1220.19 224.957 1235 224.957C1253.88 224.957 1270.16 228.212 1283.83 234.723C1297.67 241.233 1308.98 250.348 1317.77 262.066C1326.56 273.622 1333.07 287.294 1337.3 303.082C1341.53 318.707 1343.65 335.797 1343.65 354.352V374.615H1146.38V337.75H1298.48V334.332C1297.83 322.613 1295.39 311.22 1291.16 300.152C1287.09 289.085 1280.58 279.97 1271.62 272.809C1262.67 265.647 1250.47 262.066 1235 262.066C1224.75 262.066 1215.31 264.264 1206.68 268.658C1198.06 272.89 1190.65 279.238 1184.47 287.701C1178.28 296.165 1173.48 306.5 1170.06 318.707C1166.64 330.914 1164.94 344.993 1164.94 360.943V371.197C1164.94 383.73 1166.64 395.53 1170.06 406.598C1173.64 417.503 1178.77 427.105 1185.44 435.406C1192.28 443.707 1200.5 450.217 1210.1 454.938C1219.87 459.658 1230.93 462.018 1243.3 462.018C1259.26 462.018 1272.76 458.762 1283.83 452.252C1294.9 445.742 1304.58 437.034 1312.88 426.129L1340.23 447.857C1334.53 456.484 1327.29 464.703 1318.5 472.516C1309.71 480.328 1298.89 486.676 1286.03 491.559C1273.33 496.441 1258.28 498.883 1240.86 498.883Z" fill="black"/>
<path d="M1384.42 364.85V359.234C1384.42 340.191 1387.18 322.532 1392.72 306.256C1398.25 289.817 1406.23 275.576 1416.64 263.531C1427.06 251.324 1439.68 241.884 1454.49 235.211C1469.3 228.375 1485.9 224.957 1504.29 224.957C1522.85 224.957 1539.53 228.375 1554.34 235.211C1569.31 241.884 1582.01 251.324 1592.43 263.531C1603.01 275.576 1611.06 289.817 1616.6 306.256C1622.13 322.532 1624.9 340.191 1624.9 359.234V364.85C1624.9 383.893 1622.13 401.552 1616.6 417.828C1611.06 434.104 1603.01 448.346 1592.43 460.553C1582.01 472.597 1569.4 482.037 1554.58 488.873C1539.94 495.546 1523.33 498.883 1504.78 498.883C1486.22 498.883 1469.54 495.546 1454.73 488.873C1439.92 482.037 1427.22 472.597 1416.64 460.553C1406.23 448.346 1398.25 434.104 1392.72 417.828C1387.18 401.552 1384.42 383.893 1384.42 364.85ZM1429.58 359.234V364.85C1429.58 378.033 1431.13 390.484 1434.22 402.203C1437.32 413.759 1441.95 424.013 1448.14 432.965C1454.49 441.917 1462.38 448.997 1471.82 454.205C1481.26 459.251 1492.25 461.773 1504.78 461.773C1517.15 461.773 1527.97 459.251 1537.25 454.205C1546.69 448.997 1554.5 441.917 1560.69 432.965C1566.87 424.013 1571.51 413.759 1574.6 402.203C1577.86 390.484 1579.49 378.033 1579.49 364.85V359.234C1579.49 346.214 1577.86 333.925 1574.6 322.369C1571.51 310.65 1566.79 300.315 1560.44 291.363C1554.26 282.249 1546.45 275.087 1537.01 269.879C1527.73 264.671 1516.82 262.066 1504.29 262.066C1491.92 262.066 1481.02 264.671 1471.58 269.879C1462.3 275.087 1454.49 282.249 1448.14 291.363C1441.95 300.315 1437.32 310.65 1434.22 322.369C1431.13 333.925 1429.58 346.214 1429.58 359.234Z" fill="black"/>
<path d="M1902.97 380.963H1949.85C1947.41 403.424 1940.98 423.525 1930.56 441.266C1920.14 459.007 1905.41 473.085 1886.37 483.502C1867.33 493.756 1843.57 498.883 1815.08 498.883C1794.25 498.883 1775.29 494.977 1758.2 487.164C1741.27 479.352 1726.7 468.284 1714.5 453.961C1702.29 439.475 1692.85 422.141 1686.18 401.959C1679.67 381.614 1676.41 358.99 1676.41 334.088V298.688C1676.41 273.785 1679.67 251.243 1686.18 231.061C1692.85 210.715 1702.37 193.3 1714.74 178.814C1727.27 164.329 1742.33 153.18 1759.91 145.367C1777.48 137.555 1797.26 133.648 1819.23 133.648C1846.09 133.648 1868.79 138.694 1887.35 148.785C1905.9 158.876 1920.31 172.874 1930.56 190.777C1940.98 208.518 1947.41 229.107 1949.85 252.545H1902.97C1900.69 235.943 1896.46 221.702 1890.28 209.82C1884.09 197.776 1875.3 188.499 1863.91 181.988C1852.52 175.478 1837.62 172.223 1819.23 172.223C1803.44 172.223 1789.53 175.234 1777.48 181.256C1765.6 187.278 1755.59 195.823 1747.46 206.891C1739.48 217.958 1733.46 231.223 1729.39 246.686C1725.32 262.148 1723.29 279.319 1723.29 298.199V334.088C1723.29 351.503 1725.08 367.861 1728.66 383.16C1732.4 398.46 1738.01 411.887 1745.5 423.443C1752.99 434.999 1762.51 444.114 1774.07 450.787C1785.62 457.298 1799.29 460.553 1815.08 460.553C1835.1 460.553 1851.05 457.379 1862.93 451.031C1874.82 444.684 1883.77 435.569 1889.79 423.688C1895.97 411.806 1900.37 397.564 1902.97 380.963Z" fill="black"/>
<path d="M2168.84 432.965V229.84H2214.25V494H2171.04L2168.84 432.965ZM2177.39 377.301L2196.19 376.812C2196.19 394.391 2194.31 410.667 2190.57 425.641C2186.99 440.452 2181.13 453.31 2172.99 464.215C2164.85 475.12 2154.19 483.665 2141.01 489.85C2127.83 495.872 2111.79 498.883 2092.91 498.883C2080.06 498.883 2068.26 497.011 2057.51 493.268C2046.93 489.524 2037.82 483.746 2030.17 475.934C2022.52 468.121 2016.58 457.949 2012.35 445.416C2008.28 432.883 2006.24 417.828 2006.24 400.25V229.84H2051.41V400.738C2051.41 412.62 2052.71 422.467 2055.32 430.279C2058.08 437.929 2061.75 444.033 2066.3 448.59C2071.02 452.984 2076.23 456.077 2081.93 457.867C2087.79 459.658 2093.81 460.553 2099.99 460.553C2119.2 460.553 2134.42 456.891 2145.65 449.566C2156.88 442.079 2164.94 432.07 2169.82 419.537C2174.86 406.842 2177.39 392.763 2177.39 377.301Z" fill="black"/>
<path d="M2282.86 119H2328.27V442.73L2324.36 494H2282.86V119ZM2506.73 359.723V364.85C2506.73 384.055 2504.45 401.878 2499.9 418.316C2495.34 434.592 2488.67 448.753 2479.88 460.797C2471.09 472.841 2460.35 482.2 2447.65 488.873C2434.96 495.546 2420.39 498.883 2403.95 498.883C2387.18 498.883 2372.46 496.035 2359.76 490.338C2347.23 484.479 2336.65 476.096 2328.02 465.191C2319.4 454.286 2312.48 441.103 2307.27 425.641C2302.22 410.178 2298.72 392.763 2296.77 373.395V350.934C2298.72 331.402 2302.22 313.906 2307.27 298.443C2312.48 282.981 2319.4 269.798 2328.02 258.893C2336.65 247.825 2347.23 239.443 2359.76 233.746C2372.29 227.887 2386.86 224.957 2403.46 224.957C2420.06 224.957 2434.79 228.212 2447.65 234.723C2460.51 241.07 2471.25 250.185 2479.88 262.066C2488.67 273.948 2495.34 288.189 2499.9 304.791C2504.45 321.23 2506.73 339.54 2506.73 359.723ZM2461.32 364.85V359.723C2461.32 346.539 2460.1 334.169 2457.66 322.613C2455.22 310.895 2451.31 300.641 2445.94 291.852C2440.57 282.9 2433.49 275.901 2424.7 270.855C2415.91 265.647 2405.09 263.043 2392.23 263.043C2380.84 263.043 2370.91 264.996 2362.45 268.902C2354.14 272.809 2347.06 278.098 2341.21 284.771C2335.35 291.282 2330.54 298.769 2326.8 307.232C2323.22 315.533 2320.53 324.16 2318.74 333.111V391.949C2321.35 403.342 2325.58 414.329 2331.44 424.908C2337.46 435.325 2345.44 443.87 2355.37 450.543C2365.46 457.216 2377.91 460.553 2392.72 460.553C2404.93 460.553 2415.34 458.111 2423.97 453.229C2432.76 448.183 2439.84 441.266 2445.21 432.477C2450.74 423.688 2454.81 413.515 2457.42 401.959C2460.02 390.403 2461.32 378.033 2461.32 364.85Z" fill="black"/>
<path d="M2673.48 498.883C2655.09 498.883 2638.41 495.79 2623.43 489.605C2608.62 483.258 2595.84 474.387 2585.1 462.994C2574.52 451.601 2566.38 438.092 2560.69 422.467C2554.99 406.842 2552.14 389.752 2552.14 371.197V360.943C2552.14 339.459 2555.32 320.335 2561.66 303.57C2568.01 286.643 2576.64 272.32 2587.54 260.602C2598.45 248.883 2610.82 240.012 2624.65 233.99C2638.49 227.968 2652.81 224.957 2667.62 224.957C2686.5 224.957 2702.78 228.212 2716.45 234.723C2730.28 241.233 2741.6 250.348 2750.38 262.066C2759.17 273.622 2765.68 287.294 2769.92 303.082C2774.15 318.707 2776.26 335.797 2776.26 354.352V374.615H2579V337.75H2731.1V334.332C2730.45 322.613 2728.01 311.22 2723.77 300.152C2719.7 289.085 2713.19 279.97 2704.24 272.809C2695.29 265.647 2683.08 262.066 2667.62 262.066C2657.37 262.066 2647.93 264.264 2639.3 268.658C2630.67 272.89 2623.27 279.238 2617.08 287.701C2610.9 296.165 2606.1 306.5 2602.68 318.707C2599.26 330.914 2597.55 344.993 2597.55 360.943V371.197C2597.55 383.73 2599.26 395.53 2602.68 406.598C2606.26 417.503 2611.39 427.105 2618.06 435.406C2624.9 443.707 2633.12 450.217 2642.72 454.938C2652.48 459.658 2663.55 462.018 2675.92 462.018C2691.87 462.018 2705.38 458.762 2716.45 452.252C2727.52 445.742 2737.2 437.034 2745.5 426.129L2772.85 447.857C2767.15 456.484 2759.91 464.703 2751.12 472.516C2742.33 480.328 2731.5 486.676 2718.65 491.559C2705.95 496.441 2690.9 498.883 2673.48 498.883Z" fill="black"/>
<path d="M578.771 174.893V493.881L290.73 658.886V340.126L578.771 174.893Z" fill="#8C632F"/>
<path d="M290.729 340.126L10.7578 174.855L290.729 9.62195L578.77 174.855L290.729 340.126Z" fill="#298492"/>
<path d="M290.729 340.126V658.848L10.7578 493.843V174.855L290.729 340.126Z" fill="#CCA063"/>
<path d="M290.729 593.24V658.886L10.7578 493.881V414.029C10.7578 414.029 40.6452 431.075 93.147 458.425C145.649 485.774 187.696 539.715 223.568 565.701C259.441 591.649 290.729 593.24 290.729 593.24Z" fill="#3A6247"/>
<path d="M554.527 450.13L490.245 459.6C428.235 468.729 413.916 480.547 385.696 514.677C354.975 551.913 333.573 569.869 295.011 571.308C293.571 571.346 292.094 571.384 290.73 571.384V557.406C291.943 557.406 293.231 557.368 294.518 557.33C328.118 556.118 345.77 541.156 374.938 505.813C405.128 469.259 421.606 455.622 488.237 445.773L552.482 436.303L554.527 450.13Z" fill="#3F2C14"/>
<path d="M290.73 593.24C290.73 593.24 323.913 597.217 360.809 571.232C397.704 545.246 426.417 498.085 480.434 470.736C534.451 443.386 578.771 413.991 578.771 413.991V493.843L290.73 658.848V593.24Z" fill="#204130"/>
<path d="M588.96 379.634C585.589 382.324 584.794 372.967 578.771 376.755C556.611 390.771 519.072 409.522 485.207 412.931C446.38 416.795 401.378 437.401 375.771 463.008C348.876 489.903 318.08 517.177 292.359 517.177C291.829 517.177 291.261 517.177 290.73 517.139V503.161C290.882 503.199 290.996 503.199 291.147 503.199C291.564 503.199 292.018 503.237 292.473 503.237C313.118 503.237 342.475 476.569 365.922 453.122C393.575 425.469 442.061 403.234 483.805 399.029C517.935 395.658 559.073 373.877 578.771 360.012C580.854 358.535 582.71 357.134 584.301 355.884L588.96 379.634Z" fill="#3F2C14"/>
<path d="M588.96 298.609C588.43 299.139 584.756 302.889 578.771 308.192C562.141 322.814 527.86 349.33 494.412 351.414C453.501 353.989 422.136 369.861 387.59 392.892C375.582 400.885 364.748 410.582 354.293 419.976C335.05 437.174 316.868 453.462 295.238 454.94C293.723 455.053 292.246 455.091 290.73 455.091V441.151C291.905 441.151 293.117 441.076 294.291 441C311.148 439.864 326.83 425.81 344.975 409.559C355.808 399.862 366.983 389.824 379.824 381.263C416.265 356.982 449.524 340.239 493.54 337.512C532.367 335.087 575.702 292.131 578.771 289.063C578.846 288.949 578.922 288.874 578.922 288.874L588.96 298.609Z" fill="#3F2C14"/>
<path d="M290.733 557.406V571.384H290.544C275.202 571.384 264.861 568.088 251.376 559.338C247.853 557.065 243.572 553.353 238.156 548.618C221.072 533.807 195.275 511.382 167.017 510.397C127.091 509.071 75.8773 480.85 55.2327 429.598C40.7625 393.688 21.5194 382.021 10.6857 376.263L4.24609 377.968L7.99623 357.816C8.37503 357.967 5.0037 356.187 7.99623 357.816L7.92047 357.967C22.7695 366.414 53.3387 387.552 68.1877 424.371C86.5974 470.13 132.053 495.245 167.471 496.457C200.692 497.593 229.86 522.935 247.285 538.087C252.133 542.254 256.3 545.89 258.99 547.633C270.354 555.019 277.968 557.482 290.733 557.406Z" fill="#BA7F3E"/>
<path d="M233.346 476.57C252.475 489.6 270.468 501.912 290.734 503.199V517.177H290.318C266.074 515.776 245.43 501.684 225.505 488.085C209.557 477.252 194.519 466.986 178.609 463.577C138.759 455.054 111.94 420.469 81.0301 376.188C52.8852 335.921 3.14869 318.761 2.65625 318.61L7.1261 305.39C9.32314 306.109 61.7492 324.216 92.4699 368.195C122.585 411.34 146.601 442.44 181.564 449.94C200.125 453.917 217.02 465.433 233.346 476.57Z" fill="#BA7F3E"/>
<path d="M203.533 405.052C243.572 428.197 266.452 441.455 290.733 441.152V455.092H289.9C262.209 455.092 236.906 440.47 196.525 417.136L185.389 410.734C152.622 391.87 141.524 375.809 127.47 355.505C119.818 344.444 111.106 331.868 97.1659 316.716C60.1571 276.525 4.77641 270.957 4.24609 270.919L5.53402 257.017C7.99622 257.244 66.824 263.191 107.431 307.246C122.053 323.117 131.031 336.11 138.948 347.55C152.509 367.172 162.32 381.339 192.359 398.612L203.533 405.052Z" fill="#BA7F3E"/>
<path d="M290.729 593.24V615.059C290.729 615.059 255.198 610.059 211.598 578.429C167.998 546.761 158.755 528.276 112.428 494.676C66.1385 461.114 10.7578 436.795 10.7578 436.795V414.029C10.7578 414.029 40.6452 431.075 93.147 458.425C145.649 485.774 187.696 539.715 223.568 565.701C259.441 591.649 290.729 593.24 290.729 593.24Z" fill="#204130"/>
<path d="M245.764 208.833C243.567 208.833 241.37 207.924 239.779 206.182L193.868 155.119L46.7419 159.968C42.2721 160.044 38.5598 156.634 38.4462 152.165C38.2946 147.733 41.7796 143.982 46.2495 143.869L197.088 138.907C199.474 138.831 201.747 139.816 203.338 141.558L251.787 195.386C254.779 198.681 254.476 203.795 251.181 206.75C249.628 208.151 247.696 208.833 245.764 208.833Z" fill="#13494B"/>
<path d="M260.77 237.774C272.862 237.774 282.664 227.971 282.664 215.879C282.664 203.787 272.862 193.984 260.77 193.984C248.678 193.984 238.875 203.787 238.875 215.879C238.875 227.971 248.678 237.774 260.77 237.774Z" fill="#CCA062"/>
<path d="M260.768 245.842C244.252 245.842 230.805 232.395 230.805 215.879C230.805 199.363 244.252 185.916 260.768 185.916C277.284 185.916 290.731 199.363 290.731 215.879C290.731 232.395 277.284 245.842 260.768 245.842ZM260.768 202.015C253.116 202.015 246.904 208.227 246.904 215.879C246.904 223.531 253.116 229.743 260.768 229.743C268.42 229.743 274.632 223.531 274.632 215.879C274.632 208.227 268.42 202.015 260.768 202.015Z" fill="#13494B"/>
<path d="M336.074 120.611C348.166 120.611 357.969 110.808 357.969 98.7158C357.969 86.6237 348.166 76.8212 336.074 76.8212C323.982 76.8212 314.18 86.6237 314.18 98.7158C314.18 110.808 323.982 120.611 336.074 120.611Z" fill="#CCA062"/>
<path d="M336.073 128.679C319.557 128.679 306.109 115.232 306.109 98.7158C306.109 82.2001 319.557 68.7527 336.073 68.7527C352.588 68.7527 366.036 82.2001 366.036 98.7158C366.036 115.269 352.626 128.679 336.073 128.679ZM336.073 84.8896C328.421 84.8896 322.208 91.1019 322.208 98.7537C322.208 106.405 328.421 112.618 336.073 112.618C343.724 112.618 349.937 106.405 349.937 98.7537C349.937 91.1019 343.724 84.8896 336.073 84.8896Z" fill="#13494B"/>
<path d="M419.029 176.029H316.185C313.912 176.029 311.715 175.044 310.2 173.34L262.168 119.777H123.943C119.511 119.777 115.875 116.179 115.875 111.709C115.875 107.239 119.474 103.64 123.943 103.64H265.766C268.039 103.64 270.236 104.625 271.752 106.33L319.783 159.93H415.544L466.19 106.178C469.258 102.958 474.334 102.807 477.592 105.837C480.812 108.906 480.963 113.982 477.933 117.201L424.901 173.453C423.348 175.12 421.226 176.029 419.029 176.029Z" fill="#13494B"/>
<path d="M290.767 668.47C287.586 668.47 284.441 667.637 281.638 665.97L8.86394 505.207C3.40921 501.987 0 496.04 0 489.714V179.022C0 172.696 3.37133 166.748 8.82606 163.529L281.6 2.50042C287.169 -0.795146 294.101 -0.833036 299.707 2.38677L580.436 163.453C586.005 166.635 589.49 172.62 589.49 179.059V489.638C589.49 496.078 586.043 502.025 580.436 505.245L299.707 666.084C296.942 667.675 293.874 668.47 290.767 668.47ZM21.478 487.744L290.805 646.462L568.05 487.668V181.105L290.805 22.0465L21.478 180.991V487.744Z" fill="#010202"/>
</svg>
