<svg width="1061" height="644" viewBox="0 0 1061 644" fill="none" xmlns="http://www.w3.org/2000/svg">
<path d="M428.201 0V0.0347627C374.182 0.151279 324 34.9285 306.636 89.3642L195.799 437.095C183.413 475.954 148.666 501.412 110.402 503.738H349.332V503.728C403.353 503.612 453.535 468.832 470.897 414.397L581.742 66.6435C594.253 27.3957 629.584 1.87858 668.3 0H428.201Z" fill="#01ABC5"/>
<path d="M950.598 0H809.704V0.169665C775.422 0.316844 741.233 14.1537 716.054 41.3675L522.704 251.87L665.604 458.583C690.174 487.463 725.922 503.579 762.596 503.74H887.384L715.835 255.591L950.598 0Z" fill="#01ABC5"/>
<path d="M197.229 432.61L195.799 437.095C183.413 475.954 148.666 501.412 110.402 503.738H197.227V503.728L207.21 503.722C247.617 503.634 285.154 477.616 298.134 436.895L408.9 89.3908C426.098 35.4313 475.544 0.797231 529.016 0.0633807V0H428.201V0.0347627C374.182 0.151279 324 34.9285 306.636 89.3642L249.115 269.826L197.229 432.61Z" fill="#FFD83F"/>
<path d="M194.282 619.948L168.4 575.406V619.946H150.856V534.673H168.4V573.569L192.688 534.673H213.784L186.553 574.18L216.851 619.948H194.282ZM266.788 623.139C262.987 621.543 259.552 618.72 257.958 615.533C256.729 616.757 255.381 617.986 254.155 618.845C251.087 621.056 246.673 622.281 241.521 622.281C227.537 622.281 219.931 615.165 219.931 602.651C219.931 587.925 230.112 581.054 250.108 581.054C251.332 581.054 252.438 581.054 253.787 581.177V578.599C253.787 571.604 252.438 569.272 246.428 569.272C241.153 569.272 235.019 571.847 228.273 576.392L221.282 564.611C224.592 562.526 227.045 561.298 231.463 559.458C237.593 556.882 242.868 555.778 248.635 555.778C259.184 555.778 266.42 559.703 268.874 566.696C269.735 569.272 270.103 571.238 269.98 577.986L269.612 599.09C269.489 605.96 269.98 608.906 275.502 613.078L266.788 623.139ZM252.806 592.465C241.397 592.465 237.471 594.55 237.471 602.033C237.471 606.942 240.538 610.255 244.711 610.255C247.775 610.255 250.842 608.659 253.296 605.958L253.541 592.463H252.806V592.465ZM319.547 571.482C317.951 570.621 316.602 570.253 314.761 570.253C311.082 570.253 307.77 571.97 304.702 575.529V619.946H288.264V577.982C288.264 569.515 287.285 563.135 285.934 559.576L300.656 555.652C302.127 558.227 302.986 561.05 303.231 564.607C306.787 559.822 311.816 555.652 317.949 555.652C320.401 555.652 321.506 555.895 324.083 557.001L319.547 571.482ZM374.627 623.139C370.826 621.543 367.391 618.72 365.797 615.533C364.568 616.757 363.22 617.986 361.993 618.845C358.926 621.056 354.512 622.281 349.36 622.281C335.376 622.281 327.77 615.165 327.77 602.651C327.77 587.925 337.951 581.054 357.947 581.054C359.171 581.054 360.277 581.054 361.626 581.177V578.599C361.626 571.604 360.277 569.272 354.267 569.272C348.992 569.272 342.858 571.847 336.112 576.392L329.121 564.611C332.431 562.526 334.884 561.298 339.302 559.458C345.432 556.882 350.707 555.778 356.474 555.778C367.023 555.778 374.259 559.703 376.713 566.696C377.574 569.272 377.941 571.238 377.819 577.986L377.451 599.09C377.328 605.96 377.819 608.906 383.341 613.078L374.627 623.139ZM360.645 592.465C349.235 592.465 345.31 594.55 345.31 602.033C345.31 606.942 348.377 610.255 352.55 610.255C355.613 610.255 358.681 608.659 361.135 605.958L361.38 592.463H360.645V592.465ZM435.112 617.493C430.694 620.069 425.787 621.418 419.777 621.418C402.483 621.418 392.424 609.394 392.424 589.027C392.424 574.546 397.944 564.977 405.305 559.946C409.474 557.123 415.608 555.284 420.883 555.284C425.052 555.284 429.593 556.263 433.026 558.107C435.355 559.331 436.461 560.192 439.161 562.522L431.187 573.319C427.874 570.251 424.318 568.411 421.251 568.411C413.892 568.411 410.579 574.789 410.579 589.515C410.579 597.733 411.685 602.645 413.769 605.343C415.486 607.551 418.308 608.9 421.128 608.9C424.929 608.9 428.364 607.305 432.415 603.746L433.394 602.89L440.875 612.829C438.423 615.286 437.321 616.142 435.112 617.493ZM489.216 619.948V577.739C489.216 571.484 487.497 569.149 482.836 569.149C478.789 569.149 473.515 571.602 469.832 574.916V619.946H453.149V547.309C453.149 541.418 452.66 535.529 451.925 532.951L468.731 529.027C469.465 532.461 469.832 538.35 469.832 544.364V556.878C469.832 558.841 469.587 561.418 469.587 562.154C473.883 558.107 480.996 555.406 487.372 555.406C495.346 555.406 501.726 558.841 503.688 564.362C504.916 567.921 505.284 570.006 505.284 576.02V619.946L489.216 619.948ZM566.26 623.139C562.459 621.543 559.024 618.72 557.43 615.533C556.202 616.757 554.855 617.986 553.627 618.845C550.559 621.056 546.145 622.281 540.993 622.281C527.009 622.281 519.403 615.165 519.403 602.651C519.403 587.925 529.584 581.054 549.58 581.054C550.805 581.054 551.91 581.054 553.259 581.177V578.599C553.259 571.604 551.91 569.272 545.9 569.272C540.626 569.272 534.491 571.847 527.745 576.392L520.754 564.611C524.064 562.526 526.517 561.298 530.935 559.458C537.066 556.882 542.34 555.778 548.107 555.778C558.656 555.778 565.892 559.703 568.346 566.696C569.207 569.272 569.575 571.238 569.452 577.986L569.084 599.09C568.962 605.96 569.452 608.906 574.974 613.078L566.26 623.139ZM552.278 592.465C540.869 592.465 536.943 594.55 536.943 602.033C536.943 606.942 540.01 610.255 544.183 610.255C547.247 610.255 550.314 608.659 552.768 605.958L553.014 592.463H552.278V592.465ZM638.398 568.661C636.804 568.661 635.085 568.415 634.106 568.293C636.559 571.238 637.785 574.425 637.785 578.599C637.785 589.397 627.972 597.25 614.6 597.25C613.863 597.25 613.376 597.25 612.148 597.127C607.979 599.09 605.648 600.562 605.648 602.281C605.648 603.137 606.626 603.753 608.347 603.753L617.177 603.875C626.747 603.998 631.777 605.472 636.191 609.519C639.871 612.955 641.588 617.25 641.588 622.894C641.588 628.17 639.994 632.217 636.559 635.901C631.039 641.792 621.594 644 611.778 644C602.825 644 593.623 642.526 587.981 637.25C584.548 634.061 582.829 630.38 582.829 626.087C582.829 622.651 583.69 620.934 584.303 619.705H599.513C598.9 621.179 598.775 622.035 598.775 623.757C598.775 628.787 602.948 631.486 610.552 631.486C614.721 631.486 618.279 630.995 620.856 629.396C623.308 627.925 624.902 625.594 624.902 623.019C624.902 617.375 619.873 615.658 613.374 615.535L606.381 615.412C599.022 615.29 594.238 614.675 591.294 613.448C588.349 612.346 586.51 609.523 586.51 605.231C586.51 601.179 587.734 597.377 598.041 594.679C588.962 592.348 584.548 586.58 584.548 577.252C584.548 564.368 594.974 556.026 611.045 556.026C614.6 556.026 617.79 556.516 622.327 557.622C625.762 558.479 627.97 558.971 630.054 558.971C634.595 558.971 639.256 557.009 643.057 553.573L649.928 564.002C646.372 567.309 642.935 568.661 638.398 568.661ZM610.922 568.045C604.665 568.045 601.107 571.482 601.107 577.369C601.107 583.751 605.035 586.326 610.799 586.326C617.3 586.326 620.858 583.135 620.858 577.369C620.858 571.482 617.175 568.045 610.922 568.045ZM699.372 623.139C695.571 621.543 692.135 618.72 690.541 615.533C689.313 616.757 687.964 617.986 686.738 618.845C683.671 621.056 679.257 622.281 674.105 622.281C660.121 622.281 652.515 615.165 652.515 602.651C652.515 587.925 662.696 581.054 682.692 581.054C683.916 581.054 685.022 581.054 686.37 581.177V578.599C686.37 571.604 685.022 569.272 679.012 569.272C673.737 569.272 667.602 571.847 660.857 576.392L653.866 564.611C657.176 562.526 659.628 561.298 664.047 559.458C670.177 556.882 675.452 555.778 681.219 555.778C691.768 555.778 699.004 559.703 701.458 566.696C702.318 569.272 702.686 571.238 702.564 577.986L702.196 599.09C702.073 605.96 702.564 608.906 708.085 613.078L699.372 623.139ZM685.39 592.465C673.98 592.465 670.055 594.55 670.055 602.033C670.055 606.942 673.122 610.255 677.295 610.255C680.358 610.255 683.426 608.659 685.88 605.958L686.125 592.463H685.39V592.465ZM754.215 619.948V579.09C754.215 571.97 752.987 569.885 748.695 569.885C745.383 569.885 741.091 572.093 737.286 575.529V619.946H720.847V574.423C720.847 569.024 720.114 563.871 718.64 559.701L733.24 555.531C734.711 558.107 735.569 560.807 735.569 563.385C738.022 561.666 740.108 560.194 742.806 558.72C746.118 557.003 750.41 556.02 754.092 556.02C761.083 556.02 767.218 559.701 769.18 565.102C770.04 567.432 770.408 570.132 770.408 574.059V619.948H754.215ZM831.38 623.139C827.579 621.543 824.143 618.72 822.55 615.533C821.321 616.757 819.975 617.986 818.746 618.845C815.679 621.056 811.265 622.281 806.113 622.281C792.129 622.281 784.523 615.165 784.523 602.651C784.523 587.925 794.704 581.054 814.7 581.054C815.924 581.054 817.03 581.054 818.379 581.177V578.599C818.379 571.604 817.03 569.272 811.02 569.272C805.745 569.272 799.61 571.847 792.865 576.392L785.874 564.611C789.184 562.526 791.637 561.298 796.055 559.458C802.185 556.882 807.46 555.778 813.227 555.778C823.776 555.778 831.012 559.703 833.466 566.696C834.327 569.272 834.694 571.238 834.572 577.986L834.204 599.09C834.081 605.96 834.572 608.906 840.094 613.078L831.38 623.139ZM817.398 592.465C805.988 592.465 802.063 594.55 802.063 602.033C802.063 606.942 805.13 610.255 809.303 610.255C812.366 610.255 815.434 608.659 817.888 605.958L818.133 592.463H817.398V592.465ZM852.856 619.948V549.149C852.856 543.628 852.735 539.333 851.754 532.829L868.315 528.781C869.049 533.444 869.294 540.805 869.294 549.149V619.948H852.856ZM890.76 619.948L869.662 584.366L885.73 557.125H905.477L885.483 583.383L910.141 619.946L890.76 619.948Z" fill="white"/>
</svg>
