<svg width="1322" height="495" viewBox="0 0 1322 495" fill="none" xmlns="http://www.w3.org/2000/svg">
<path fill-rule="evenodd" clip-rule="evenodd" d="M715.871 426.308C385.637 426.308 117.955 332.604 117.955 216.976C117.955 113.597 332.062 27.7504 613.528 10.752C276.714 19.6322 11.0586 122.173 11.0586 247.464C11.0586 378.431 302.04 484.691 661.009 484.691C1019.95 484.691 1310.94 378.431 1310.94 247.464C1310.94 244.583 1310.74 241.772 1310.48 238.95C1279.15 344.243 1024.9 426.308 715.871 426.308Z" fill="#FFC731"/>
<path fill-rule="evenodd" clip-rule="evenodd" d="M770.711 474.94C411.765 474.94 120.782 369.825 120.782 240.132C120.782 127.087 341.746 32.7303 636.096 10.3066C288.673 15.1016 11.0547 119.395 11.0547 247.464C11.0547 378.431 302.036 484.691 661.005 484.691C733.677 484.691 803.609 480.325 868.883 472.31C836.863 474.049 804.11 474.94 770.711 474.94Z" fill="#0CB5DD"/>
<path fill-rule="evenodd" clip-rule="evenodd" d="M418.479 235.957L427.713 207.422L427.984 207.425L436.534 235.96L418.479 235.957ZM421.451 176.418V176.434C417.406 176.504 413.841 178.434 411.5 181.394L378.193 269.029L407.763 269.032L412.042 255.813H442.414L446.422 269.032H476.926L442.163 176.421L421.451 176.418Z" fill="white"/>
<path fill-rule="evenodd" clip-rule="evenodd" d="M558.685 202.465C558.701 202.448 558.721 202.428 558.737 202.412L560.956 200.029C562.597 197.881 563.584 195.218 563.584 192.321L563.6 192.317V176.428H482.946V200.168H524.826L482.926 244.078C481.477 246.008 480.638 248.226 480.4 250.503V269.039H565.749V245.299H518.801L558.685 202.465Z" fill="white"/>
<path fill-rule="evenodd" clip-rule="evenodd" d="M1134.22 212.593C1120.73 208.979 1107.07 207.547 1106.53 200.944C1106.53 195.739 1113.08 194.7 1117.1 194.7C1120.05 194.7 1123.39 195.347 1125.79 197.056C1128.2 198.61 1129.82 200.94 1129.27 204.442L1157.1 204.445C1156.31 181.866 1137.98 174.207 1117.23 174.207C1097.56 174.207 1078.7 183.417 1078.7 204.818C1078.7 223.512 1095.97 227.519 1111.08 231.677C1127.54 236.217 1131.68 237.508 1131.68 242.339C1131.68 249.193 1124.33 250.747 1119.5 250.747C1114.02 250.747 1107.61 249.586 1105.46 244.015C1104.8 242.349 1104.4 240.26 1104.4 237.914H1074.96C1075.23 267.505 1106.12 271.25 1116.96 271.25C1138.26 271.25 1161.12 263.472 1161.12 239.346C1161.11 222.344 1147.73 216.242 1134.22 212.593Z" fill="white"/>
<path fill-rule="evenodd" clip-rule="evenodd" d="M933.679 184.47L922.045 230.911H921.791L910.259 184.916C909.288 180.193 905.175 176.613 900.197 176.422L866.266 176.418V269.029L894.096 269.033V209.633H894.366L910.962 269.033H932.886L949.465 209.633H949.736V269.033H977.589V176.418H943.619C938.799 176.609 934.808 179.972 933.679 184.47Z" fill="white"/>
<path fill-rule="evenodd" clip-rule="evenodd" d="M1057.74 176.418V176.454C1053.66 176.507 1050.05 178.464 1047.73 181.467L1033.57 210.543L1019.99 181.414C1019.92 181.309 1019.85 181.239 1019.82 181.127C1017.48 178.332 1014.02 176.507 1010.09 176.454V176.418H985.166L1018.72 234.907V269.029L1048.15 269.033V234.911L1082.41 176.421L1057.74 176.418Z" fill="white"/>
<path fill-rule="evenodd" clip-rule="evenodd" d="M609.213 235.957L618.447 207.422L618.714 207.425L627.274 235.96L609.213 235.957ZM612.201 176.434C611.702 176.451 611.23 176.487 610.751 176.54C610.533 176.576 610.342 176.626 610.121 176.662C609.867 176.715 609.622 176.748 609.368 176.821C609.081 176.873 608.817 176.979 608.546 177.055C608.371 177.108 608.223 177.141 608.048 177.213C607.724 177.335 607.417 177.467 607.113 177.606C607.008 177.642 606.912 177.692 606.806 177.728C606.466 177.913 606.143 178.104 605.803 178.286C605.75 178.322 605.697 178.339 605.664 178.372C605.307 178.589 604.964 178.817 604.641 179.071C604.624 179.088 604.588 179.107 604.571 179.124C604.231 179.395 603.908 179.675 603.584 179.962V179.979C603.261 180.286 602.954 180.589 602.666 180.929C602.63 180.982 602.561 181.035 602.528 181.087C602.353 181.358 602.188 181.639 602.046 181.909L568.934 269.046L598.503 269.049L602.802 255.829H633.154L637.182 269.049H667.682L632.9 176.438L612.201 176.434Z" fill="white"/>
<path fill-rule="evenodd" clip-rule="evenodd" d="M826.831 208.587H799.263V176.418H769.836V269.039H799.263V232.327H826.831V269.039H856.284V176.418H826.831V208.587Z" fill="white"/>
<path fill-rule="evenodd" clip-rule="evenodd" d="M374.318 176.418H343.929V176.454C339.869 176.507 336.27 178.454 333.946 181.414L311.837 208.322H311.567V176.418H282.139V269.029L311.567 269.032V241.659L316.598 236.306L337.954 269.032H373.47L336.416 215.807L374.318 176.418Z" fill="white"/>
<path fill-rule="evenodd" clip-rule="evenodd" d="M763.423 176.418H733.035V176.454C728.974 176.507 725.392 178.454 723.068 181.414L700.943 208.322H700.692V176.418H671.244V269.029L700.692 269.032V241.659L705.707 236.306L727.079 269.032H762.595L725.541 215.807L763.423 176.418Z" fill="white"/>
</svg>
