<svg width="2063" height="773" viewBox="0 0 2063 773" fill="none" xmlns="http://www.w3.org/2000/svg">
<path fill-rule="evenodd" clip-rule="evenodd" d="M1117.13 665.728C601.791 665.728 184.07 519.399 184.07 338.831C184.07 177.393 518.186 43.3341 957.418 16.7891C431.816 30.6567 17.2563 190.786 17.2563 386.443C17.2563 590.963 471.337 756.9 1031.51 756.9C1591.65 756.9 2045.74 590.963 2045.74 386.443C2045.74 381.944 2045.43 377.553 2045.02 373.147C1996.13 537.575 1599.37 665.728 1117.13 665.728Z" fill="#FFC731"/>
<path fill-rule="evenodd" clip-rule="evenodd" d="M1202.7 741.673C642.564 741.673 188.481 577.524 188.481 374.993C188.481 198.46 533.298 51.1109 992.636 16.0938C450.476 23.5816 17.2495 186.447 17.2495 386.443C17.2495 590.963 471.33 756.9 1031.51 756.9C1144.91 756.9 1254.04 750.083 1355.9 737.565C1305.94 740.281 1254.82 741.673 1202.7 741.673Z" fill="#0CB5DD"/>
<path fill-rule="evenodd" clip-rule="evenodd" d="M653.042 368.473L667.452 323.912L667.874 323.917L681.217 368.478L653.042 368.473ZM657.679 275.496V275.522C651.368 275.63 645.804 278.645 642.151 283.267L590.175 420.119L636.32 420.124L642.996 399.48H690.392L696.647 420.124H744.249L690.001 275.501L657.679 275.496Z" fill="white"/>
<path fill-rule="evenodd" clip-rule="evenodd" d="M871.834 316.172C871.859 316.146 871.89 316.115 871.916 316.089L875.378 312.368C877.938 309.014 879.479 304.855 879.479 300.33L879.505 300.325V275.512H753.642V312.585H818.997L753.611 381.155C751.349 384.17 750.041 387.633 749.67 391.189V420.135H882.858V383.062H809.595L871.834 316.172Z" fill="white"/>
<path fill-rule="evenodd" clip-rule="evenodd" d="M1769.97 331.986C1748.91 326.344 1727.59 324.107 1726.76 313.795C1726.76 305.668 1736.98 304.045 1743.24 304.045C1747.85 304.045 1753.07 305.055 1756.82 307.725C1760.57 310.152 1763.1 313.79 1762.24 319.258L1805.67 319.263C1804.44 284.004 1775.83 272.043 1743.46 272.043C1712.76 272.043 1683.32 286.426 1683.32 319.845C1683.32 349.039 1710.27 355.295 1733.85 361.788C1759.54 368.879 1766.01 370.894 1766.01 378.439C1766.01 389.142 1754.53 391.569 1746.99 391.569C1738.44 391.569 1728.44 389.755 1725.09 381.057C1724.05 378.454 1723.44 375.192 1723.44 371.528H1677.48C1677.91 417.738 1726.12 423.587 1743.03 423.587C1776.27 423.587 1811.94 411.441 1811.94 373.765C1811.92 347.215 1791.05 337.686 1769.97 331.986Z" fill="white"/>
<path fill-rule="evenodd" clip-rule="evenodd" d="M1457.02 288.071L1438.86 360.594H1438.47L1420.47 288.766C1418.96 281.392 1412.54 275.8 1404.77 275.502L1351.82 275.496V420.119L1395.25 420.124V327.364H1395.67L1421.57 420.124H1455.78L1481.65 327.364H1482.08V420.124H1525.54V275.496H1472.53C1465.01 275.795 1458.78 281.047 1457.02 288.071Z" fill="white"/>
<path fill-rule="evenodd" clip-rule="evenodd" d="M1650.62 275.496V275.553C1644.25 275.635 1638.61 278.691 1635 283.381L1612.9 328.787L1591.71 283.298C1591.6 283.133 1591.49 283.025 1591.44 282.85C1587.78 278.485 1582.38 275.635 1576.26 275.553V275.496H1537.36L1589.73 366.834V420.119L1635.65 420.124V366.839L1689.11 275.501L1650.62 275.496Z" fill="white"/>
<path fill-rule="evenodd" clip-rule="evenodd" d="M950.685 368.473L965.094 323.912L965.511 323.917L978.87 368.478L950.685 368.473ZM955.347 275.522C954.569 275.548 953.832 275.604 953.085 275.687C952.745 275.743 952.446 275.821 952.101 275.877C951.705 275.96 951.323 276.011 950.927 276.125C950.478 276.207 950.066 276.372 949.644 276.491C949.371 276.573 949.139 276.625 948.866 276.738C948.361 276.929 947.882 277.135 947.408 277.351C947.243 277.408 947.094 277.485 946.929 277.542C946.398 277.831 945.893 278.129 945.363 278.413C945.28 278.47 945.198 278.495 945.146 278.547C944.59 278.887 944.054 279.243 943.549 279.639C943.524 279.665 943.467 279.696 943.441 279.722C942.911 280.144 942.406 280.582 941.901 281.031V281.057C941.396 281.536 940.917 282.01 940.469 282.541C940.412 282.623 940.304 282.706 940.252 282.788C939.979 283.211 939.722 283.649 939.5 284.071L887.828 420.145L933.972 420.15L940.68 399.506H988.045L994.33 420.15H1041.93L987.648 275.527L955.347 275.522Z" fill="white"/>
<path fill-rule="evenodd" clip-rule="evenodd" d="M1290.28 325.731H1247.26V275.496H1201.34V420.135H1247.26V362.804H1290.28V420.135H1336.24V275.496H1290.28V325.731Z" fill="white"/>
<path fill-rule="evenodd" clip-rule="evenodd" d="M584.127 275.496H536.705V275.553C530.368 275.635 524.753 278.676 521.126 283.298L486.624 325.319H486.202V275.496H440.279V420.119L486.202 420.124V377.377L494.053 369.019L527.38 420.124H582.803L524.979 337.006L584.127 275.496Z" fill="white"/>
<path fill-rule="evenodd" clip-rule="evenodd" d="M1191.33 275.496H1143.91V275.553C1137.57 275.635 1131.98 278.676 1128.36 283.298L1093.83 325.319H1093.44V275.496H1047.48V420.119L1093.44 420.124V377.377L1101.26 369.019L1134.62 420.124H1190.04L1132.22 337.006L1191.33 275.496Z" fill="white"/>
</svg>
