<svg width="2360" height="465" viewBox="0 0 2360 465" fill="none" xmlns="http://www.w3.org/2000/svg">
<g clip-path="url(#clip0_788_274)">
<path fill-rule="evenodd" clip-rule="evenodd" d="M466.613 155.174L466.604 155.183V155.2L464.862 156.214C440.492 114.009 399.56 81.3491 355.929 69.6564C312.282 57.9638 256.522 64.7105 214.304 89.0765L213.289 87.3433L361.275 1.95244C364.623 0.0227229 368.6 -0.499324 372.332 0.501079C376.065 1.50148 379.247 3.94244 381.179 7.28726L466.613 155.174Z" fill="white"/>
<path fill-rule="evenodd" clip-rule="evenodd" d="M296.354 11.7086V13.7293C247.606 13.6447 198.816 32.6167 166.808 64.4819C134.774 96.3556 112.629 147.954 112.528 196.66H110.531L110.895 25.8869C110.898 23.9743 111.279 22.0811 112.014 20.3155C112.75 18.5499 113.826 16.9464 115.182 15.5968C116.538 14.2471 118.147 13.1777 119.916 12.4496C121.686 11.7216 123.581 11.3491 125.495 11.3536L296.354 11.7086Z" fill="#E79B24"/>
<path fill-rule="evenodd" clip-rule="evenodd" d="M88.0391 76.4883L89.7985 77.5028C65.2427 119.598 57.173 171.306 68.6939 214.974C80.1894 258.667 113.745 303.679 155.845 328.222L154.83 329.947L7.22392 243.939C3.88745 241.989 1.46136 238.795 0.478126 235.059C-0.505109 231.323 0.0348416 227.35 1.97947 224.012L88.0476 76.5052L88.0391 76.4883Z" fill="white"/>
<path fill-rule="evenodd" clip-rule="evenodd" d="M49.0957 305.125L49.1042 305.108V305.091L50.8467 304.102C74.9627 346.442 115.658 379.381 159.229 391.352C202.8 403.299 258.62 396.907 300.981 372.837L301.971 374.57L153.452 459.006C150.094 460.913 146.115 461.411 142.39 460.391C138.665 459.37 135.497 456.914 133.582 453.561L49.0957 305.125Z" fill="#E79B24"/>
<path fill-rule="evenodd" clip-rule="evenodd" d="M208.374 459.918L208.357 459.909L208.374 457.897C257.114 458.303 306.031 439.635 338.242 407.973C370.478 376.311 392.953 324.856 393.368 276.133L395.364 276.158L393.909 446.923C393.896 448.836 393.505 450.727 392.76 452.488C392.014 454.25 390.928 455.847 389.564 457.188C388.2 458.53 386.585 459.589 384.811 460.305C383.036 461.022 381.138 461.381 379.225 461.363L208.374 459.918Z" fill="white"/>
<path fill-rule="evenodd" clip-rule="evenodd" d="M427.354 386.667L425.603 385.653C450.421 343.718 458.812 292.053 447.596 248.309C436.346 204.548 403.111 159.299 361.164 134.502L362.179 132.777L509.227 219.749C512.551 221.716 514.958 224.921 515.92 228.661C516.881 232.401 516.317 236.369 514.353 239.694L427.354 386.667Z" fill="#E79B24"/>
<path fill-rule="evenodd" clip-rule="evenodd" d="M858.905 418.83H854.236L826.204 377.817V418.821H821.534V372.144H827.853L854.236 410.882V372.144H858.914L858.905 418.83ZM932.81 418.83H927.76L921.01 403.172H899.287L892.546 418.83H887.487L907.619 372.144H912.779L932.81 418.83ZM919.183 398.944L910.208 377.554L901.115 398.944H919.183ZM977.294 376.362H966.628V418.83H961.959V376.362H951.284V372.135H977.294V376.362ZM1005.74 418.83H1010.41V372.144H1005.74V418.83ZM1090.57 395.233C1090.57 402.208 1088.2 408.033 1083.46 412.675C1078.72 417.325 1072.85 419.658 1065.82 419.658C1058.85 419.658 1052.96 417.375 1048.21 412.835C1043.45 408.304 1041.07 402.546 1041.07 395.613C1041.07 388.63 1043.43 382.839 1048.17 378.231C1052.91 373.615 1058.79 371.315 1065.82 371.315C1072.84 371.315 1078.73 373.564 1083.47 378.096C1088.2 382.619 1090.57 388.326 1090.57 395.233ZM1085.9 395.233C1085.9 389.458 1083.98 384.749 1080.18 381.063C1076.37 377.377 1071.62 375.551 1065.88 375.551C1060.15 375.551 1055.39 377.445 1051.53 381.258C1047.66 385.062 1045.76 389.847 1045.76 395.613C1045.76 401.413 1047.65 406.173 1051.49 409.859C1055.32 413.579 1060.11 415.431 1065.89 415.431C1071.62 415.431 1076.38 413.52 1080.18 409.716C1083.98 405.903 1085.9 401.075 1085.9 395.233ZM1158.54 418.821H1153.85L1125.84 377.817V418.821H1121.17V372.144H1127.48L1153.85 410.882V372.144H1158.54V418.83V418.821ZM1232.44 418.821H1227.4L1220.63 403.172H1198.91L1192.15 418.83H1187.11L1207.25 372.144H1212.43L1232.44 418.83V418.821ZM1218.81 398.944L1209.83 377.554L1200.75 398.944H1218.81ZM1284.99 418.83H1261V372.144H1265.69V414.602H1284.99V418.83ZM1384.16 418.83H1379.1L1372.35 403.172H1350.64L1343.87 418.83H1338.81L1358.96 372.144H1364.15L1384.16 418.83ZM1370.52 398.944L1361.55 377.554L1352.48 398.944H1370.52ZM1428.65 376.362H1417.97V418.83H1413.3V376.362H1402.63V372.135H1428.65V376.362ZM1499.25 395.233C1499.25 402.208 1496.88 408.033 1492.15 412.675C1487.43 417.325 1481.53 419.658 1474.5 419.658C1467.51 419.658 1461.64 417.375 1456.9 412.835C1452.15 408.304 1449.77 402.546 1449.77 395.613C1449.77 388.63 1452.14 382.839 1456.86 378.231C1461.61 373.615 1467.48 371.315 1474.5 371.315C1481.52 371.315 1487.43 373.564 1492.15 378.096C1496.89 382.619 1499.25 388.326 1499.25 395.233ZM1494.58 395.233C1494.58 389.458 1492.69 384.749 1488.88 381.063C1485.07 377.377 1480.3 375.551 1474.57 375.551C1468.84 375.551 1464.07 377.445 1460.22 381.258C1456.37 385.062 1454.43 389.847 1454.43 395.613C1454.43 401.413 1456.35 406.173 1460.17 409.859C1464 413.579 1468.82 415.431 1474.57 415.431C1480.3 415.431 1485.06 413.52 1488.88 409.716C1492.69 405.903 1494.58 401.075 1494.58 395.233ZM1578.6 418.821H1573.91V377.377L1556.19 418.83H1552.27L1534.51 377.377V418.83H1529.85V372.144H1537.05L1554.22 411.88L1571.39 372.144H1578.6V418.83V418.821ZM1611.2 418.821H1615.86V372.144H1611.2V418.83V418.821ZM1692.48 406.647C1690.45 410.572 1687.38 413.873 1683.62 416.2C1679.88 418.512 1675.55 419.712 1671.15 419.658C1664.21 419.658 1658.4 417.409 1653.73 412.894C1648.94 408.278 1646.53 402.428 1646.53 395.351C1646.53 388.461 1648.86 382.72 1653.51 378.146C1658.15 373.581 1663.92 371.315 1670.77 371.315C1675.62 371.315 1679.92 372.439 1683.69 374.655C1687.43 376.862 1690.43 380.135 1692.3 384.056H1686.74C1685.53 382.123 1683.96 380.432 1682.13 379.068C1678.93 376.726 1675.16 375.551 1670.83 375.551C1665.08 375.551 1660.36 377.453 1656.7 381.317C1653.03 385.172 1651.2 389.847 1651.2 395.351C1651.2 401.033 1653.13 405.801 1656.99 409.639C1660.84 413.503 1665.55 415.431 1671.15 415.431C1674.14 415.441 1677.09 414.721 1679.74 413.334C1682.72 411.829 1685.13 409.606 1686.94 406.647H1692.49H1692.48ZM1796.44 406.647C1794.4 410.574 1791.33 413.875 1787.56 416.2C1783.82 418.511 1779.5 419.71 1775.11 419.658C1768.16 419.658 1762.36 417.409 1757.68 412.894C1752.9 408.278 1750.48 402.428 1750.48 395.351C1750.48 388.461 1752.81 382.72 1757.46 378.146C1762.1 373.581 1767.86 371.315 1774.72 371.315C1779.57 371.315 1783.87 372.439 1787.64 374.655C1791.4 376.887 1794.27 380.023 1796.26 384.056H1790.69C1789.48 382.123 1787.91 380.432 1786.08 379.068C1782.88 376.726 1779.13 375.551 1774.78 375.551C1769.03 375.551 1764.31 377.453 1760.65 381.317C1758.86 383.178 1757.44 385.376 1756.5 387.785C1755.55 390.193 1755.09 392.765 1755.15 395.351C1755.15 401.033 1757.08 405.801 1760.94 409.639C1764.79 413.503 1769.5 415.431 1775.11 415.431C1778.14 415.431 1781.01 414.729 1783.69 413.334C1786.68 411.829 1789.08 409.606 1790.89 406.647H1796.44ZM1874.51 395.233C1874.51 402.208 1872.13 408.033 1867.4 412.675C1862.67 417.325 1856.8 419.658 1849.77 419.658C1842.78 419.658 1836.9 417.375 1832.16 412.835C1827.38 408.304 1825.03 402.546 1825.03 395.613C1825.03 388.63 1827.38 382.839 1832.12 378.231C1836.86 373.615 1842.74 371.315 1849.77 371.315C1856.79 371.315 1862.67 373.564 1867.41 378.096C1872.13 382.619 1874.51 388.326 1874.51 395.233ZM1869.85 395.233C1869.85 389.458 1867.94 384.749 1864.14 381.063C1860.33 377.377 1855.54 375.551 1849.83 375.551C1844.11 375.551 1839.31 377.445 1835.46 381.258C1831.61 385.062 1829.69 389.847 1829.69 395.613C1829.69 401.413 1831.6 406.173 1835.43 409.859C1839.26 413.579 1844.07 415.431 1849.83 415.431C1855.54 415.431 1860.33 413.52 1864.14 409.716C1867.94 405.903 1869.85 401.075 1869.85 395.233ZM1953.83 418.821H1949.17V377.377L1931.44 418.83H1927.52L1909.77 377.377V418.83H1905.11V372.144H1912.3L1929.47 411.88L1946.65 372.144H1953.83V418.83V418.821ZM2017.21 386.153C2017.21 390.042 2016.01 393.255 2013.6 395.732C2010.79 398.64 2006.63 400.094 2001.09 400.094H1991.01V418.83H1986.33V372.144H2001.09C2007.21 372.144 2011.6 373.801 2014.31 377.106C2016.23 379.474 2017.21 382.492 2017.21 386.153ZM2012.54 386.153C2012.54 383.363 2011.69 381.114 2010 379.389C2008.04 377.377 2005.09 376.362 2001.17 376.362H1991.01V395.867H2001.16C2005.04 395.867 2007.96 394.852 2009.94 392.84C2011.67 391.107 2012.54 388.884 2012.54 386.153ZM2081.33 418.83H2076.28L2069.51 403.172H2047.8L2041.05 418.83H2035.97L2056.13 372.144H2061.3L2081.33 418.83ZM2067.68 398.944L2058.72 377.554L2049.62 398.944H2067.68ZM2147.27 418.83H2142.6L2114.56 377.817V418.821H2109.89V372.144H2116.21L2142.6 410.882V372.144H2147.27V418.83ZM2212.14 372.144L2196.17 403.172V418.83H2191.49V403.172L2175.52 372.144H2180.64L2193.83 398.319L2207.02 372.144H2212.14ZM867.922 253.509L884.882 210.814L901.614 253.509H867.922ZM865.131 161.448L801.149 312.733H844.94L855.691 285.924H913.642L924.588 312.725H969.25L905.285 161.456L865.131 161.448ZM807.814 162.023H758.44L706.901 223.453V162.023H663.973V312.226H706.901V273.902L722.042 256.697L759.726 312.226H787.995L796.285 292.874L750.92 226.742L807.814 162.023ZM1171.25 253.509L1188.21 210.814L1204.95 253.509H1171.25H1171.25ZM1168.45 161.448L1104.48 312.725H1148.28L1159.02 285.916H1216.97L1227.92 312.717H1272.58L1208.61 161.448H1168.46H1168.45ZM1106.82 277.892H1032.35L1106.2 192.78V162.031H977.379V200.652H1050.18L971.915 285.933L983.004 312.226H1093.31L1107.82 277.892H1106.82ZM1246.6 199.003H1291.69V312.717H1333.34V199.003H1378.42V162.53H1246.6V199.003ZM1461.92 278.18C1439.17 278.18 1423.5 259.301 1423.5 237.632C1423.5 215.523 1438.74 197.075 1461.49 197.075C1484.47 197.075 1500.14 215.946 1500.14 237.632C1500.14 259.732 1484.9 278.18 1461.92 278.18ZM1461.92 159.512C1415.54 159.512 1380.77 194.488 1380.77 237.632C1380.77 281.173 1415.11 315.726 1461.49 315.726C1507.85 315.726 1542.65 280.75 1542.65 237.632C1542.65 194.074 1508.28 159.512 1461.92 159.512ZM1799.18 237.201H1779.42V197.498H1798.96C1813.99 197.498 1822.98 204.363 1822.98 217.239C1822.98 229.473 1813.99 237.201 1799.18 237.201ZM1802.17 162.522H1737.76V312.725H1779.42V269.81H1800.04C1837.39 269.81 1864.64 251.151 1864.64 215.734C1864.64 182.052 1840.17 162.522 1802.17 162.522ZM1947.08 234.622H1919.6V198.572H1946.87C1960.82 198.572 1969.41 204.591 1969.41 216.385C1969.41 227.757 1961.24 234.622 1947.08 234.622ZM2011.28 214.246C2011.28 199.003 2006.75 187.42 1997.96 178.619C1987.86 168.533 1971.97 162.53 1949.01 162.53H1877.95V312.733H1919.6V267.248H1937.84L1968.11 312.733H2016.2L1980.35 260.383C1999.04 252.436 2011.27 237.201 2011.27 214.255M2104 278.18C2081.24 278.18 2065.57 259.301 2065.57 237.632C2065.57 215.523 2080.81 197.075 2103.56 197.075C2126.55 197.075 2142.22 215.946 2142.22 237.632C2142.22 259.732 2126.98 278.18 2104 278.18ZM2104 159.512C2057.63 159.512 2022.84 194.488 2022.84 237.632C2022.84 281.173 2057.19 315.726 2103.56 315.726C2149.94 315.726 2184.73 280.75 2184.73 237.632C2184.73 194.074 2150.36 159.512 2104 159.512ZM1635.59 220.173L1599.73 162.023H1557.02V312.226H1595.63V226.894L1628.21 277.884H1642.09L1672.92 226.463V312.226H1715.86V162.023H1671.45L1635.59 220.173Z" fill="white"/>
<mask id="mask0_788_274" style="mask-type:luminance" maskUnits="userSpaceOnUse" x="2201" y="162" width="159" height="151">
<path d="M2201.01 162.023H2359.87V312.227H2201.02L2201.01 162.023Z" fill="white"/>
</mask>
<g mask="url(#mask0_788_274)">
<path fill-rule="evenodd" clip-rule="evenodd" d="M2317.81 162.023L2281.95 220.174L2246.1 162.023H2201.01V312.227H2243.95V226.921L2274.58 277.901H2288.46L2321.23 226.481V312.227H2359.87V162.023H2317.81Z" fill="white"/>
</g>
</g>
<defs>
<clipPath id="clip0_788_274">
<rect width="2360" height="465" fill="white"/>
</clipPath>
</defs>
</svg>
