<svg width="1084" height="808" viewBox="0 0 1084 808" fill="none" xmlns="http://www.w3.org/2000/svg">
<path fill-rule="evenodd" clip-rule="evenodd" d="M79.1301 329.916H23.3093C27.8956 433.662 124.962 524.538 268.55 576.175C156.594 520.175 82.7112 430.774 79.1301 329.916ZM1060.69 329.916H1004.87C1001.26 430.774 927.406 520.143 815.45 576.175C959.039 524.538 1056.07 433.662 1060.69 329.916ZM1004.87 314.503H1060.69C1056.07 210.726 959.039 119.85 815.45 68.2123C927.406 124.213 1001.29 213.614 1004.87 314.503ZM23.3093 314.503H79.1301C82.7112 213.614 156.594 124.213 268.55 68.2123C124.962 119.819 27.8956 210.726 23.3093 314.503ZM542 7.12615C836.591 7.12615 1076.87 148.667 1076.87 322.194C1076.87 495.721 836.591 637.293 542 637.293C247.409 637.293 7.13159 495.721 7.13159 322.194C7.13159 148.667 247.409 7.12615 542 7.12615ZM401.835 606.216C227.242 567.48 99.737 458.586 94.8366 329.916H217.975C220.991 451.429 295.408 556.274 401.835 606.216ZM989.164 329.916C984.263 458.586 856.758 567.48 682.133 606.216C788.56 556.274 863.009 451.429 866.025 329.916H989.164ZM217.975 314.503H94.8366C99.737 185.802 227.242 76.8762 401.867 38.1715C295.408 88.114 220.991 192.959 217.975 314.503ZM682.133 38.1715C856.758 76.8762 984.263 185.802 989.164 314.503H866.025C863.009 192.959 788.56 88.114 682.133 38.1715ZM474.242 613.97C339.481 584.368 237.671 468.631 234.059 329.916H362.255C364.014 458.178 409.909 567.826 474.242 613.97ZM849.941 329.916C846.297 468.631 744.519 584.368 609.758 613.97C674.06 567.826 719.954 458.178 721.745 329.916H849.941ZM362.255 314.503H234.059C237.671 175.757 339.481 59.9566 474.242 30.418C409.94 76.5622 364.014 186.21 362.255 314.503ZM609.758 30.418C744.519 59.9566 846.297 175.757 849.941 314.503H721.745C719.954 186.241 674.06 76.5622 609.758 30.418ZM549.696 329.916L549.665 620.938C635.077 613.719 703.777 486.43 705.976 329.916H549.696ZM549.696 23.4493V314.503H705.976C703.777 157.958 635.077 30.7319 549.696 23.4493ZM534.304 314.503V23.4493C448.923 30.7005 380.223 157.958 378.024 314.503H534.304ZM534.272 620.938L534.304 329.916H378.024C380.223 486.398 448.892 613.687 534.272 620.938Z" fill="#0071BC"/>
<path fill-rule="evenodd" clip-rule="evenodd" d="M191.529 162.21C202.398 162.21 213.989 162.963 216.816 164.407C219.675 165.914 221.528 166.008 226.209 174.358L228.69 181.609C247.161 259.646 268.648 354.948 287.118 432.985C291.359 446.012 293.244 447.645 296.574 451.914C303.485 457.156 312.186 457.156 318.469 457.156H762.239C768.334 456.748 779.925 453.577 785.171 449.967C789.192 446.326 793.275 441.021 795.192 432.954C813.662 354.979 837.379 259.74 855.819 181.735C856.353 179.537 857.044 176.838 858.018 174.891C859.62 171.815 863.703 165.506 868.886 163.622C874.101 162.429 890.467 162.367 892.446 162.21C892.446 271.512 892.163 373.688 892.163 482.99C890.719 492.627 883.336 503.175 877.305 506.157C865.682 511.807 854.813 514.852 839.578 516.453C641.834 516.61 444.12 516.798 246.376 516.955C228.659 515.825 213.267 511.525 203.214 506.722C197.529 503.897 192 493.287 191.529 483.336L191.529 162.21Z" fill="white"/>
<path fill-rule="evenodd" clip-rule="evenodd" d="M248.374 137.402H834.257C813.525 222.659 794.551 321.037 773.819 406.263C771.683 411.756 769.798 415.335 766.123 420.577C762.667 425.066 756.29 428.707 750.291 428.707H328.32C321.661 427.671 320.593 428.487 314.247 423.308C308.122 417.406 306.457 413.577 304.666 406.012L248.374 137.402Z" fill="white"/>
<path fill-rule="evenodd" clip-rule="evenodd" d="M191.529 162.21C202.398 162.21 213.989 162.963 216.816 164.407C219.675 165.914 221.528 166.008 226.209 174.358L228.69 181.609C247.161 259.646 268.648 354.948 287.118 432.985C291.359 446.012 293.244 447.645 296.574 451.914C303.485 457.156 312.186 457.156 318.469 457.156H762.239C768.334 456.748 779.925 453.577 785.171 449.967C789.192 446.326 793.275 441.021 795.192 432.954C813.662 354.979 837.379 259.74 855.819 181.735C856.353 179.537 857.044 176.838 858.018 174.891C859.62 171.815 863.703 165.506 868.886 163.622C874.101 162.429 890.467 162.367 892.446 162.21C892.446 271.512 892.163 373.688 892.163 482.99C890.719 492.627 883.336 503.175 877.305 506.157C865.682 511.807 854.813 514.852 839.578 516.453C641.834 516.61 444.12 516.798 246.376 516.955C228.659 515.825 213.267 511.525 203.214 506.722C197.529 503.897 192 493.287 191.529 483.336L191.529 162.21Z" fill="white"/>
<path fill-rule="evenodd" clip-rule="evenodd" d="M248.374 137.402H834.257C813.525 222.659 794.551 321.037 773.819 406.263C771.683 411.756 769.798 415.335 766.123 420.577C762.667 425.066 756.29 428.707 750.291 428.707H328.32C321.661 427.671 320.593 428.487 314.247 423.308C308.122 417.406 306.457 413.577 304.666 406.012L248.374 137.402Z" fill="white"/>
<path fill-rule="evenodd" clip-rule="evenodd" d="M1027.33 800.748L1036.31 779.967C1017.15 779.559 996.231 776.734 979.583 767.819C965.101 760.066 955.866 748.608 955.866 732.442C955.866 723.872 959.258 716.747 966.955 712.132C975.687 706.859 988.881 705.917 998.996 705.917H1033.8L1024.63 685.168H986.808C967.52 685.168 944.306 687.93 929.196 700.486C919.081 708.836 914.903 719.792 914.903 732.442C914.903 753.788 924.547 770.079 943.018 782.071C965.415 796.604 994.001 800.748 1020.61 800.748H1027.33Z" fill="white"/>
<path fill-rule="evenodd" clip-rule="evenodd" d="M893.782 800.748V685.168H849.489V730.182L787.48 685.168H743.251V800.748H787.606L788.234 719.729L849.489 766.469V800.748H893.782Z" fill="white"/>
<path fill-rule="evenodd" clip-rule="evenodd" d="M717.15 685.156H672.857V800.738H717.15V685.156Z" fill="white"/>
<path fill-rule="evenodd" clip-rule="evenodd" d="M653.535 685.176H539.098L530.176 705.893H590.929L523.077 800.756H643.609L652.53 780.007H585.683L653.535 685.176Z" fill="white"/>
<path fill-rule="evenodd" clip-rule="evenodd" d="M509.6 685.176H395.163L386.21 705.893H446.994L379.142 800.756H499.642L508.595 780.007H441.717L509.6 685.176Z" fill="white"/>
<path fill-rule="evenodd" clip-rule="evenodd" d="M360.173 800.749V705.761L315.849 706.609V738.565H256.196L257.798 735.991C262.478 728.677 268.572 721.174 276.363 716.623C291.818 707.676 314.09 705.918 331.775 705.918L360.141 705.636L359.796 685.169H335.136C317.577 685.169 298.603 685.514 281.2 688.183C265.368 690.6 249.253 695.183 235.714 703.595C225.254 710.125 217.212 718.726 212.406 729.744C208.259 739.381 206.909 750.179 206.909 760.507C206.909 771.117 209.736 781.193 214.605 790.704L220.762 800.844L268.321 800.875C263.766 795.821 261.19 792.337 257.986 786.435C254.405 779.812 252.426 772.686 252.426 765.247L315.849 765.215V800.749H360.173Z" fill="white"/>
<path fill-rule="evenodd" clip-rule="evenodd" d="M184.581 685.176H135.765L92.2898 736.876L141.922 800.756H194.288L140.729 735.589L184.581 685.176Z" fill="white"/>
<path fill-rule="evenodd" clip-rule="evenodd" d="M92 685.156H47.676V800.738H92V685.156Z" fill="white"/>
<path fill-rule="evenodd" clip-rule="evenodd" d="M315.881 704.307H360.204V708.23H315.881V704.307Z" fill="white"/>
</svg>
