<svg width="842" height="628" viewBox="0 0 842 628" fill="none" xmlns="http://www.w3.org/2000/svg">
<path fill-rule="evenodd" clip-rule="evenodd" d="M61.4641 256.42H18.1051C21.6675 337.055 97.0639 407.686 208.597 447.82C121.635 404.295 64.2457 334.81 61.4641 256.42ZM823.894 256.42H780.535C777.729 334.81 720.364 404.27 633.403 447.82C744.935 407.686 820.307 337.055 823.894 256.42ZM780.535 244.441H823.894C820.307 163.782 744.935 93.1512 633.403 53.017C720.364 96.5425 777.753 166.027 780.535 244.441ZM18.1051 244.441H61.4641C64.2457 166.027 121.635 96.5425 208.597 53.017C97.0639 93.1268 21.6675 163.782 18.1051 244.441ZM421 5.53916C649.824 5.53916 836.46 115.548 836.46 250.419C836.46 385.289 649.824 495.322 421 495.322C192.175 495.322 5.53906 385.289 5.53906 250.419C5.53906 115.548 192.175 5.53916 421 5.53916ZM312.126 471.169C176.511 441.062 77.4706 356.426 73.6642 256.42H169.313C171.655 350.864 229.459 432.352 312.126 471.169ZM768.335 256.42C764.529 356.426 665.489 441.062 529.848 471.169C612.516 432.352 670.344 350.864 672.687 256.42H768.335ZM169.313 244.441H73.6642C77.4706 144.411 176.511 59.7508 312.151 29.6685C229.459 68.4852 171.655 149.973 169.313 244.441ZM529.848 29.6685C665.489 59.7508 764.529 144.411 768.335 244.441H672.687C670.344 149.973 612.516 68.4852 529.848 29.6685ZM368.369 477.195C263.692 454.188 184.611 364.234 181.805 256.42H281.382C282.749 356.109 318.397 441.33 368.369 477.195ZM660.194 256.42C657.363 364.234 578.307 454.188 473.631 477.195C523.578 441.33 559.226 356.109 560.617 256.42H660.194ZM281.382 244.441H181.805C184.611 136.603 263.692 46.6004 368.369 23.6422C318.422 59.5068 282.749 144.728 281.382 244.441ZM473.631 23.6422C578.307 46.6004 657.363 136.603 660.194 244.441H560.617C559.226 144.752 523.578 59.5068 473.631 23.6422ZM426.978 256.42L426.953 482.611C493.297 477 546.66 378.067 548.368 256.42H426.978ZM426.978 18.226V244.441H548.368C546.66 122.77 493.297 23.8862 426.978 18.226ZM415.022 244.441V18.226C348.702 23.8618 295.339 122.77 293.631 244.441H415.022ZM414.997 482.611L415.022 256.42H293.631C295.339 378.043 348.678 476.975 414.997 482.611Z" fill="#0071BC"/>
<path fill-rule="evenodd" clip-rule="evenodd" d="M148.77 126.073C157.212 126.073 166.216 126.659 168.412 127.781C170.632 128.952 172.072 129.025 175.707 135.515L177.635 141.151C191.982 201.803 208.672 275.875 223.019 336.527C226.313 346.652 227.777 347.921 230.363 351.239C235.732 355.313 242.49 355.313 247.37 355.313H592.071C596.804 354.996 605.808 352.532 609.883 349.726C613.006 346.896 616.178 342.773 617.666 336.503C632.014 275.899 650.436 201.877 664.759 141.248C665.173 139.54 665.71 137.442 666.467 135.93C667.711 133.539 670.883 128.635 674.909 127.171C678.959 126.244 691.672 126.195 693.209 126.073C693.209 211.026 692.989 290.44 692.989 375.393C691.867 382.883 686.133 391.08 681.448 393.398C672.42 397.79 663.978 400.156 652.144 401.401C498.545 401.523 344.971 401.669 191.372 401.791C177.61 400.913 165.654 397.57 157.846 393.837C153.43 391.642 149.136 383.395 148.77 375.661L148.77 126.073Z" fill="white"/>
<path fill-rule="evenodd" clip-rule="evenodd" d="M192.926 106.793H648.012C631.908 173.057 617.17 249.519 601.066 315.759C599.407 320.028 597.943 322.81 595.088 326.884C592.404 330.373 587.451 333.203 582.791 333.203H255.024C249.851 332.398 249.022 333.032 244.093 329.007C239.335 324.42 238.042 321.443 236.651 315.564L192.926 106.793Z" fill="white"/>
<path fill-rule="evenodd" clip-rule="evenodd" d="M148.77 126.073C157.212 126.073 166.216 126.659 168.412 127.781C170.632 128.952 172.072 129.025 175.707 135.515L177.635 141.151C191.982 201.803 208.672 275.875 223.019 336.527C226.313 346.652 227.777 347.921 230.363 351.239C235.732 355.313 242.49 355.313 247.37 355.313H592.071C596.804 354.996 605.808 352.532 609.883 349.726C613.006 346.896 616.178 342.773 617.666 336.503C632.014 275.899 650.436 201.877 664.759 141.248C665.173 139.54 665.71 137.442 666.467 135.93C667.711 133.539 670.883 128.635 674.909 127.171C678.959 126.244 691.672 126.195 693.209 126.073C693.209 211.026 692.989 290.44 692.989 375.393C691.867 382.883 686.133 391.08 681.448 393.398C672.42 397.79 663.978 400.156 652.144 401.401C498.545 401.523 344.971 401.669 191.372 401.791C177.61 400.913 165.654 397.57 157.846 393.837C153.43 391.642 149.136 383.395 148.77 375.661L148.77 126.073Z" fill="white"/>
<path fill-rule="evenodd" clip-rule="evenodd" d="M192.926 106.793H648.012C631.908 173.057 617.17 249.519 601.066 315.759C599.407 320.028 597.943 322.81 595.088 326.884C592.404 330.373 587.451 333.203 582.791 333.203H255.024C249.851 332.398 249.022 333.032 244.093 329.007C239.335 324.42 238.042 321.443 236.651 315.564L192.926 106.793Z" fill="white"/>
<path fill-rule="evenodd" clip-rule="evenodd" d="M797.98 622.363L804.959 606.212C790.075 605.895 773.824 603.699 760.892 596.77C749.644 590.744 742.47 581.839 742.47 569.274C742.47 562.613 745.105 557.075 751.083 553.489C757.867 549.39 768.115 548.658 775.971 548.658H803.007L795.882 532.531H766.504C751.523 532.531 733.491 534.678 721.754 544.437C713.898 550.927 710.652 559.442 710.652 569.274C710.652 585.864 718.143 598.527 732.49 607.847C749.888 619.143 772.092 622.363 792.759 622.363H797.98Z" fill="white"/>
<path fill-rule="evenodd" clip-rule="evenodd" d="M694.248 622.363V532.531H659.843V567.517L611.678 532.531H577.322V622.363H611.775L612.263 559.393L659.843 595.721V622.363H694.248Z" fill="white"/>
<path fill-rule="evenodd" clip-rule="evenodd" d="M557.047 532.521H522.643V622.354H557.047V532.521Z" fill="white"/>
<path fill-rule="evenodd" clip-rule="evenodd" d="M507.634 532.539H418.745L411.815 548.641H459.005L406.301 622.371H499.924L506.854 606.244H454.93L507.634 532.539Z" fill="white"/>
<path fill-rule="evenodd" clip-rule="evenodd" d="M395.834 532.539H306.944L299.99 548.641H347.204L294.5 622.371H388.099L395.053 606.244H343.105L395.834 532.539Z" fill="white"/>
<path fill-rule="evenodd" clip-rule="evenodd" d="M279.765 622.365V548.538L245.336 549.197V574.034H199.001L200.245 572.033C203.881 566.348 208.614 560.517 214.665 556.98C226.67 550.026 243.97 548.66 257.707 548.66L279.741 548.44L279.472 532.533H260.318C246.678 532.533 231.941 532.801 218.423 534.875C206.125 536.754 193.608 540.316 183.092 546.855C174.966 551.929 168.72 558.614 164.987 567.178C161.766 574.668 160.717 583.061 160.717 591.087C160.717 599.334 162.913 607.166 166.695 614.558L171.477 622.438L208.419 622.463C204.881 618.535 202.88 615.827 200.391 611.24C197.61 606.092 196.073 600.554 196.073 594.772L245.336 594.747V622.365H279.765Z" fill="white"/>
<path fill-rule="evenodd" clip-rule="evenodd" d="M143.373 532.539H105.455L71.6855 572.722L110.238 622.371H150.913L109.311 571.722L143.373 532.539Z" fill="white"/>
<path fill-rule="evenodd" clip-rule="evenodd" d="M71.4601 532.521H37.0312V622.354H71.4601V532.521Z" fill="white"/>
<path fill-rule="evenodd" clip-rule="evenodd" d="M245.361 547.406H279.79V550.456H245.361V547.406Z" fill="white"/>
</svg>
