<svg width="929" height="265" viewBox="0 0 929 265" fill="none" xmlns="http://www.w3.org/2000/svg">
<path d="M530.126 170.585H566.753V133.798L436.864 4.00586H400.152V40.6918L446.725 87.2535L400.152 133.798V170.585H436.763L483.453 123.939L530.126 170.585Z" fill="white"/>
<path d="M567.592 47.3656L533.43 81.5197L489.223 37.3221L523.385 3.16797" fill="url(#paint0_linear_788_288)"/>
<path d="M523.385 3.16797H567.609V47.3823H523.385V3.16797Z" fill="white"/>
<path d="M707.93 137.17L724.063 170.586H758.913V133.699L701.104 7.94715L699.427 3.99023H652.469L650.792 7.91369L592.346 133.665V170.553H626.558L642.574 137.136L707.93 137.17ZM675.68 50.116L696.727 100.098H654.548L675.68 50.116Z" fill="white"/>
<path d="M323.611 137.169L339.745 170.585H374.611V133.698L316.786 7.96287L315.109 4.00586H268.151L266.473 7.92932L208.027 133.681V170.568H242.256L259.027 137.152L323.611 137.169ZM291.294 50.1149L312.358 100.097H270.23L291.294 50.1149Z" fill="white"/>
<path d="M843.923 109.503L844.375 110.04L894.285 170.115H925.11V139.365L894.251 103.769L898.193 101.857C904.739 98.6729 910.509 94.0946 915.097 88.444C922.208 79.7587 925.831 68.81 925.831 55.933C925.831 39.2667 920.296 26.2556 909.379 17.2685C898.729 8.44915 884.591 4.00586 867.267 4.00586H786.365V170.585H827.789V108.363H842.966L843.923 109.503ZM827.789 70.8385V40.8928H869.599C873.482 41.0226 877.163 42.6561 879.864 45.4483C882.565 48.2405 884.075 51.9728 884.075 55.8573C884.075 59.7417 882.565 63.4741 879.864 66.2664C877.163 69.0586 873.482 70.692 869.599 70.8218H827.789V70.8385Z" fill="white"/>
<path d="M139.116 170.585H180.473L180.454 4.00586H136.028L133.126 8.39878L91.8201 75.4999L50.4634 8.34849L47.6124 4.00586H3.16992L3.18893 170.585H44.5456V84.0342L75.2696 137.169H108.409L139.116 84.0342V170.585Z" fill="white"/>
<path d="M242.675 229.269H231.79L231.203 229.839V260.606L230.633 261.177H221.342L220.755 260.606V229.839L220.184 229.269H208.579L207.992 228.682V221.137L208.579 220.566H242.674L243.261 221.137V228.682L242.675 229.269Z" fill="white"/>
<path d="M286.598 261.176H257.048L256.461 260.606V221.137L257.048 220.566H286.598L287.185 221.137V228.682L286.598 229.269H267.496L266.909 229.839V235.64L267.496 236.227H285.491L286.062 236.814V244.359L285.491 244.929H267.496L266.909 245.516V251.904L267.496 252.475H286.598L287.185 253.062V260.607L286.598 261.176Z" fill="white"/>
<path d="M298.924 240.872C298.924 226.939 308.198 219.98 319.233 219.98C329.681 219.98 336.004 225.195 337.815 232.74L337.228 233.327H327.535L326.78 232.74C325.623 230.426 323.879 228.682 319.233 228.682C314.001 228.682 309.372 231.583 309.372 240.872C309.372 250.161 314.001 253.062 319.233 253.062C323.879 253.062 325.623 251.385 326.78 248.417L327.535 247.83H337.228L337.815 248.417C336.138 256.532 329.681 261.831 319.233 261.831C308.198 261.764 298.924 254.805 298.924 240.872Z" fill="white"/>
<path d="M386.502 261.176H377.16L376.59 260.606V245.516L376.003 244.929H362.586L361.999 245.516V260.606L361.429 261.176H352.138L351.551 260.606V221.137L352.138 220.566H361.429L361.999 221.137V235.64L362.586 236.227H376.003L376.59 235.64V221.137L377.16 220.566H386.451L387.038 221.137V260.606L386.502 261.176Z" fill="white"/>
<path d="M405.083 220.568H414.944L416.101 221.139L430.038 243.187H430.625V221.139L431.195 220.568H440.486L441.073 221.139V260.608L440.486 261.178H430.625L429.451 260.608L415.531 238.559H414.944V260.608L414.374 261.178H405.083L404.496 260.608V221.139L405.083 220.568Z" fill="white"/>
<path d="M474.531 219.98C486.707 219.98 494.841 227.526 494.841 240.872C494.841 254.218 486.707 261.764 474.531 261.764C462.356 261.764 454.205 254.218 454.205 240.872C454.205 227.526 462.339 219.98 474.531 219.98ZM474.531 253.062C480.904 253.062 484.392 249.004 484.392 240.872C484.392 232.74 480.904 228.682 474.531 228.682C468.158 228.682 464.653 232.74 464.653 240.872C464.653 249.004 468.142 252.995 474.531 252.995V253.062Z" fill="white"/>
<path d="M535.911 261.176H508.625L508.055 260.606V221.137L508.625 220.566H517.916L518.503 221.137V251.904L519.074 252.474H535.844L536.431 253.061V260.606L535.911 261.176Z" fill="white"/>
<path d="M565.529 219.98C577.705 219.98 585.839 227.526 585.839 240.872C585.839 254.218 577.705 261.764 565.529 261.764C553.354 261.764 545.203 254.218 545.203 240.872C545.203 227.526 553.337 219.98 565.529 219.98ZM565.529 253.062C571.902 253.062 575.391 249.004 575.391 240.872C575.391 232.74 571.902 228.682 565.529 228.682C559.156 228.682 555.651 232.74 555.651 240.872C555.651 249.004 559.14 252.995 565.529 252.995V253.062Z" fill="white"/>
<path d="M607.171 240.872C607.171 250.731 611.816 253.062 617.619 253.062C623.422 253.062 625.753 249.574 625.753 246.674L625.166 246.103H615.892L615.305 245.516V238.558L615.892 237.971H635.614L636.201 238.558V260.607L635.614 261.177H628.067L627.497 260.607L626.91 258.276H626.34C625.016 259.496 623.457 260.435 621.759 261.035C620.061 261.634 618.259 261.882 616.462 261.764C604.856 261.764 596.723 254.218 596.723 240.872C596.723 227.526 604.856 219.98 617.619 219.98C628.067 219.98 634.39 225.195 636.201 232.74L635.614 233.327H625.921L625.166 232.74C624.009 230.426 622.265 228.683 617.619 228.683C611.246 228.683 607.171 231.583 607.171 240.872Z" fill="white"/>
<path d="M662.027 261.176H652.753L652.166 260.606V221.137L652.753 220.566H662.027L662.614 221.137V260.606L662.027 261.176Z" fill="white"/>
<path d="M709.791 261.176H680.174L679.604 260.606V221.137L680.174 220.566H709.791L710.362 221.137V228.682L709.791 229.269H690.622L690.052 229.839V235.64L690.622 236.227H708.617L709.204 236.814V244.359L708.617 244.929H690.622L690.052 245.516V251.904L690.622 252.475H709.791L710.362 253.062V260.607L709.791 261.176Z" fill="white"/>
<path d="M742.661 245.517L738.586 244.93C726.411 243.254 724.079 237.385 724.079 231.517C724.079 225.128 729.312 219.914 740.85 219.914C751.298 219.914 757.621 223.972 757.621 232.104L757.034 232.674H747.743L747.173 232.104C747.173 229.773 745.496 228.029 740.783 228.029C736.07 228.029 733.823 229.203 733.823 231.517C733.823 233.831 736.138 234.417 740.196 235.004L744.255 235.575C756.447 237.251 758.778 242.55 758.778 248.988C758.778 255.427 754.133 261.748 741.353 261.748C729.748 261.748 723.375 257.103 723.375 248.334L723.945 247.747H733.237L733.824 248.334C733.824 251.822 736.138 253.549 741.354 253.549C745.999 253.549 748.9 252.392 748.9 249.491C748.9 246.59 746.72 246.104 742.661 245.517Z" fill="white"/>
<defs>
<linearGradient id="paint0_linear_788_288" x1="593.62" y1="-25.3358" x2="490.79" y2="81.4426" gradientUnits="userSpaceOnUse">
<stop offset="0.27" stop-color="#808080"/>
<stop offset="0.37" stop-color="#848484" stop-opacity="0.97"/>
<stop offset="0.47" stop-color="#8F8F8F" stop-opacity="0.88"/>
<stop offset="0.56" stop-color="#A2A2A2" stop-opacity="0.73"/>
<stop offset="0.65" stop-color="#BDBDBD" stop-opacity="0.52"/>
<stop offset="0.74" stop-color="#DFDFDF" stop-opacity="0.25"/>
<stop offset="0.81" stop-color="white" stop-opacity="0"/>
</linearGradient>
</defs>
</svg>
