<svg width="1308" height="373" viewBox="0 0 1308 373" fill="none" xmlns="http://www.w3.org/2000/svg">
<path d="M746.397 240.107H797.967V188.328L615.088 5.63867H563.399V57.2759L628.972 122.814L563.399 188.328V240.107H614.946L680.683 174.451L746.397 240.107Z" fill="white"/>
<path d="M799.149 66.6692L751.05 114.743L688.807 52.5325L736.906 4.45898" fill="url(#paint0_linear_859_30)"/>
<path d="M736.905 4.45898H799.172V66.6927H736.905V4.45898Z" fill="white"/>
<path d="M996.739 193.072L1019.45 240.107H1068.52V188.186L987.129 11.1848L984.768 5.61523H918.652L916.291 11.1377L834.001 188.139V240.06H882.171L904.721 193.024L996.739 193.072ZM951.332 70.5394L980.966 140.892H921.58L951.332 70.5394Z" fill="white"/>
<path d="M455.632 193.072L478.347 240.107H527.438V188.186L446.022 11.2084L443.66 5.63867H377.545L375.184 11.1611L292.894 188.163V240.083H341.087L364.7 193.048L455.632 193.072ZM410.13 70.5393L439.788 140.891H380.473L410.13 70.5393Z" fill="white"/>
<path d="M1188.21 154.131L1188.85 154.886L1259.12 239.446H1302.52V196.163L1259.07 146.06L1264.62 143.369C1273.84 138.887 1281.96 132.443 1288.43 124.489C1298.44 112.264 1303.54 96.8535 1303.54 78.7286C1303.54 55.2699 1295.75 36.9562 1280.37 24.3065C1265.38 11.8928 1245.47 5.63867 1221.08 5.63867H1107.17V240.107H1165.5V152.526H1186.87L1188.21 154.131ZM1165.5 99.7088V57.5588H1224.36C1229.83 57.7415 1235.01 60.0407 1238.82 63.9709C1242.62 67.901 1244.75 73.1545 1244.75 78.622C1244.75 84.0895 1242.62 89.3431 1238.82 93.2733C1235.01 97.2034 1229.83 99.5026 1224.36 99.6853H1165.5V99.7088Z" fill="white"/>
<path d="M195.869 240.107H254.098L254.071 5.63867H191.521L187.436 11.8219L129.278 106.27L71.0496 11.7511L67.0354 5.63867H4.46191L4.48867 240.107H62.7174V118.282L105.976 193.072H152.634L195.869 118.282V240.107Z" fill="white"/>
<path d="M341.677 322.708H326.353L325.526 323.511V366.817L324.723 367.62H311.642L310.815 366.817V323.511L310.012 322.708H293.672L292.846 321.882V311.262L293.672 310.459H341.677L342.503 311.262V321.882L341.677 322.708Z" fill="white"/>
<path d="M403.519 367.619H361.913L361.087 366.817V311.262L361.913 310.459H403.519L404.345 311.262V321.882L403.519 322.708H376.624L375.798 323.511V331.676L376.624 332.502H401.96L402.764 333.328V343.948L401.96 344.751H376.624L375.798 345.577V354.569L376.624 355.372H403.519L404.345 356.198V366.818L403.519 367.619Z" fill="white"/>
<path d="M420.874 339.039C420.874 319.427 433.932 309.633 449.469 309.633C464.18 309.633 473.082 316.973 475.632 327.593L474.805 328.419H461.157L460.095 327.593C458.465 324.336 456.01 321.881 449.469 321.881C442.102 321.881 435.585 325.964 435.585 339.039C435.585 352.113 442.102 356.196 449.469 356.196C456.01 356.196 458.465 353.836 460.095 349.659L461.157 348.833H474.805L475.632 349.659C473.27 361.081 464.18 368.539 449.469 368.539C433.932 368.444 420.874 358.65 420.874 339.039Z" fill="white"/>
<path d="M544.179 367.619H531.027L530.224 366.817V345.576L529.397 344.75H510.507L509.681 345.576V366.817L508.877 367.619H495.796L494.97 366.817V311.262L495.796 310.459H508.877L509.681 311.262V331.676L510.507 332.502H529.397L530.224 331.676V311.262L531.027 310.459H544.108L544.935 311.262V366.817L544.179 367.619Z" fill="white"/>
<path d="M570.342 310.459H584.226L585.856 311.262L605.478 342.296H606.304V311.262L607.107 310.459H620.189L621.015 311.262V366.817L620.189 367.619H606.304L604.651 366.817L585.053 335.782H584.227V366.817L583.423 367.619H570.342L569.516 366.817V311.262L570.342 310.459Z" fill="white"/>
<path d="M668.121 309.633C685.264 309.633 696.716 320.253 696.716 339.039C696.716 357.824 685.264 368.444 668.121 368.444C650.979 368.444 639.503 357.824 639.503 339.039C639.503 320.253 650.955 309.633 668.121 309.633ZM668.121 356.196C677.094 356.196 682.006 350.485 682.006 339.039C682.006 327.593 677.094 321.881 668.121 321.881C659.149 321.881 654.214 327.593 654.214 339.039C654.214 350.485 659.125 356.102 668.121 356.102V356.196Z" fill="white"/>
<path d="M754.544 367.619H716.126L715.323 366.817V311.262L716.126 310.459H729.208L730.034 311.262V354.568L730.837 355.371H754.45L755.277 356.197V366.817L754.544 367.619Z" fill="white"/>
<path d="M796.244 309.633C813.386 309.633 824.838 320.253 824.838 339.039C824.838 357.824 813.386 368.444 796.244 368.444C779.101 368.444 767.625 357.824 767.625 339.039C767.625 320.253 779.077 309.633 796.244 309.633ZM796.244 356.196C805.216 356.196 810.128 350.485 810.128 339.039C810.128 327.593 805.216 321.881 796.244 321.881C787.271 321.881 782.336 327.593 782.336 339.039C782.336 350.485 787.247 356.102 796.244 356.102V356.196Z" fill="white"/>
<path d="M854.875 339.039C854.875 352.916 861.415 356.196 869.585 356.196C877.755 356.196 881.037 351.288 881.037 347.205L880.211 346.402H867.153L866.327 345.576V335.782L867.153 334.956H894.922L895.748 335.782V366.816L894.922 367.619H884.296L883.494 366.816L882.667 363.536H881.864C880 365.253 877.806 366.575 875.415 367.418C873.024 368.262 870.486 368.611 867.956 368.445C851.616 368.445 840.164 357.824 840.164 339.039C840.164 320.253 851.616 309.633 869.585 309.633C884.296 309.633 893.198 316.973 895.748 327.593L894.922 328.419H881.274L880.211 327.593C878.582 324.336 876.126 321.881 869.585 321.881C860.613 321.881 854.875 325.964 854.875 339.039Z" fill="white"/>
<path d="M932.111 367.619H919.053L918.227 366.817V311.262L919.053 310.459H932.111L932.937 311.262V366.817L932.111 367.619Z" fill="white"/>
<path d="M999.361 367.619H957.661L956.857 366.817V311.262L957.661 310.459H999.361L1000.16 311.262V321.882L999.361 322.708H972.371L971.568 323.511V331.676L972.371 332.502H997.708L998.534 333.328V343.948L997.708 344.751H972.371L971.568 345.577V354.569L972.371 355.372H999.361L1000.16 356.198V366.818L999.361 367.619Z" fill="white"/>
<path d="M1045.64 345.576L1039.9 344.75C1022.76 342.39 1019.48 334.13 1019.48 325.87C1019.48 316.879 1026.85 309.539 1043.09 309.539C1057.8 309.539 1066.7 315.25 1066.7 326.696L1065.88 327.499H1052.8L1051.99 326.696C1051.99 323.416 1049.63 320.962 1043 320.962C1036.36 320.962 1033.2 322.613 1033.2 325.87C1033.2 329.127 1036.46 329.953 1042.17 330.779L1047.88 331.582C1065.05 333.942 1068.33 341.4 1068.33 350.462C1068.33 359.525 1061.79 368.422 1043.8 368.422C1027.46 368.422 1018.49 361.885 1018.49 349.542L1019.29 348.716H1032.37L1033.2 349.542C1033.2 354.451 1036.46 356.881 1043.8 356.881C1050.34 356.881 1054.43 355.253 1054.43 351.17C1054.43 347.087 1051.36 346.403 1045.64 345.576Z" fill="white"/>
<defs>
<linearGradient id="paint0_linear_859_30" x1="835.795" y1="-35.6615" x2="691.058" y2="114.677" gradientUnits="userSpaceOnUse">
<stop offset="0.27" stop-color="#808080"/>
<stop offset="0.37" stop-color="#848484" stop-opacity="0.97"/>
<stop offset="0.47" stop-color="#8F8F8F" stop-opacity="0.88"/>
<stop offset="0.56" stop-color="#A2A2A2" stop-opacity="0.73"/>
<stop offset="0.65" stop-color="#BDBDBD" stop-opacity="0.52"/>
<stop offset="0.74" stop-color="#DFDFDF" stop-opacity="0.25"/>
<stop offset="0.81" stop-color="white" stop-opacity="0"/>
</linearGradient>
</defs>
</svg>
