<svg width="1194" height="258" viewBox="0 0 1194 258" fill="none" xmlns="http://www.w3.org/2000/svg">
<path d="M387.695 71.2734C340.997 71.2734 306.672 105.303 306.672 151.658C306.672 197.986 340.988 232.024 387.695 232.024C434.401 232.024 468.736 197.986 468.736 151.658C468.727 105.303 434.401 71.2734 387.695 71.2734ZM398.519 213.186C374.846 217.408 356.563 195.147 349.932 158.072C343.373 121.482 353.207 93.6873 376.385 89.5639C400.057 85.3416 418.43 108.088 424.981 144.678C431.63 181.744 422.191 208.964 398.519 213.186Z" fill="white"/>
<path d="M1102.29 71.2734C1055.58 71.2734 1021.25 105.303 1021.25 151.658C1021.25 197.986 1055.57 232.024 1102.29 232.024C1148.98 232.024 1183.31 197.986 1183.31 151.658C1183.31 105.303 1148.99 71.2734 1102.29 71.2734ZM1113.1 213.186C1089.44 217.408 1071.17 195.147 1064.53 158.072C1057.97 121.482 1067.8 93.6873 1090.97 89.5639C1114.65 85.3416 1133.02 108.088 1139.57 144.678C1146.21 181.744 1136.79 208.964 1113.1 213.186Z" fill="white"/>
<path d="M855.676 111.635C857.485 116.612 858.285 122.82 858.285 130.375C858.285 142.17 858.285 207.624 858.285 228.834H917.327C917.327 228.834 917.327 219.276 917.327 217.991C908.897 217.991 898.226 213.868 898.226 194.598C898.226 190.753 898.226 149.734 898.226 120.834C898.226 80.4624 865.169 71.1465 847.506 71.1465C819.11 71.1465 803.724 87.9367 798.578 98.4204C798.578 98.4204 798.029 78.4501 798.029 74.7309H741.191V85.4033C749.415 85.4033 760.302 89.5088 760.302 108.59C760.302 120.385 760.302 173.487 760.302 194.706C760.302 213.778 749.388 217.991 741.191 217.991C741.191 219.833 741.191 228.834 741.191 228.834H819.344C819.344 228.834 819.344 219.276 819.344 217.991C810.913 217.991 800.233 213.868 800.233 194.598C800.233 191.13 800.233 164.818 800.233 138.846C800.233 127.886 801.907 119.056 805.47 112.291C811.516 100.837 822.502 95.2942 831.716 95.2942C842.819 95.2942 851.519 100.253 855.676 111.635Z" fill="white"/>
<path d="M1003.51 228.835C1003.51 228.835 1003.51 219.277 1003.51 217.992C995.066 217.992 984.395 213.869 984.395 194.599C984.395 190.754 984.422 91.0908 984.422 91.0908H1006.69V74.9205H984.422V39.8398C984.422 39.8398 966.993 39.8398 963.61 39.8398C963.61 63.17 941.674 80.1399 923.949 80.1399V90.9381L944.464 91.0189C944.464 102.814 944.464 174.081 944.464 195.3C944.464 219.259 953.587 228.835 979.779 228.835C990.846 228.835 1003.51 228.835 1003.51 228.835Z" fill="white"/>
<path d="M591.544 30.4335C591.544 30.4335 591.544 185.121 591.544 192.882C591.544 212.161 602.233 216.275 610.646 216.275C610.646 217.578 610.646 228.834 610.646 228.834H530.478C530.478 228.834 530.478 217.003 530.478 216.275C538.701 216.275 549.588 212.17 549.588 192.855C549.588 158.997 549.588 38.6264 549.588 30.3885C545.252 30.3975 538.53 30.3885 530.019 30.3885C506.742 30.3885 498.185 36.3716 498.185 53.9433C495.882 53.9433 484.41 53.9433 484.41 53.9433L484.419 8.51367H654.986L654.959 53.9343H641.84C641.84 36.1021 633.563 30.4155 610.286 30.4155C603.421 30.4155 591.544 30.4335 591.544 30.4335Z" fill="white"/>
<path d="M71.1433 30.3706C71.1433 42.7768 71.1433 52.8204 71.1433 79.3217V130.043C71.1433 162.904 71.1433 189.675 71.1433 192.909C71.1433 212.17 81.8324 216.293 90.2541 216.293C90.2541 217.587 90.2541 228.843 90.2541 228.843H10.0859C10.0859 228.843 10.0859 217.012 10.0859 216.293C18.3187 216.293 29.1967 212.188 29.1967 192.864C29.1967 180.458 29.1967 158.143 29.1967 131.633V80.9028C29.1967 48.0322 29.1967 47.6728 29.1967 44.4567C29.1967 25.1961 18.5076 21.0726 10.0859 21.0726C10.0859 19.788 10.0859 8.51367 10.0859 8.51367H109.815C170.719 8.51367 185.016 40.6657 185.016 65.8016C185.016 94.3332 164.538 113.396 135.989 118.652C166.283 120.574 183.973 197.733 206.053 226.05C209.013 229.859 216.724 236.767 225.073 236.767C225.244 236.776 225.856 236.776 226.027 236.776C226.027 239.237 226.027 249.487 226.027 249.487H202.364C184.971 249.487 167.345 241.834 159.535 231.26C133.577 196.08 123.59 123.619 91.9636 121.329C91.4508 121.293 89.6692 121.275 89.1474 121.275C89.1474 117.924 89.1474 108.114 89.1474 108.114C89.6333 108.114 91.3968 108.105 91.8646 108.096C131.175 107.548 138.265 86.6074 138.265 69.0895C138.265 48.8317 130.995 30.3167 95.1308 30.3167C89.4353 30.3167 71.1433 30.3706 71.1433 30.3706Z" fill="white"/>
<path d="M709.835 41.3834C709.835 51.5438 700.162 59.7726 688.223 59.7726C676.292 59.7726 666.602 51.5438 666.602 41.3834C666.602 31.232 676.292 22.9941 688.223 22.9941C700.162 22.9941 709.835 31.232 709.835 41.3834Z" fill="white"/>
<path d="M729.25 228.834C729.25 228.834 729.25 219.275 729.25 217.991C720.82 217.991 710.149 213.867 710.149 194.598C710.149 186.836 710.149 74.7305 710.149 74.7305H651.098V85.4029C659.33 85.4029 670.208 89.5084 670.208 108.589C670.208 116.827 670.208 160.703 670.208 194.562C670.208 213.885 659.321 217.991 651.098 217.991C651.098 218.709 651.098 228.834 651.098 228.834H729.25Z" fill="white"/>
<path d="M230.769 228.834C230.769 207.624 230.769 120.385 230.769 108.589C230.769 89.5084 219.891 85.4029 211.658 85.4029V74.7305H270.7C270.7 74.7305 270.7 186.836 270.7 194.598C270.7 213.876 281.389 217.991 289.811 217.991C289.811 219.275 289.811 228.834 289.811 228.834H230.769Z" fill="white"/>
<path d="M271.122 41.3834C271.122 51.5438 261.441 59.7726 249.501 59.7726C237.57 59.7726 227.889 51.5438 227.889 41.3834C227.889 31.232 237.57 22.9941 249.501 22.9941C261.441 22.9941 271.122 31.232 271.122 41.3834Z" fill="white"/>
</svg>
