<svg width="1330" height="287" viewBox="0 0 1330 287" fill="none" xmlns="http://www.w3.org/2000/svg">
<path d="M431.854 79.2832C379.838 79.2832 341.603 117.138 341.603 168.703C341.603 220.239 379.828 258.103 431.854 258.103C483.88 258.103 522.126 220.239 522.126 168.703C522.116 117.138 483.88 79.2832 431.854 79.2832ZM443.911 237.147C417.542 241.844 397.177 217.081 389.79 175.838C382.484 135.136 393.438 104.216 419.256 99.6295C445.625 94.9327 466.091 120.236 473.387 160.938C480.794 202.171 470.28 232.45 443.911 237.147Z" fill="white"/>
<path d="M1227.84 79.2832C1175.82 79.2832 1137.57 117.138 1137.57 168.703C1137.57 220.239 1175.81 258.103 1227.84 258.103C1279.85 258.103 1318.09 220.239 1318.09 168.703C1318.09 117.138 1279.86 79.2832 1227.84 79.2832ZM1239.89 237.147C1213.53 241.844 1193.18 217.081 1185.78 175.838C1178.47 135.136 1189.43 104.216 1215.23 99.6295C1241.61 94.9327 1262.08 120.236 1269.38 160.938C1276.76 202.171 1266.27 232.45 1239.89 237.147Z" fill="white"/>
<path d="M953.139 124.184C955.153 129.721 956.045 136.626 956.045 145.03C956.045 158.151 956.045 230.963 956.045 254.557H1021.81C1021.81 254.557 1021.81 243.924 1021.81 242.495C1012.42 242.495 1000.53 237.908 1000.53 216.472C1000.53 212.195 1000.53 166.566 1000.53 134.417C1000.53 89.5076 963.712 79.1445 944.038 79.1445C912.408 79.1445 895.269 97.822 889.537 109.484C889.537 109.484 888.925 87.2691 888.925 83.1319H825.614V95.0039C834.774 95.0039 846.901 99.5708 846.901 120.797C846.901 133.918 846.901 192.988 846.901 216.592C846.901 237.808 834.744 242.495 825.614 242.495C825.614 244.543 825.614 254.557 825.614 254.557H912.668C912.668 254.557 912.668 243.924 912.668 242.495C903.277 242.495 891.381 237.908 891.381 216.472C891.381 212.615 891.381 183.345 891.381 154.454C891.381 142.262 893.245 132.439 897.214 124.914C903.949 112.172 916.186 106.006 926.449 106.006C938.817 106.006 948.508 111.523 953.139 124.184Z" fill="white"/>
<path d="M1117.81 254.555C1117.81 254.555 1117.81 243.922 1117.81 242.493C1108.41 242.493 1096.52 237.906 1096.52 216.471C1096.52 212.194 1096.55 101.328 1096.55 101.328H1121.35V83.3402H1096.55V44.3164C1096.55 44.3164 1077.14 44.3164 1073.37 44.3164C1073.37 70.269 1048.93 89.1463 1029.19 89.1463V101.158L1052.04 101.248C1052.04 114.369 1052.04 193.646 1052.04 217.25C1052.04 243.902 1062.2 254.555 1091.38 254.555C1103.71 254.555 1117.81 254.555 1117.81 254.555Z" fill="white"/>
<path d="M658.922 33.8543C658.922 33.8543 658.922 205.929 658.922 214.563C658.922 236.009 670.828 240.586 680.199 240.586C680.199 242.035 680.199 254.556 680.199 254.556H590.9C590.9 254.556 590.9 241.395 590.9 240.586C600.06 240.586 612.187 236.019 612.187 214.533C612.187 176.868 612.187 42.9682 612.187 33.8044C607.356 33.8144 599.87 33.8044 590.388 33.8044C564.461 33.8044 554.929 40.4599 554.929 60.0068C552.364 60.0068 539.585 60.0068 539.585 60.0068L539.595 9.4707H729.59L729.559 59.9968H714.947C714.947 40.1601 705.726 33.8343 679.798 33.8343C672.151 33.8343 658.922 33.8543 658.922 33.8543Z" fill="white"/>
<path d="M79.2463 33.7844C79.2463 47.5851 79.2463 58.7576 79.2463 88.2378V144.66C79.2463 181.215 79.2463 210.995 79.2463 214.593C79.2463 236.019 91.1529 240.606 100.534 240.606C100.534 242.045 100.534 254.566 100.534 254.566H11.2344C11.2344 254.566 11.2344 241.405 11.2344 240.606C20.4049 240.606 32.5219 236.039 32.5219 214.543C32.5219 200.742 32.5219 175.919 32.5219 146.429V89.9966C32.5219 53.4312 32.5219 53.0315 32.5219 49.4539C32.5219 28.0282 20.6153 23.4413 11.2344 23.4413C11.2344 22.0123 11.2344 9.4707 11.2344 9.4707H122.323C190.164 9.4707 206.09 45.2367 206.09 73.1979C206.09 104.937 183.279 126.142 151.478 131.988C185.223 134.127 204.927 219.959 229.522 251.458C232.819 255.695 241.409 263.38 250.709 263.38C250.9 263.39 251.581 263.39 251.772 263.39C251.772 266.128 251.772 277.531 251.772 277.531H225.413C206.04 277.531 186.406 269.016 177.706 257.254C148.792 218.121 137.667 137.515 102.438 134.966C101.867 134.926 99.8824 134.906 99.3011 134.906C99.3011 131.179 99.3011 120.266 99.3011 120.266C99.8424 120.266 101.807 120.256 102.328 120.246C146.116 119.637 154.013 96.3424 154.013 76.8555C154.013 54.3206 145.915 33.7244 105.966 33.7244C99.6219 33.7244 79.2463 33.7844 79.2463 33.7844Z" fill="white"/>
<path d="M790.686 46.0363C790.686 57.3388 779.912 66.4926 766.612 66.4926C753.322 66.4926 742.528 57.3388 742.528 46.0363C742.528 34.7439 753.322 25.5801 766.612 25.5801C779.912 25.5801 790.686 34.7439 790.686 46.0363Z" fill="white"/>
<path d="M812.314 254.556C812.314 254.556 812.314 243.923 812.314 242.494C802.923 242.494 791.037 237.907 791.037 216.471C791.037 207.837 791.037 83.1309 791.037 83.1309H725.26V95.0029C734.43 95.0029 746.547 99.5698 746.547 120.796C746.547 129.959 746.547 178.767 746.547 216.431C746.547 237.927 734.42 242.494 725.26 242.494C725.26 243.293 725.26 254.556 725.26 254.556H812.314Z" fill="white"/>
<path d="M257.054 254.556C257.054 230.962 257.054 133.917 257.054 120.796C257.054 99.5698 244.937 95.0029 235.766 95.0029V83.1309H301.533C301.533 83.1309 301.533 207.837 301.533 216.471C301.533 237.917 313.44 242.494 322.821 242.494C322.821 243.923 322.821 254.556 322.821 254.556H257.054Z" fill="white"/>
<path d="M302.004 46.0363C302.004 57.3388 291.22 66.4926 277.92 66.4926C264.631 66.4926 253.847 57.3388 253.847 46.0363C253.847 34.7439 264.631 25.5801 277.92 25.5801C291.22 25.5801 302.004 34.7439 302.004 46.0363Z" fill="white"/>
</svg>
