<svg width="5872" height="2606" viewBox="0 0 5872 2606" fill="none" xmlns="http://www.w3.org/2000/svg">
<path d="M1222.84 348.193V797.148C1220.64 792.75 1219.05 788.229 1216.73 783.953C1172.99 702.1 1104.58 647.978 1029.21 635.518C1013.33 632.831 998.303 632.098 983.888 631.365C965.564 630.509 949.682 629.654 937.344 625.256C891.535 608.519 878.219 536.441 885.424 472.18C898.74 347.445 951.514 226.62 1033.85 132.188C1038.49 126.812 1043.5 121.559 1048.27 116.183C1106.17 105.31 1164.56 98.4689 1222.83 96.0257L1222.84 348.193ZM898.375 155.409C839.982 247.646 802.479 353.566 790.751 461.931C780.367 555.513 803.945 677.801 904.849 714.697C930.869 723.982 956.522 725.325 979.245 726.425C991.461 727.036 1002.94 727.525 1013.45 729.357C1059.02 736.932 1103.61 774.071 1132.8 828.803C1157.97 875.959 1171.16 929.593 1185.09 986.401L1191.44 1012.06C1201.82 1052.62 1212.21 1089.39 1222.84 1124.21V1742.27C1066.71 1604.58 871.512 1507.82 667.235 1468C650.621 1464.82 629.976 1460.91 623.502 1453.58C617.516 1446.74 616.783 1428.17 615.928 1410.21C615.439 1398.12 614.829 1385.66 612.874 1372.22C604.201 1317 571.462 1272.29 542.509 1232.83C513.068 1192.63 487.659 1157.94 492.178 1123.24C497.064 1085.61 536.28 1052.63 577.692 1017.69C633.765 970.41 703.517 911.647 686.294 821.243C682.508 801.207 666.382 785.936 646.227 783.002C546.909 768.953 460.054 752.949 400.804 699.194C372.462 673.539 350.838 639.087 327.996 602.56C324.209 596.452 320.178 590.588 316.269 584.48C462.131 381.679 664.685 233.009 898.108 155.416L898.375 155.409ZM259.212 671.45C281.078 705.902 304.777 740.352 337.029 769.55C408.982 834.909 506.224 857.512 588.191 870.463C577.318 892.575 551.664 915.177 516.481 944.741C465.418 987.745 407.513 1036.49 397.984 1110.89C388.7 1183.46 429.745 1239.41 465.906 1288.89C490.583 1322.61 514.039 1354.5 519.046 1386.5C520.389 1395.42 520.634 1404.83 521.122 1414.11C522.466 1445.14 524.176 1483.87 552.029 1515.88C580.126 1548.01 620.317 1555.58 649.392 1561.2C853.278 1601.03 1047.63 1702.67 1196.42 1847.2C1205.22 1855.87 1214.14 1864.67 1222.93 1873.47V2444.96C1158.43 2442.39 1094.66 2434.33 1032.12 2421.5C1007.93 2323.15 968.469 2230.43 914.476 2145.64C910.444 2139.41 906.413 2133.06 902.382 2126.83C887.478 2103.98 873.308 2082.24 864.391 2059.64C858.65 2045.22 854.496 2029.1 850.098 2011.87C842.402 1981.57 833.607 1947.37 813.693 1916.46C748.826 1816.16 612.249 1808.58 505.845 1834.97C428.028 1854.03 356.074 1884.94 289.131 1917.43C162.083 1725.14 95.1393 1502.32 95.1393 1270.41C95.1393 1057.84 151.822 852.232 259.324 671.18L259.212 671.45ZM345.579 1996.02C403.363 1968.53 464.442 1943.24 528.578 1927.48C599.674 1909.89 696.062 1910.01 733.687 1968.28C745.17 1986.12 751.4 2010.19 757.875 2035.6C762.884 2055.02 767.892 2075.06 775.954 2094.97C788.415 2126.37 805.762 2153.12 822.621 2179.02L834.226 2196.86C873.561 2258.43 904.225 2324.77 925.969 2394.53C697.161 2324.28 494.753 2185.61 345.579 1996.02Z" fill="white"/>
<path d="M1623.63 185.628V90.5459H2071.61V185.628H1904.62V636H1790.63V185.628H1623.63Z" fill="white"/>
<path d="M2270.36 643.991C2228.28 643.991 2192.06 635.468 2161.7 618.422C2131.51 601.199 2108.25 576.874 2091.92 545.446C2075.58 513.841 2067.41 476.466 2067.41 433.319C2067.41 391.238 2075.58 354.307 2091.92 322.524C2108.25 290.741 2131.25 265.972 2160.9 248.216C2190.73 230.461 2225.71 221.583 2265.83 221.583C2292.82 221.583 2317.95 225.933 2341.21 234.633C2364.64 243.156 2385.06 256.029 2402.46 273.252C2420.04 290.475 2433.71 312.137 2443.48 338.238C2453.24 364.161 2458.13 394.523 2458.13 429.324V460.486H2112.69V390.173H2351.33C2351.33 373.838 2347.78 359.367 2340.67 346.76C2333.57 334.154 2323.72 324.299 2311.11 317.197C2298.68 309.917 2284.21 306.277 2267.7 306.277C2250.47 306.277 2235.21 310.272 2221.89 318.263C2208.75 326.075 2198.45 336.64 2190.99 349.956C2183.54 363.096 2179.72 377.744 2179.54 393.902V460.752C2179.54 480.993 2183.27 498.483 2190.73 513.22C2198.36 527.957 2209.1 539.321 2222.95 547.311C2236.8 555.301 2253.23 559.296 2272.23 559.296C2284.83 559.296 2296.37 557.52 2306.85 553.969C2317.33 550.418 2326.29 545.091 2333.75 537.989C2341.21 530.887 2346.89 522.187 2350.79 511.888L2455.73 518.813C2450.4 544.026 2439.48 566.043 2422.97 584.864C2406.64 603.508 2385.51 618.067 2359.58 628.543C2333.84 638.841 2304.1 643.991 2270.36 643.991Z" fill="white"/>
<path d="M2532.17 636V226.91H2642.17V298.287H2646.43C2653.88 272.897 2666.4 253.721 2683.98 240.759C2701.56 227.62 2721.8 221.05 2744.7 221.05C2750.39 221.05 2756.51 221.405 2763.08 222.115C2769.65 222.826 2775.42 223.802 2780.39 225.045V325.72C2775.07 324.122 2767.7 322.701 2758.29 321.459C2748.88 320.216 2740.27 319.594 2732.45 319.594C2715.76 319.594 2700.85 323.234 2687.71 330.514C2674.75 337.616 2664.45 347.559 2656.81 360.344C2649.36 373.128 2645.63 387.865 2645.63 404.555V636H2532.17Z" fill="white"/>
<path d="M2839.05 636V226.91H2949.05V298.287H2953.31C2960.77 272.897 2973.29 253.721 2990.86 240.759C3008.44 227.62 3028.68 221.05 3051.59 221.05C3057.27 221.05 3063.4 221.405 3069.97 222.115C3076.54 222.826 3082.31 223.802 3087.28 225.045V325.72C3081.95 324.122 3074.58 322.701 3065.17 321.459C3055.76 320.216 3047.15 319.594 3039.34 319.594C3022.65 319.594 3007.73 323.234 2994.59 330.514C2981.63 337.616 2971.33 347.559 2963.7 360.344C2956.24 373.128 2952.51 387.865 2952.51 404.555V636H2839.05Z" fill="white"/>
<path d="M3250.87 643.724C3224.77 643.724 3201.51 639.197 3181.09 630.141C3160.68 620.908 3144.52 607.325 3132.62 589.392C3120.9 571.281 3115.04 548.731 3115.04 521.743C3115.04 499.015 3119.22 479.928 3127.56 464.481C3135.91 449.033 3147.27 436.604 3161.65 427.194C3176.03 417.783 3192.37 410.681 3210.66 405.887C3229.12 401.093 3248.48 397.719 3268.72 395.766C3292.51 393.28 3311.69 390.972 3326.25 388.841C3340.81 386.533 3351.37 383.16 3357.94 378.721C3364.51 374.282 3367.8 367.712 3367.8 359.012V357.414C3367.8 340.546 3362.47 327.495 3351.82 318.263C3341.34 309.03 3326.42 304.413 3307.07 304.413C3286.65 304.413 3270.41 308.941 3258.33 317.996C3246.26 326.874 3238.27 338.06 3234.36 351.554L3129.43 343.032C3134.75 318.174 3145.23 296.689 3160.85 278.579C3176.48 260.29 3196.63 246.263 3221.31 236.498C3246.17 226.554 3274.93 221.583 3307.6 221.583C3330.33 221.583 3352.08 224.246 3372.86 229.573C3393.81 234.9 3412.36 243.156 3428.52 254.342C3444.86 265.528 3457.73 279.91 3467.14 297.488C3476.55 314.889 3481.25 335.752 3481.25 360.077V636H3373.66V579.271H3370.46C3363.89 592.055 3355.1 603.33 3344.09 613.096C3333.08 622.684 3319.86 630.23 3304.41 635.734C3288.96 641.061 3271.12 643.724 3250.87 643.724ZM3283.37 565.422C3300.06 565.422 3314.79 562.137 3327.58 555.567C3340.36 548.82 3350.4 539.765 3357.67 528.401C3364.95 517.037 3368.59 504.165 3368.59 489.782V446.37C3365.04 448.678 3360.16 450.809 3353.95 452.762C3347.91 454.537 3341.07 456.224 3333.44 457.822C3325.8 459.243 3318.17 460.574 3310.53 461.817C3302.9 462.883 3295.97 463.859 3289.76 464.747C3276.44 466.7 3264.81 469.807 3254.87 474.069C3244.93 478.33 3237.2 484.101 3231.7 491.38C3226.19 498.483 3223.44 507.361 3223.44 518.014C3223.44 533.461 3229.03 545.269 3240.22 553.437C3251.58 561.427 3265.97 565.422 3283.37 565.422Z" fill="white"/>
<path d="M1759.73 998.546V1544H1644.41V998.546H1759.73Z" fill="white"/>
<path d="M1965.94 1307.49V1544H1852.48V1134.91H1960.61V1207.09H1965.41C1974.46 1183.29 1989.64 1164.47 2010.95 1150.62C2032.26 1136.6 2058.09 1129.58 2088.45 1129.58C2116.86 1129.58 2141.63 1135.8 2162.76 1148.23C2183.89 1160.66 2200.32 1178.41 2212.03 1201.49C2223.75 1224.4 2229.61 1251.74 2229.61 1283.52V1544H2116.15V1303.77C2116.33 1278.73 2109.94 1259.2 2096.98 1245.17C2084.02 1230.97 2066.17 1223.87 2043.44 1223.87C2028.17 1223.87 2014.68 1227.15 2002.96 1233.72C1991.42 1240.29 1982.36 1249.88 1975.79 1262.48C1969.4 1274.91 1966.12 1289.92 1965.94 1307.49Z" fill="white"/>
<path d="M2536.63 1134.91V1220.14H2290.27V1134.91H2536.63ZM2346.2 1036.9H2459.66V1418.29C2459.66 1428.77 2461.26 1436.93 2464.45 1442.79C2467.65 1448.47 2472.09 1452.47 2477.77 1454.78C2483.63 1457.09 2490.38 1458.24 2498.01 1458.24C2503.34 1458.24 2508.66 1457.8 2513.99 1456.91C2519.32 1455.84 2523.4 1455.04 2526.24 1454.51L2544.09 1538.94C2538.41 1540.72 2530.42 1542.76 2520.12 1545.07C2509.82 1547.55 2497.3 1549.06 2482.56 1549.59C2455.22 1550.66 2431.25 1547.02 2410.65 1538.67C2390.23 1530.33 2374.34 1517.37 2362.98 1499.79C2351.62 1482.21 2346.02 1460.02 2346.2 1433.2V1036.9Z" fill="white"/>
<path d="M2792.58 1551.99C2750.5 1551.99 2714.28 1543.47 2683.91 1526.42C2653.73 1509.2 2630.47 1484.87 2614.13 1453.45C2597.8 1421.84 2589.63 1384.47 2589.63 1341.32C2589.63 1299.24 2597.8 1262.31 2614.13 1230.52C2630.47 1198.74 2653.46 1173.97 2683.11 1156.22C2712.94 1138.46 2747.92 1129.58 2788.05 1129.58C2815.04 1129.58 2840.16 1133.93 2863.42 1142.63C2886.86 1151.16 2907.28 1164.03 2924.68 1181.25C2942.26 1198.47 2955.93 1220.14 2965.7 1246.24C2975.46 1272.16 2980.34 1302.52 2980.34 1337.32V1368.49H2634.91V1298.17H2873.54C2873.54 1281.84 2869.99 1267.37 2862.89 1254.76C2855.79 1242.15 2845.93 1232.3 2833.33 1225.2C2820.9 1217.92 2806.43 1214.28 2789.91 1214.28C2772.69 1214.28 2757.42 1218.27 2744.11 1226.26C2730.97 1234.08 2720.67 1244.64 2713.21 1257.96C2705.75 1271.1 2701.94 1285.74 2701.76 1301.9V1368.75C2701.76 1388.99 2705.49 1406.48 2712.94 1421.22C2720.58 1435.96 2731.32 1447.32 2745.17 1455.31C2759.02 1463.3 2775.44 1467.3 2794.44 1467.3C2807.05 1467.3 2818.59 1465.52 2829.07 1461.97C2839.54 1458.42 2848.51 1453.09 2855.97 1445.99C2863.42 1438.89 2869.11 1430.19 2873.01 1419.89L2977.95 1426.81C2972.62 1452.03 2961.7 1474.04 2945.19 1492.86C2928.85 1511.51 2907.72 1526.07 2881.8 1536.54C2856.05 1546.84 2826.31 1551.99 2792.58 1551.99Z" fill="white"/>
<path d="M3167.84 998.546V1544H3054.39V998.546H3167.84Z" fill="white"/>
<path d="M3372.19 998.546V1544H3258.73V998.546H3372.19Z" fill="white"/>
<path d="M3463.08 1544V1134.91H3576.54V1544H3463.08ZM3520.07 1082.18C3503.2 1082.18 3488.73 1076.58 3476.66 1065.4C3464.76 1054.03 3458.82 1040.45 3458.82 1024.65C3458.82 1009.02 3464.76 995.616 3476.66 984.43C3488.73 973.067 3503.2 967.385 3520.07 967.385C3536.94 967.385 3551.32 973.067 3563.22 984.43C3575.29 995.616 3581.33 1009.02 3581.33 1024.65C3581.33 1040.45 3575.29 1054.03 3563.22 1065.4C3551.32 1076.58 3536.94 1082.18 3520.07 1082.18Z" fill="white"/>
<path d="M3851.73 1705.93C3814.97 1705.93 3783.46 1700.87 3757.18 1690.75C3731.08 1680.81 3710.3 1667.22 3694.86 1650C3679.41 1632.78 3669.38 1613.43 3664.76 1591.94L3769.7 1577.83C3772.89 1585.99 3777.95 1593.63 3784.88 1600.73C3791.8 1607.83 3800.95 1613.51 3812.31 1617.78C3823.85 1622.21 3837.88 1624.43 3854.39 1624.43C3879.07 1624.43 3899.4 1618.4 3915.38 1606.32C3931.54 1594.43 3939.62 1574.45 3939.62 1546.4V1471.56H3934.82C3929.85 1482.92 3922.39 1493.66 3912.45 1503.78C3902.51 1513.9 3889.72 1522.16 3874.1 1528.55C3858.47 1534.95 3839.83 1538.14 3818.17 1538.14C3787.45 1538.14 3759.49 1531.04 3734.27 1516.83C3709.24 1502.45 3689.26 1480.52 3674.35 1451.05C3659.61 1421.4 3652.24 1383.93 3652.24 1338.66C3652.24 1292.31 3659.79 1253.61 3674.88 1222.53C3689.97 1191.46 3710.04 1168.2 3735.07 1152.75C3760.29 1137.31 3787.89 1129.58 3817.9 1129.58C3840.81 1129.58 3859.98 1133.49 3875.43 1141.3C3890.88 1148.94 3903.31 1158.52 3912.72 1170.07C3922.31 1181.43 3929.67 1192.62 3934.82 1203.62H3939.08V1134.91H4051.74V1548C4051.74 1582.8 4043.22 1611.92 4026.18 1635.35C4009.13 1658.79 3985.52 1676.37 3955.33 1688.09C3925.32 1699.98 3890.79 1705.93 3851.73 1705.93ZM3854.12 1452.91C3872.41 1452.91 3887.86 1448.39 3900.47 1439.33C3913.25 1430.1 3923.02 1416.96 3929.76 1399.91C3936.69 1382.69 3940.15 1362.09 3940.15 1338.12C3940.15 1314.15 3936.78 1293.38 3930.03 1275.8C3923.28 1258.05 3913.52 1244.28 3900.73 1234.52C3887.95 1224.75 3872.41 1219.87 3854.12 1219.87C3835.48 1219.87 3819.77 1224.93 3806.98 1235.05C3794.2 1244.99 3784.52 1258.84 3777.95 1276.6C3771.38 1294.36 3768.1 1314.86 3768.1 1338.12C3768.1 1361.74 3771.38 1382.16 3777.95 1399.38C3784.7 1416.43 3794.38 1429.65 3806.98 1439.06C3819.77 1448.3 3835.48 1452.91 3854.12 1452.91Z" fill="white"/>
<path d="M4328.47 1551.99C4286.39 1551.99 4250.16 1543.47 4219.8 1526.42C4189.62 1509.2 4166.36 1484.87 4150.02 1453.45C4133.69 1421.84 4125.52 1384.47 4125.52 1341.32C4125.52 1299.24 4133.69 1262.31 4150.02 1230.52C4166.36 1198.74 4189.35 1173.97 4219 1156.22C4248.83 1138.46 4283.81 1129.58 4323.94 1129.58C4350.93 1129.58 4376.05 1133.93 4399.31 1142.63C4422.75 1151.16 4443.17 1164.03 4460.57 1181.25C4478.15 1198.47 4491.82 1220.14 4501.58 1246.24C4511.35 1272.16 4516.23 1302.52 4516.23 1337.32V1368.49H4170.8V1298.17H4409.43C4409.43 1281.84 4405.88 1267.37 4398.78 1254.76C4391.68 1242.15 4381.82 1232.3 4369.22 1225.2C4356.79 1217.92 4342.32 1214.28 4325.8 1214.28C4308.58 1214.28 4293.31 1218.27 4279.99 1226.26C4266.85 1234.08 4256.56 1244.64 4249.1 1257.96C4241.64 1271.1 4237.82 1285.74 4237.65 1301.9V1368.75C4237.65 1388.99 4241.38 1406.48 4248.83 1421.22C4256.47 1435.96 4267.21 1447.32 4281.06 1455.31C4294.91 1463.3 4311.33 1467.3 4330.33 1467.3C4342.94 1467.3 4354.48 1465.52 4364.95 1461.97C4375.43 1458.42 4384.4 1453.09 4391.85 1445.99C4399.31 1438.89 4404.99 1430.19 4408.9 1419.89L4513.84 1426.81C4508.51 1452.03 4497.59 1474.04 4481.08 1492.86C4464.74 1511.51 4443.61 1526.07 4417.69 1536.54C4391.94 1546.84 4362.2 1551.99 4328.47 1551.99Z" fill="white"/>
<path d="M4703.73 1307.49V1544H4590.27V1134.91H4698.41V1207.09H4703.2C4712.26 1183.29 4727.44 1164.47 4748.74 1150.62C4770.05 1136.6 4795.89 1129.58 4826.25 1129.58C4854.66 1129.58 4879.43 1135.8 4900.55 1148.23C4921.68 1160.66 4938.11 1178.41 4949.83 1201.49C4961.55 1224.4 4967.41 1251.74 4967.41 1283.52V1544H4853.95V1303.77C4854.12 1278.73 4847.73 1259.2 4834.77 1245.17C4821.81 1230.97 4803.96 1223.87 4781.24 1223.87C4765.97 1223.87 4752.47 1227.15 4740.75 1233.72C4729.21 1240.29 4720.16 1249.88 4713.59 1262.48C4707.2 1274.91 4703.91 1289.92 4703.73 1307.49Z" fill="white"/>
<path d="M5241.66 1551.99C5199.76 1551.99 5163.72 1543.11 5133.53 1525.36C5103.52 1507.42 5080.44 1482.57 5064.28 1450.78C5048.3 1419 5040.31 1382.42 5040.31 1341.05C5040.31 1299.15 5048.39 1262.4 5064.55 1230.79C5080.89 1199.01 5104.06 1174.24 5134.06 1156.48C5164.07 1138.55 5199.76 1129.58 5241.13 1129.58C5276.82 1129.58 5308.07 1136.06 5334.88 1149.03C5361.69 1161.99 5382.91 1180.19 5398.54 1203.62C5414.16 1227.06 5422.77 1254.58 5424.37 1286.19H5317.3C5314.28 1265.77 5306.29 1249.34 5293.33 1236.92C5280.55 1224.31 5263.77 1218.01 5243 1218.01C5225.42 1218.01 5210.06 1222.8 5196.92 1232.39C5183.96 1241.8 5173.84 1255.56 5166.56 1273.67C5159.28 1291.78 5155.64 1313.71 5155.64 1339.45C5155.64 1365.56 5159.19 1387.75 5166.29 1406.04C5173.57 1424.33 5183.78 1438.27 5196.92 1447.85C5210.06 1457.44 5225.42 1462.24 5243 1462.24C5255.96 1462.24 5267.59 1459.57 5277.89 1454.25C5288.36 1448.92 5296.97 1441.2 5303.72 1431.07C5310.64 1420.78 5315.17 1408.44 5317.3 1394.05H5424.37C5422.59 1425.3 5414.07 1452.83 5398.8 1476.62C5383.71 1500.23 5362.85 1518.7 5336.21 1532.02C5309.58 1545.33 5278.06 1551.99 5241.66 1551.99Z" fill="white"/>
<path d="M5683.45 1551.99C5641.37 1551.99 5605.14 1543.47 5574.78 1526.42C5544.6 1509.2 5521.34 1484.87 5505 1453.45C5488.67 1421.84 5480.5 1384.47 5480.5 1341.32C5480.5 1299.24 5488.67 1262.31 5505 1230.52C5521.34 1198.74 5544.33 1173.97 5573.98 1156.22C5603.81 1138.46 5638.79 1129.58 5678.92 1129.58C5705.91 1129.58 5731.03 1133.93 5754.29 1142.63C5777.73 1151.16 5798.15 1164.03 5815.55 1181.25C5833.13 1198.47 5846.8 1220.14 5856.56 1246.24C5866.33 1272.16 5871.21 1302.52 5871.21 1337.32V1368.49H5525.78V1298.17H5764.41C5764.41 1281.84 5760.86 1267.37 5753.76 1254.76C5746.66 1242.15 5736.8 1232.3 5724.2 1225.2C5711.77 1217.92 5697.3 1214.28 5680.78 1214.28C5663.56 1214.28 5648.29 1218.27 5634.97 1226.26C5621.84 1234.08 5611.54 1244.64 5604.08 1257.96C5596.62 1271.1 5592.8 1285.74 5592.63 1301.9V1368.75C5592.63 1388.99 5596.36 1406.48 5603.81 1421.22C5611.45 1435.96 5622.19 1447.32 5636.04 1455.31C5649.89 1463.3 5666.31 1467.3 5685.31 1467.3C5697.92 1467.3 5709.46 1465.52 5719.94 1461.97C5730.41 1458.42 5739.38 1453.09 5746.83 1445.99C5754.29 1438.89 5759.97 1430.19 5763.88 1419.89L5868.82 1426.81C5863.49 1452.03 5852.57 1474.04 5836.06 1492.86C5819.72 1511.51 5798.59 1526.07 5772.67 1536.54C5746.92 1546.84 5717.18 1551.99 5683.45 1551.99Z" fill="white"/>
<path d="M1940.31 2063.42C1938.17 2041.93 1929.03 2025.24 1912.87 2013.35C1896.72 2001.45 1874.79 1995.5 1847.09 1995.5C1828.27 1995.5 1812.38 1998.17 1799.41 2003.49C1786.45 2008.64 1776.51 2015.83 1769.58 2025.07C1762.84 2034.3 1759.46 2044.77 1759.46 2056.49C1759.11 2066.26 1761.15 2074.78 1765.59 2082.06C1770.21 2089.34 1776.51 2095.64 1784.5 2100.97C1792.49 2106.12 1801.72 2110.65 1812.2 2114.55C1822.67 2118.28 1833.86 2121.48 1845.76 2124.14L1894.76 2135.86C1918.55 2141.19 1940.39 2148.29 1960.28 2157.17C1980.17 2166.05 1997.39 2176.96 2011.95 2189.93C2026.51 2202.89 2037.78 2218.16 2045.77 2235.74C2053.94 2253.31 2058.11 2273.47 2058.29 2296.19C2058.11 2329.58 2049.59 2358.52 2032.72 2383.02C2016.03 2407.34 1991.89 2426.25 1960.28 2439.75C1928.85 2453.07 1890.94 2459.72 1846.56 2459.72C1802.52 2459.72 1764.17 2452.98 1731.5 2439.48C1699.01 2425.99 1673.62 2406.01 1655.33 2379.56C1637.22 2352.92 1627.72 2319.99 1626.83 2280.75H1738.42C1739.67 2299.04 1744.9 2314.31 1754.14 2326.56C1763.55 2338.63 1776.07 2347.77 1791.69 2353.99C1807.49 2360.03 1825.34 2363.04 1845.22 2363.04C1864.75 2363.04 1881.71 2360.2 1896.09 2354.52C1910.65 2348.84 1921.93 2340.94 1929.92 2330.82C1937.91 2320.7 1941.9 2309.07 1941.9 2295.93C1941.9 2283.68 1938.26 2273.38 1930.98 2265.03C1923.88 2256.69 1913.41 2249.59 1899.56 2243.73C1885.88 2237.87 1869.11 2232.54 1849.22 2227.75L1789.83 2212.83C1743.84 2201.65 1707.53 2184.16 1680.89 2160.36C1654.26 2136.57 1641.03 2104.52 1641.21 2064.22C1641.03 2031.19 1649.82 2002.34 1667.58 1977.66C1685.51 1952.98 1710.1 1933.71 1741.35 1919.86C1772.6 1906.01 1808.11 1899.09 1847.89 1899.09C1888.37 1899.09 1923.7 1906.01 1953.89 1919.86C1984.25 1933.71 2007.87 1952.98 2024.73 1977.66C2041.6 2002.34 2050.3 2030.92 2050.83 2063.42H1940.31Z" fill="white"/>
<path d="M2203.78 2605.41C2189.4 2605.41 2175.9 2604.26 2163.29 2601.95C2150.87 2599.82 2140.57 2597.06 2132.4 2593.69L2157.97 2509C2171.28 2513.08 2183.27 2515.3 2193.92 2515.65C2204.75 2516.01 2214.08 2513.52 2221.89 2508.2C2229.88 2502.87 2236.36 2493.82 2241.33 2481.03L2247.99 2463.72L2101.24 2042.91H2220.56L2305.25 2343.34H2309.51L2395.01 2042.91H2515.12L2356.12 2496.21C2348.49 2518.23 2338.1 2537.41 2324.96 2553.74C2312 2570.25 2295.57 2582.95 2275.69 2591.83C2255.8 2600.88 2231.83 2605.41 2203.78 2605.41Z" fill="white"/>
<path d="M2913.56 2159.56L2809.69 2165.96C2807.91 2157.08 2804.1 2149.09 2798.24 2141.99C2792.38 2134.71 2784.65 2128.94 2775.07 2124.67C2765.66 2120.24 2754.38 2118.02 2741.24 2118.02C2723.66 2118.02 2708.84 2121.74 2696.76 2129.2C2684.69 2136.48 2678.65 2146.25 2678.65 2158.5C2678.65 2168.26 2682.56 2176.52 2690.37 2183.27C2698.18 2190.02 2711.59 2195.43 2730.59 2199.51L2804.63 2214.43C2844.4 2222.6 2874.05 2235.74 2893.59 2253.85C2913.12 2271.96 2922.88 2295.75 2922.88 2325.22C2922.88 2352.04 2914.98 2375.56 2899.18 2395.8C2883.55 2416.05 2862.07 2431.85 2834.73 2443.21C2807.56 2454.4 2776.22 2459.99 2740.71 2459.99C2686.55 2459.99 2643.41 2448.72 2611.27 2426.17C2579.31 2403.44 2560.58 2372.54 2555.07 2333.48L2666.67 2327.62C2670.04 2344.13 2678.21 2356.74 2691.17 2365.44C2704.13 2373.96 2720.73 2378.23 2740.98 2378.23C2760.86 2378.23 2776.84 2374.41 2788.92 2366.77C2801.17 2358.96 2807.38 2348.93 2807.56 2336.68C2807.38 2326.38 2803.03 2317.95 2794.51 2311.38C2785.99 2304.63 2772.85 2299.48 2755.09 2295.93L2684.25 2281.81C2644.3 2273.82 2614.56 2259.97 2595.02 2240.26C2575.67 2220.56 2565.99 2195.43 2565.99 2164.89C2565.99 2138.61 2573.1 2115.97 2587.3 2096.98C2601.68 2077.98 2621.84 2063.33 2647.76 2053.03C2673.86 2042.73 2704.4 2037.58 2739.38 2037.58C2791.05 2037.58 2831.71 2048.5 2861.36 2070.34C2891.19 2092.18 2908.59 2121.92 2913.56 2159.56Z" fill="white"/>
<path d="M3211.92 2042.91V2128.14H2965.56V2042.91H3211.92ZM3021.49 1944.9H3134.95V2326.29C3134.95 2336.77 3136.55 2344.93 3139.75 2350.79C3142.94 2356.47 3147.38 2360.47 3153.06 2362.78C3158.92 2365.09 3165.67 2366.24 3173.3 2366.24C3178.63 2366.24 3183.96 2365.8 3189.28 2364.91C3194.61 2363.84 3198.69 2363.04 3201.54 2362.51L3219.38 2446.94C3213.7 2448.72 3205.71 2450.76 3195.41 2453.07C3185.11 2455.55 3172.59 2457.06 3157.86 2457.59C3130.51 2458.66 3106.54 2455.02 3085.95 2446.67C3065.53 2438.33 3049.64 2425.37 3038.27 2407.79C3026.91 2390.21 3021.32 2368.02 3021.49 2341.21V1944.9Z" fill="white"/>
<path d="M3467.87 2459.99C3425.79 2459.99 3389.57 2451.47 3359.21 2434.42C3329.02 2417.2 3305.76 2392.87 3289.43 2361.45C3273.09 2329.84 3264.92 2292.47 3264.92 2249.32C3264.92 2207.24 3273.09 2170.31 3289.43 2138.52C3305.76 2106.74 3328.76 2081.97 3358.41 2064.22C3388.24 2046.46 3423.22 2037.58 3463.34 2037.58C3490.33 2037.58 3515.46 2041.93 3538.72 2050.63C3562.15 2059.16 3582.57 2072.03 3599.97 2089.25C3617.55 2106.47 3631.22 2128.14 3640.99 2154.24C3650.75 2180.16 3655.64 2210.52 3655.64 2245.32V2276.49H3310.2V2206.17H3548.84C3548.84 2189.84 3545.29 2175.37 3538.18 2162.76C3531.08 2150.15 3521.23 2140.3 3508.62 2133.2C3496.19 2125.92 3481.72 2122.28 3465.21 2122.28C3447.98 2122.28 3432.71 2126.27 3419.4 2134.26C3406.26 2142.08 3395.96 2152.64 3388.5 2165.96C3381.05 2179.1 3377.23 2193.74 3377.05 2209.9V2276.75C3377.05 2296.99 3380.78 2314.48 3388.24 2329.22C3395.87 2343.96 3406.61 2355.32 3420.46 2363.31C3434.31 2371.3 3450.74 2375.3 3469.74 2375.3C3482.34 2375.3 3493.88 2373.52 3504.36 2369.97C3514.83 2366.42 3523.8 2361.09 3531.26 2353.99C3538.72 2346.89 3544.4 2338.19 3548.3 2327.89L3653.24 2334.81C3647.91 2360.03 3636.99 2382.04 3620.48 2400.86C3604.15 2419.51 3583.02 2434.07 3557.09 2444.54C3531.35 2454.84 3501.61 2459.99 3467.87 2459.99Z" fill="white"/>
<path d="M3729.68 2452V2042.91H3837.81V2115.09H3842.6C3851.13 2091.12 3865.33 2072.21 3885.22 2058.36C3905.1 2044.51 3928.9 2037.58 3956.6 2037.58C3984.65 2037.58 4008.53 2044.6 4028.24 2058.62C4047.95 2072.47 4061.09 2091.29 4067.66 2115.09H4071.92C4080.26 2091.65 4095.36 2072.92 4117.2 2058.89C4139.21 2044.69 4165.23 2037.58 4195.23 2037.58C4233.41 2037.58 4264.39 2049.75 4288.18 2074.07C4312.15 2098.22 4324.14 2132.49 4324.14 2176.88V2452H4210.95V2199.25C4210.95 2176.52 4204.91 2159.48 4192.84 2148.11C4180.76 2136.75 4165.67 2131.07 4147.56 2131.07C4126.96 2131.07 4110.89 2137.64 4099.35 2150.78C4087.81 2163.74 4082.04 2180.87 4082.04 2202.18V2452H3972.04V2196.85C3972.04 2176.79 3966.27 2160.81 3954.73 2148.91C3943.37 2137.01 3928.36 2131.07 3909.72 2131.07C3897.11 2131.07 3885.75 2134.26 3875.63 2140.65C3865.69 2146.87 3857.79 2155.66 3851.93 2167.02C3846.07 2178.21 3843.14 2191.35 3843.14 2206.44V2452H3729.68Z" fill="white"/>
<path d="M4754.14 2159.56L4650.27 2165.96C4648.49 2157.08 4644.67 2149.09 4638.81 2141.99C4632.95 2134.71 4625.23 2128.94 4615.64 2124.67C4606.23 2120.24 4594.96 2118.02 4581.82 2118.02C4564.24 2118.02 4549.41 2121.74 4537.34 2129.2C4525.27 2136.48 4519.23 2146.25 4519.23 2158.5C4519.23 2168.26 4523.14 2176.52 4530.95 2183.27C4538.76 2190.02 4552.17 2195.43 4571.16 2199.51L4645.21 2214.43C4684.98 2222.6 4714.63 2235.74 4734.16 2253.85C4753.69 2271.96 4763.46 2295.75 4763.46 2325.22C4763.46 2352.04 4755.56 2375.56 4739.75 2395.8C4724.13 2416.05 4702.65 2431.85 4675.3 2443.21C4648.14 2454.4 4616.8 2459.99 4581.29 2459.99C4527.13 2459.99 4483.98 2448.72 4451.85 2426.17C4419.89 2403.44 4401.15 2372.54 4395.65 2333.48L4507.24 2327.62C4510.62 2344.13 4518.79 2356.74 4531.75 2365.44C4544.71 2373.96 4561.31 2378.23 4581.55 2378.23C4601.44 2378.23 4617.42 2374.41 4629.49 2366.77C4641.74 2358.96 4647.96 2348.93 4648.14 2336.68C4647.96 2326.38 4643.61 2317.95 4635.09 2311.38C4626.56 2304.63 4613.42 2299.48 4595.67 2295.93L4524.82 2281.81C4484.87 2273.82 4455.13 2259.97 4435.6 2240.26C4416.25 2220.56 4406.57 2195.43 4406.57 2164.89C4406.57 2138.61 4413.67 2115.97 4427.88 2096.98C4442.26 2077.98 4462.41 2063.33 4488.33 2053.03C4514.44 2042.73 4544.98 2037.58 4579.95 2037.58C4631.62 2037.58 4672.28 2048.5 4701.94 2070.34C4731.76 2092.18 4749.17 2121.92 4754.14 2159.56Z" fill="white"/>
</svg>
