<svg width="717" height="717" viewBox="0 0 717 717" fill="none" xmlns="http://www.w3.org/2000/svg">
<mask id="mask0_859_109" style="mask-type:luminance" maskUnits="userSpaceOnUse" x="0" y="0" width="717" height="717">
<path d="M0 716.795H716.806V-0.000191197H0V716.795Z" fill="white"/>
</mask>
<g mask="url(#mask0_859_109)">
<path fill-rule="evenodd" clip-rule="evenodd" d="M13.291 357.81C13.291 165.427 169.221 9.47653 361.604 9.47653C553.988 9.47653 709.918 165.427 709.918 357.81C709.918 550.194 553.988 706.113 361.614 706.113C169.231 706.113 13.291 550.194 13.291 357.81Z" fill="white"/>
<path d="M13.291 357.81C13.291 165.427 169.221 9.47653 361.604 9.47653C553.988 9.47653 709.918 165.427 709.918 357.81C709.918 550.194 553.988 706.113 361.614 706.113C169.231 706.113 13.291 550.194 13.291 357.81Z" stroke="white" stroke-width="13.655" stroke-miterlimit="2.613"/>
<path fill-rule="evenodd" clip-rule="evenodd" d="M13.291 357.81C13.291 165.427 169.221 9.47653 361.604 9.47653C553.988 9.47653 709.918 165.427 709.918 357.81C709.918 550.194 553.988 706.113 361.614 706.113C169.231 706.113 13.291 550.194 13.291 357.81Z" fill="white"/>
<path d="M13.291 357.81C13.291 165.427 169.221 9.47653 361.604 9.47653C553.988 9.47653 709.918 165.427 709.918 357.81C709.918 550.194 553.988 706.113 361.614 706.113C169.231 706.113 13.291 550.194 13.291 357.81Z" stroke="black" stroke-width="6.82749" stroke-miterlimit="2.613"/>
<path fill-rule="evenodd" clip-rule="evenodd" d="M362.08 22.728C367.076 24.5183 370.343 28.9282 371.891 35.958C379.993 29.2418 404.005 27.7243 412.107 40.4993C419.208 51.6964 418.025 73.1906 395.185 73.8076C387.883 73.9998 380.185 67.8802 382.158 58.0082C383.685 50.3715 391.655 51.2516 394.194 59.5862C396.379 66.6969 408.952 64.1275 408.749 53.6688C408.628 47.2054 400.738 40.3678 392.626 40.4993C379.993 40.6915 370.708 49.3804 370.91 60.7696C371.102 72.3511 377.171 77.9949 384.919 82.4858C391.635 86.38 399.403 88.0086 407.566 85.5911C408.385 92.3681 410.681 98.0326 413.291 99.8027C389.663 95.858 371.213 95.433 362.08 95.4633C344.916 95.5148 327.786 96.9662 310.858 99.8027C313.468 98.0326 315.774 92.3681 316.583 85.5911C324.756 88.0086 332.524 86.38 339.23 82.4858C346.988 77.9949 353.047 72.3511 353.249 60.7696C353.452 49.3804 344.166 40.6915 331.533 40.4993C323.411 40.3678 315.521 47.2054 315.4 53.6688C315.208 64.1275 327.78 66.6969 329.955 59.5862C332.504 51.2516 340.474 50.3715 342.002 58.0082C343.974 67.8802 336.267 73.9998 328.964 73.8076C306.125 73.1906 304.941 51.6964 312.052 40.4993C320.154 27.7243 344.166 29.2418 352.258 35.958C353.816 28.9282 357.083 24.5183 362.08 22.728Z" fill="#36ADE8"/>
<path d="M362.08 22.728C367.076 24.5183 370.343 28.9282 371.891 35.958C379.993 29.2418 404.005 27.7243 412.107 40.4993C419.208 51.6964 418.025 73.1906 395.185 73.8076C387.883 73.9998 380.185 67.8802 382.158 58.0082C383.685 50.3715 391.655 51.2516 394.194 59.5862C396.379 66.6969 408.952 64.1275 408.749 53.6688C408.628 47.2054 400.738 40.3678 392.626 40.4993C379.993 40.6915 370.708 49.3804 370.91 60.7696C371.102 72.3511 377.171 77.9949 384.919 82.4858C391.635 86.38 399.403 88.0086 407.566 85.5911C408.385 92.3681 410.681 98.0326 413.291 99.8027C389.663 95.858 371.213 95.433 362.08 95.4633C344.916 95.5148 327.786 96.9662 310.858 99.8027C313.468 98.0326 315.774 92.3681 316.583 85.5911C324.756 88.0086 332.524 86.38 339.23 82.4858C346.988 77.9949 353.047 72.3511 353.249 60.7696C353.452 49.3804 344.166 40.6915 331.533 40.4993C323.411 40.3678 315.521 47.2054 315.4 53.6688C315.208 64.1275 327.78 66.6969 329.955 59.5862C332.504 51.2516 340.474 50.3715 342.002 58.0082C343.974 67.8802 336.267 73.9998 328.964 73.8076C306.125 73.1906 304.941 51.6964 312.052 40.4993C320.154 27.7243 344.166 29.2418 352.258 35.958C353.816 28.9282 357.083 24.5183 362.08 22.728Z" stroke="black" stroke-width="3.5503" stroke-miterlimit="2.613"/>
<path fill-rule="evenodd" clip-rule="evenodd" d="M494.856 49.2695C498.761 52.8805 500.045 58.2108 498.72 65.2912C508.795 62.277 531.502 70.2681 533.97 85.1874C536.135 98.2658 526.647 117.585 505.376 109.23C498.579 106.559 493.885 97.9217 499.55 89.5972C503.95 83.1743 510.939 87.0987 510.029 95.7671C509.25 103.151 521.823 105.71 525.727 95.9899C528.154 90.002 523.552 80.6156 516.037 77.571C504.324 72.8171 492.378 77.1865 488.12 87.7463C483.781 98.4883 487.149 106.054 492.54 113.215C497.193 119.426 503.707 123.957 512.173 124.918C510.271 131.483 510.18 137.592 511.89 140.242C497.437 130.986 482.235 122.953 466.444 116.229C450.623 109.579 434.288 104.224 417.6 100.218C420.685 99.6006 425.024 95.2921 428.423 89.3749C434.997 94.7864 442.786 96.3236 450.483 95.3627C459.384 94.2501 467.172 91.418 471.866 80.848C476.498 70.4297 471.36 58.8177 459.799 53.6996C452.374 50.4123 442.442 53.629 439.812 59.5158C435.533 69.0743 446.113 76.3568 450.887 70.6622C456.491 63.9864 464.168 66.2826 462.59 73.899C460.547 83.771 451.07 86.3908 444.424 83.3563C423.638 73.8484 430.941 53.6087 441.865 46.0833C454.316 37.5059 475.82 48.2784 480.655 57.6143C484.823 51.7477 489.566 48.9765 494.856 49.28" fill="#36ADE8"/>
<path d="M494.856 49.2695C498.761 52.8805 500.045 58.2108 498.72 65.2912C508.795 62.277 531.502 70.2681 533.97 85.1874C536.135 98.2658 526.647 117.585 505.376 109.23C498.579 106.559 493.885 97.9217 499.55 89.5972C503.95 83.1743 510.939 87.0987 510.029 95.7671C509.25 103.151 521.823 105.71 525.727 95.9899C528.154 90.002 523.552 80.6156 516.037 77.571C504.324 72.8171 492.378 77.1865 488.12 87.7463C483.781 98.4883 487.149 106.054 492.54 113.215C497.193 119.426 503.707 123.957 512.173 124.918C510.271 131.483 510.18 137.592 511.89 140.242C497.437 130.986 482.235 122.953 466.444 116.229C450.623 109.579 434.288 104.224 417.6 100.218C420.685 99.6006 425.024 95.2921 428.423 89.3749C434.997 94.7864 442.786 96.3236 450.483 95.3627C459.384 94.2501 467.172 91.418 471.866 80.848C476.498 70.4297 471.36 58.8177 459.799 53.6996C452.374 50.4123 442.442 53.629 439.812 59.5158C435.533 69.0743 446.113 76.3568 450.887 70.6622C456.491 63.9864 464.168 66.2826 462.59 73.899C460.547 83.771 451.07 86.3908 444.424 83.3563C423.638 73.8484 430.941 53.6087 441.865 46.0833C454.316 37.5059 475.82 48.2784 480.655 57.6143C484.823 51.7477 489.566 48.9765 494.856 49.28V49.2695Z" stroke="black" stroke-width="3.5503" stroke-miterlimit="2.613"/>
<path fill-rule="evenodd" clip-rule="evenodd" d="M605.745 125.048C607.93 129.883 607.03 135.294 603.045 141.293C613.503 142.456 631.265 158.68 627.725 173.377C624.589 186.273 608.325 200.353 592.009 184.341C586.79 179.233 585.839 169.442 594.326 164C600.87 159.792 605.776 166.144 601.548 173.761C597.947 180.264 608.527 187.517 615.911 180.113C620.462 175.541 619.916 165.113 614.191 159.358C605.26 150.416 592.566 149.769 584.514 157.83C576.321 166.013 576.473 174.297 578.627 182.996C580.489 190.531 584.717 197.247 592.131 201.445C587.822 206.735 585.344 212.328 585.88 215.434C576.2 201.26 565.346 187.926 553.432 175.571C541.469 163.267 528.527 151.955 514.732 141.748C517.817 142.385 523.492 140.119 528.934 135.982C532.868 143.548 539.433 148.008 546.887 150.133C555.505 152.58 563.779 153.025 572.255 145.126C580.59 137.358 580.388 124.643 571.749 115.418C566.186 109.491 555.798 108.571 551.075 112.961C543.408 120.092 550.296 130.915 556.921 127.546C564.679 123.592 570.849 128.71 566.419 135.112C560.694 143.386 550.943 142.092 546.007 136.711C530.592 119.849 545.229 104.07 558.216 101.399C573.024 98.365 588.621 116.693 589.42 127.172C595.55 123.41 600.991 122.701 605.745 125.048Z" fill="#36ADE8"/>
<path d="M605.745 125.048C607.93 129.883 607.03 135.294 603.045 141.293C613.503 142.456 631.265 158.68 627.725 173.377C624.589 186.273 608.325 200.353 592.009 184.341C586.79 179.233 585.839 169.442 594.326 164C600.87 159.792 605.776 166.144 601.548 173.761C597.947 180.264 608.527 187.517 615.911 180.113C620.462 175.541 619.916 165.113 614.191 159.358C605.26 150.416 592.566 149.769 584.514 157.83C576.321 166.013 576.473 174.297 578.627 182.996C580.489 190.531 584.717 197.247 592.131 201.445C587.822 206.735 585.344 212.328 585.88 215.434C576.2 201.26 565.346 187.926 553.432 175.571C541.469 163.267 528.527 151.955 514.732 141.748C517.817 142.385 523.492 140.119 528.934 135.982C532.868 143.548 539.433 148.008 546.887 150.133C555.505 152.58 563.779 153.025 572.255 145.126C580.59 137.358 580.388 124.643 571.749 115.418C566.186 109.491 555.798 108.571 551.075 112.961C543.408 120.092 550.296 130.915 556.921 127.546C564.679 123.592 570.849 128.71 566.419 135.112C560.694 143.386 550.943 142.092 546.007 136.711C530.592 119.849 545.229 104.07 558.216 101.399C573.024 98.365 588.621 116.693 589.42 127.172C595.55 123.41 600.991 122.701 605.745 125.048Z" stroke="black" stroke-width="3.5503" stroke-miterlimit="2.613"/>
<path fill-rule="evenodd" clip-rule="evenodd" d="M678.481 240.872C678.501 246.172 675.477 250.764 669.398 254.618C678.491 259.928 688.13 281.979 678.896 293.965C670.804 304.474 650.2 310.715 641.804 289.454C639.124 282.656 642.24 273.331 652.192 271.803C659.89 270.63 661.781 278.418 654.822 283.668C648.885 288.138 655.611 299.073 665.372 295.31C671.39 292.994 675.123 283.232 672.22 275.646C667.719 263.842 656.39 258.097 645.739 262.174C634.937 266.331 631.7 273.957 630.132 282.777C628.777 290.414 629.899 298.273 634.957 305.121C628.868 308.206 624.346 312.302 623.568 315.367C620.487 298.478 615.99 281.879 610.125 265.744C604.209 249.637 596.99 234.039 588.54 219.105C591.099 220.946 597.198 221.168 603.854 219.62C604.37 228.127 608.557 234.864 614.505 239.84C621.383 245.585 628.767 249.358 639.701 245.585C650.483 241.873 655.48 230.191 651.333 218.245C648.693 210.578 639.559 205.49 633.45 207.594C623.558 210.983 625.439 223.677 632.863 223.293C641.562 222.837 645.122 230.019 638.467 234.065C629.869 239.294 621.474 234.156 619.168 227.227C611.936 205.541 631.73 197.085 644.687 199.927C659.445 203.184 666.232 226.266 662.692 236.169C669.833 235.218 675.102 236.785 678.471 240.872" fill="#36ADE8"/>
<path d="M678.481 240.872C678.501 246.172 675.477 250.764 669.398 254.618C678.491 259.928 688.13 281.979 678.896 293.965C670.804 304.474 650.2 310.715 641.804 289.454C639.124 282.656 642.24 273.331 652.192 271.803C659.89 270.63 661.781 278.418 654.822 283.668C648.885 288.138 655.611 299.073 665.372 295.31C671.39 292.994 675.123 283.232 672.22 275.646C667.719 263.842 656.39 258.097 645.739 262.174C634.937 266.331 631.7 273.957 630.132 282.777C628.777 290.414 629.899 298.273 634.957 305.121C628.868 308.206 624.346 312.302 623.568 315.367C620.487 298.478 615.99 281.879 610.125 265.744C604.209 249.637 596.99 234.039 588.54 219.105C591.099 220.946 597.198 221.168 603.854 219.62C604.37 228.127 608.557 234.864 614.505 239.84C621.383 245.585 628.767 249.358 639.701 245.585C650.483 241.873 655.48 230.191 651.333 218.245C648.693 210.578 639.559 205.49 633.45 207.594C623.558 210.983 625.439 223.677 632.863 223.293C641.562 222.837 645.122 230.019 638.467 234.065C629.869 239.294 621.474 234.156 619.168 227.227C611.936 205.541 631.73 197.085 644.687 199.927C659.445 203.184 666.232 226.266 662.692 236.169C669.833 235.218 675.102 236.785 678.471 240.872H678.481Z" stroke="black" stroke-width="3.5503" stroke-miterlimit="2.613"/>
<path fill-rule="evenodd" clip-rule="evenodd" d="M700.652 370.292C698.69 375.218 694.179 378.333 687.099 379.637C693.522 387.962 694.189 412.015 681.151 419.672C669.721 426.388 648.278 424.446 648.45 401.597C648.511 394.294 654.893 386.809 664.694 389.126C672.28 390.926 671.107 398.856 662.692 401.101C655.52 403.033 657.644 415.687 668.103 415.869C674.556 415.97 681.667 408.313 681.829 400.201C682.072 387.557 673.717 377.989 662.327 377.787C650.746 377.584 644.89 383.451 640.125 391.037C635.999 397.611 634.107 405.309 636.241 413.562C629.434 414.139 623.699 416.243 621.838 418.782C625.302 401.973 627.353 384.904 627.967 367.753C628.509 350.597 627.654 333.426 625.408 316.41C627.098 319.08 632.671 321.579 639.407 322.63C636.717 330.722 638.062 338.531 641.734 345.389C645.952 353.278 651.383 359.529 662.934 360.136C674.314 360.743 683.326 351.771 683.973 339.148C684.378 331.036 677.813 322.913 671.36 322.559C660.911 322.003 657.907 334.495 664.937 336.903C673.171 339.735 673.767 347.725 666.09 348.99C656.157 350.618 650.321 342.718 650.766 335.415C652.182 312.606 673.697 312.172 684.631 319.667C697.112 328.214 694.766 352.166 687.766 360.025C694.745 361.815 699.034 365.234 700.652 370.292Z" fill="#36ADE8"/>
<path d="M700.652 370.292C698.69 375.218 694.179 378.333 687.099 379.637C693.522 387.962 694.189 412.015 681.151 419.672C669.721 426.388 648.278 424.446 648.45 401.597C648.511 394.294 654.893 386.809 664.694 389.126C672.28 390.926 671.107 398.856 662.692 401.101C655.52 403.033 657.644 415.687 668.103 415.869C674.556 415.97 681.667 408.313 681.829 400.201C682.072 387.557 673.717 377.989 662.327 377.787C650.746 377.584 644.89 383.451 640.125 391.037C635.999 397.611 634.107 405.309 636.241 413.562C629.434 414.139 623.699 416.243 621.838 418.782C625.302 401.973 627.353 384.904 627.967 367.753C628.509 350.597 627.654 333.426 625.408 316.41C627.098 319.08 632.671 321.579 639.407 322.63C636.717 330.722 638.062 338.531 641.734 345.389C645.952 353.278 651.383 359.529 662.934 360.136C674.314 360.743 683.326 351.771 683.973 339.148C684.378 331.036 677.813 322.913 671.36 322.559C660.911 322.003 657.907 334.495 664.937 336.903C673.171 339.735 673.767 347.725 666.09 348.99C656.157 350.618 650.321 342.718 650.766 335.415C652.182 312.606 673.697 312.172 684.631 319.667C697.112 328.214 694.766 352.166 687.766 360.025C694.745 361.815 699.034 365.234 700.652 370.292Z" stroke="black" stroke-width="3.5503" stroke-miterlimit="2.613"/>
<path fill-rule="evenodd" clip-rule="evenodd" d="M230.193 50.168C226.299 53.7689 225.014 59.0995 226.339 66.1798C216.265 63.1656 193.567 71.1561 191.089 86.0755C188.925 99.1539 198.412 118.483 219.674 110.118C226.481 107.448 231.174 98.8101 225.5 90.4957C221.11 84.0627 214.121 87.9874 215.031 96.6557C215.81 104.04 203.237 106.589 199.323 96.8885C196.915 90.8904 201.507 81.5138 209.033 78.4591C220.736 73.7052 232.671 78.0749 236.94 88.6449C241.279 99.3666 237.9 106.943 232.519 114.104C227.866 120.315 221.353 124.846 212.887 125.807C214.788 132.371 214.879 138.481 213.17 141.131C227.623 131.874 242.824 123.842 258.615 117.118C274.437 110.467 290.772 105.113 307.46 101.106C304.365 100.489 300.036 96.1802 296.637 90.263C290.062 95.6845 282.274 97.2123 274.577 96.2514C265.676 95.1387 257.887 92.3064 253.194 81.7465C248.561 71.3283 253.7 59.6963 265.261 54.5883C272.685 51.301 282.618 54.5176 285.258 60.4045C289.526 69.9629 278.946 77.2455 274.172 71.5509C268.568 64.865 260.891 67.1712 262.469 74.7877C264.512 84.6597 273.99 87.2794 280.635 84.245C301.421 74.7371 294.118 54.5075 283.194 46.972C270.743 38.3744 249.229 49.167 244.404 58.503C240.237 52.6364 235.483 49.8646 230.193 50.168Z" fill="#36ADE8"/>
<path d="M230.193 50.168C226.299 53.7689 225.014 59.0995 226.339 66.1798C216.265 63.1656 193.567 71.1561 191.089 86.0755C188.925 99.1539 198.412 118.483 219.674 110.118C226.481 107.448 231.174 98.8101 225.5 90.4957C221.11 84.0627 214.121 87.9874 215.031 96.6557C215.81 104.04 203.237 106.589 199.323 96.8885C196.915 90.8904 201.507 81.5138 209.033 78.4591C220.736 73.7052 232.671 78.0749 236.94 88.6449C241.279 99.3666 237.9 106.943 232.519 114.104C227.866 120.315 221.353 124.846 212.887 125.807C214.788 132.371 214.879 138.481 213.17 141.131C227.623 131.874 242.824 123.842 258.615 117.118C274.437 110.467 290.772 105.113 307.46 101.106C304.365 100.489 300.036 96.1802 296.637 90.263C290.062 95.6845 282.274 97.2123 274.577 96.2514C265.676 95.1387 257.887 92.3064 253.194 81.7465C248.561 71.3283 253.7 59.6963 265.261 54.5883C272.685 51.301 282.618 54.5176 285.258 60.4045C289.526 69.9629 278.946 77.2455 274.172 71.5509C268.568 64.865 260.891 67.1712 262.469 74.7877C264.512 84.6597 273.99 87.2794 280.635 84.245C301.421 74.7371 294.118 54.5075 283.194 46.972C270.743 38.3744 249.229 49.167 244.404 58.503C240.237 52.6364 235.483 49.8646 230.193 50.168Z" stroke="black" stroke-width="3.5503" stroke-miterlimit="2.613"/>
<path fill-rule="evenodd" clip-rule="evenodd" d="M120.569 125.939C118.384 130.774 119.284 136.185 123.269 142.183C112.811 143.346 95.0388 159.57 98.5891 174.267C101.715 187.164 117.989 201.243 134.304 185.232C139.524 180.113 140.464 170.333 131.998 164.891C125.444 160.683 120.538 167.015 124.766 174.651C128.367 181.145 117.787 188.407 110.393 181.003C105.841 176.431 106.398 166.003 112.133 160.248C121.054 151.306 133.738 150.659 141.8 158.71C149.993 166.903 149.841 175.188 147.686 183.886C145.825 191.422 141.597 198.128 134.183 202.326C138.492 207.626 140.97 213.219 140.434 216.324C150.117 202.153 160.971 188.819 172.882 176.462C184.845 164.158 197.787 152.846 211.582 142.638C208.497 143.275 202.832 141.01 197.38 136.873C193.446 144.439 186.881 148.889 179.427 151.023C170.809 153.471 162.535 153.916 154.069 146.016C145.734 138.248 145.926 125.534 154.564 116.309C160.117 110.382 170.516 109.451 175.249 113.851C182.906 120.982 176.018 131.805 169.393 128.437C161.635 124.472 155.465 129.6 159.895 136.003C165.63 144.277 175.371 142.982 180.307 137.601C195.732 120.74 181.096 104.96 168.098 102.29C153.29 99.2455 137.693 117.583 136.904 128.062C130.764 124.3 125.323 123.582 120.569 125.939Z" fill="#36ADE8"/>
<path d="M120.569 125.939C118.384 130.774 119.284 136.185 123.269 142.183C112.811 143.346 95.0388 159.57 98.5891 174.267C101.715 187.164 117.989 201.243 134.304 185.232C139.524 180.113 140.464 170.333 131.998 164.891C125.444 160.683 120.538 167.015 124.766 174.651C128.367 181.145 117.787 188.407 110.393 181.003C105.841 176.431 106.398 166.003 112.133 160.248C121.054 151.306 133.738 150.659 141.8 158.71C149.993 166.903 149.841 175.188 147.686 183.886C145.825 191.422 141.597 198.128 134.183 202.326C138.492 207.626 140.97 213.219 140.434 216.324C150.117 202.153 160.971 188.819 172.882 176.462C184.845 164.158 197.787 152.846 211.582 142.638C208.497 143.275 202.832 141.01 197.38 136.873C193.446 144.439 186.881 148.889 179.427 151.023C170.809 153.471 162.535 153.916 154.069 146.016C145.734 138.248 145.926 125.534 154.564 116.309C160.117 110.382 170.516 109.451 175.249 113.851C182.906 120.982 176.018 131.805 169.393 128.437C161.635 124.472 155.465 129.6 159.895 136.003C165.63 144.277 175.371 142.982 180.307 137.601C195.732 120.74 181.096 104.96 168.098 102.29C153.29 99.2455 137.693 117.583 136.904 128.062C130.764 124.3 125.323 123.582 120.569 125.939Z" stroke="black" stroke-width="3.5503" stroke-miterlimit="2.613"/>
<path fill-rule="evenodd" clip-rule="evenodd" d="M49.4413 239.8C49.4109 245.1 52.4353 249.682 58.5143 253.556C49.4312 258.856 39.8018 280.907 49.0265 292.903C57.1184 303.392 77.7121 309.633 86.1074 288.381C88.7979 281.584 85.6725 272.258 75.7195 270.731C68.0323 269.558 66.1307 277.346 73.0896 282.596C79.027 287.066 72.3108 298 62.55 294.238C56.5216 291.921 52.7994 282.161 55.6922 274.575C60.1933 262.771 71.532 257.025 82.1728 261.102C92.9855 265.259 96.2121 272.885 97.7799 281.705C99.1454 289.342 98.0227 297.201 92.9551 304.039C99.0443 307.134 103.576 311.23 104.355 314.285C107.434 297.4 111.928 280.805 117.787 264.672C120.882 256.257 127.588 238.89 139.382 218.043C136.823 219.874 130.714 220.107 124.068 218.549C123.552 227.055 119.355 233.792 113.407 238.779C106.529 244.514 99.1454 248.286 88.2113 244.513C77.439 240.801 72.4322 229.109 76.5793 217.173C79.2394 209.496 88.363 204.429 94.4724 206.512C104.375 209.911 102.483 222.605 95.059 222.22C86.3603 221.755 82.81 228.947 89.4554 232.993C98.053 238.222 106.448 233.094 108.754 226.155C115.987 204.469 96.1919 196.013 83.2449 198.855C68.4773 202.112 61.6801 225.194 65.2304 235.097C58.0894 234.146 52.8297 235.714 49.4413 239.8Z" fill="#36ADE8"/>
<path d="M49.4413 239.8C49.4109 245.1 52.4353 249.682 58.5143 253.556C49.4312 258.856 39.8018 280.907 49.0265 292.903C57.1184 303.392 77.7121 309.633 86.1074 288.381C88.7979 281.584 85.6725 272.258 75.7195 270.731C68.0323 269.558 66.1307 277.346 73.0896 282.596C79.027 287.066 72.3108 298 62.55 294.238C56.5216 291.921 52.7994 282.161 55.6922 274.575C60.1933 262.771 71.532 257.025 82.1728 261.102C92.9855 265.259 96.2121 272.885 97.7799 281.705C99.1454 289.342 98.0227 297.201 92.9551 304.039C99.0443 307.134 103.576 311.23 104.355 314.285C107.434 297.4 111.928 280.805 117.787 264.672C120.882 256.257 127.588 238.89 139.382 218.043C136.823 219.874 130.714 220.107 124.068 218.549C123.552 227.055 119.355 233.792 113.407 238.779C106.529 244.514 99.1454 248.286 88.2113 244.513C77.439 240.801 72.4322 229.109 76.5793 217.173C79.2394 209.496 88.363 204.429 94.4724 206.512C104.375 209.911 102.483 222.605 95.059 222.22C86.3603 221.755 82.81 228.947 89.4554 232.993C98.053 238.222 106.448 233.094 108.754 226.155C115.987 204.469 96.1919 196.013 83.2449 198.855C68.4773 202.112 61.6801 225.194 65.2304 235.097C58.0894 234.146 52.8297 235.714 49.4413 239.8Z" stroke="black" stroke-width="3.5503" stroke-miterlimit="2.613"/>
<path fill-rule="evenodd" clip-rule="evenodd" d="M26.9155 369.219C28.8778 374.155 33.3991 377.261 40.4794 378.566C34.0464 386.89 33.3688 410.943 46.4169 418.599C57.8567 425.316 79.2899 423.384 79.118 400.524C79.0573 393.222 72.6648 385.737 62.8736 388.053C55.2977 389.854 56.4507 397.784 64.8662 400.039C72.0478 401.961 69.9236 414.615 59.4649 414.787C53.0015 414.888 45.8909 407.241 45.7392 399.129C45.4964 386.495 53.8513 376.906 65.2405 376.714C76.822 376.512 82.6683 382.378 87.4324 389.964C91.5592 396.539 93.4608 404.237 91.3265 412.491C98.1237 413.067 103.869 415.171 105.73 417.71C102.26 400.902 100.21 383.832 99.6005 366.68C99.0532 349.528 99.9091 332.361 102.159 315.348C100.47 318.008 94.8971 320.516 88.1505 321.558C90.8512 329.65 89.4958 337.459 85.8443 344.297C81.6163 352.206 76.1948 358.467 64.6235 359.064C53.2443 359.671 44.2422 350.699 43.605 338.076C43.2004 329.963 49.7547 321.841 56.2079 321.498C66.6565 320.931 69.6607 333.413 62.6309 335.83C54.3873 338.662 53.7906 346.663 61.4778 347.917C71.4004 349.546 77.2569 341.646 76.8017 334.344C75.3856 311.535 53.8614 311.11 42.9273 318.595C30.4456 327.142 32.8124 351.094 39.7916 358.953C32.8225 360.743 28.5238 364.162 26.9155 369.219Z" fill="#36ADE8"/>
<path d="M26.9155 369.219C28.8778 374.155 33.3991 377.261 40.4794 378.566C34.0464 386.89 33.3688 410.943 46.4169 418.599C57.8567 425.316 79.2899 423.384 79.118 400.524C79.0573 393.222 72.6648 385.737 62.8736 388.053C55.2977 389.854 56.4507 397.784 64.8662 400.039C72.0478 401.961 69.9236 414.615 59.4649 414.787C53.0015 414.888 45.8909 407.241 45.7392 399.129C45.4964 386.495 53.8513 376.906 65.2405 376.714C76.822 376.512 82.6683 382.378 87.4324 389.964C91.5592 396.539 93.4608 404.237 91.3265 412.491C98.1237 413.067 103.869 415.171 105.73 417.71C102.26 400.902 100.21 383.832 99.6005 366.68C99.0532 349.528 99.9091 332.361 102.159 315.348C100.47 318.008 94.8971 320.516 88.1505 321.558C90.8512 329.65 89.4958 337.459 85.8443 344.297C81.6163 352.206 76.1948 358.467 64.6235 359.064C53.2443 359.671 44.2422 350.699 43.605 338.076C43.2004 329.963 49.7547 321.841 56.2079 321.498C66.6565 320.931 69.6607 333.413 62.6309 335.83C54.3873 338.662 53.7906 346.663 61.4778 347.917C71.4004 349.546 77.2569 341.646 76.8017 334.344C75.3856 311.535 53.8614 311.11 42.9273 318.595C30.4456 327.142 32.8124 351.094 39.7916 358.953C32.8225 360.743 28.5238 364.162 26.9155 369.219Z" stroke="black" stroke-width="3.5503" stroke-miterlimit="2.613"/>
<path d="M100.208 359.752C100.208 214.301 218.106 96.3932 363.557 96.3932C509.007 96.3932 626.905 214.301 626.905 359.752C626.905 505.203 509.007 623.111 363.557 623.111C218.106 623.111 100.208 505.203 100.208 359.752Z" stroke="black" stroke-width="6.08911" stroke-miterlimit="2.613"/>
<path fill-rule="evenodd" clip-rule="evenodd" d="M187.64 424.396C195.145 425.327 198.645 432.356 198.645 439.77V446.972C198.645 450.128 195.105 452.636 191.959 452.636C187.336 452.636 185.232 449.106 180.61 449.106C176.625 449.106 172.579 451.908 172.579 455.893C172.579 458.755 177.98 460.749 177.12 462.327C175.826 464.107 175.128 463.682 174.116 463.682C169.302 463.682 168.755 456.51 163.951 456.51C161.169 456.51 160.805 458.937 160.805 461.719C160.805 466.17 165.66 465.462 167.43 469.447C168.776 472.522 170.819 478.014 171.476 480.735C172.124 483.405 174.41 485.773 177.181 487.614C182.572 491.164 185.708 493.429 185.455 497.657C185.283 500.601 180.549 503.463 180.549 507.529C180.549 508.844 181.763 509.987 183.068 509.987C187.134 509.987 189.359 505.567 193.436 505.567C197.097 505.567 200.86 506.052 203.247 507.964C207.05 511.019 209.033 513.294 212.381 517.35C215.354 520.931 219.127 527.162 222.344 527.031C224.711 527.405 224.397 520.213 225.044 517.189C226.511 510.321 225.955 503.261 226.663 494.653C226.582 488.918 227.715 487.047 228.332 480.543C228.736 476.274 229.303 469.619 229.495 465.523C229.647 462.286 230.648 461.042 234.036 461.042C236.343 461.042 236.444 462.458 238.76 462.458C243.382 462.458 242.897 456.561 247.53 456.561C251.666 456.561 253.598 455.893 257.037 456.631C260.466 458.047 264.168 457.784 266.424 460.556C270.713 465.826 275.497 468.779 280.221 472.754C283.548 475.526 284.095 476.619 287.301 479.744C294.26 486.501 293.198 488.453 296.9 491.345C300.066 493.813 301.118 493.985 305.851 493.985C308.168 493.985 316.361 493.682 318.677 493.682C323.391 493.682 322.723 496.251 327.447 496.251C331.887 496.251 331.412 494.127 334.375 490.789C337.379 488.159 338.957 493.439 340.636 495.341C343.155 498.183 344.854 501.208 349.315 502.32C351.672 503.129 350.387 505.163 350.387 505.82C350.387 508.784 348.485 507.398 348.485 510.372C348.485 515.257 348.172 516.137 348.172 521.032C348.425 523.116 350.781 522.721 352.349 522.802C354.676 522.934 354.251 520.476 355.91 521.154C358.054 523.177 356.213 525.888 356.213 528.204C356.213 530.986 357.629 534.07 360.421 534.07C362.636 534.07 367.734 533.787 369.403 533.787C370.879 533.787 372.457 531.947 373.934 531.947C379.214 531.947 375.047 542.436 380.307 542.436C383.644 542.436 379.346 534.778 382.633 535.072C389.39 535.689 388.449 527.819 391.969 525.695C395.165 523.723 395.59 522.823 398.038 521.043C400.769 519.03 404.916 517.867 406.878 514.165C408.264 511.383 410.418 509.633 411.349 506.679C412.188 503.989 413.999 501.218 416.861 501.218C420.017 501.218 421.939 502.563 425.095 502.563C427.775 502.563 429.829 502.32 432.509 502.32C436.211 502.32 435.068 504.849 438.76 504.849C440.884 504.849 441.39 502.735 441.39 500.601C441.39 497.182 437.172 497.364 438.578 494.774L440.469 492.326C442.998 490.607 444.535 488.382 446.923 488.948C450.18 489.737 456.997 493.854 461.215 493.854C469.732 493.854 467.051 487.421 475.568 487.421C477.51 487.421 482.436 487.846 485.986 487.846C489.698 487.846 493.269 486.683 496.971 486.683C503.444 486.683 502.514 487.846 508.997 487.846C513.063 487.846 515.41 490.172 519.486 490.111C524.2 490.051 525.858 481.322 525.858 474.1C525.858 471.147 522.015 468.031 521.388 465.148C520.482 461.147 518.989 457.303 516.957 453.739C514.884 450.219 509.472 452.758 509.917 448.479C510.585 445.404 512.183 442.329 517.827 443.129C529.783 443.746 526.314 438.223 531.078 438.475C535.923 438.718 541.627 437.363 541.557 434.126C541.496 431.051 535.124 428.563 535.124 423.01C535.124 418.762 536.894 414.959 536.894 410.701C536.894 409.871 535.043 405.42 535.043 403.761C535.043 401.445 537.551 400.423 539.857 400.423C547.17 400.423 555.363 400.565 557.639 405.906C560.37 399.21 565.873 399.564 567.167 396.449C568.239 393.819 560.491 387.194 560.491 380.437C560.491 375.157 563.526 371.485 567.319 368.36C569.231 366.792 567.521 361.259 568.118 359.165C568.887 356.444 574.743 358.184 575.725 355.544C571.982 354.331 568.24 351.064 564.194 345.43C561.554 348.363 561.281 354.26 556.102 354.26C551.378 354.26 548.698 350.831 544.632 348.616C540.464 346.391 538.492 350.072 534.314 347.574C529.51 344.701 528.286 338.066 522.733 338.066C520.599 338.066 517.22 343.123 515.552 344.317C511.202 347.462 508.228 347.018 502.857 347.018C498.235 347.018 500.126 339.047 495.494 339.047C492.449 339.047 491.084 342.8 491.084 345.854C491.084 347.796 491.185 352.904 489.243 352.904C484.054 352.904 482.85 345.268 480.534 340.635C477.297 334.071 473.504 332.038 469.246 326.1C464.998 320.092 461.195 317.037 454.529 313.993C450.918 312.324 444.414 312.577 444.414 308.501C444.414 303.312 445.446 304.879 446.316 299.296C446.407 298.658 446.467 294.451 445.638 294.451C439.245 294.451 439.994 300.034 435.382 305.102C435.382 305.102 433.531 307.024 431.164 310.402C427.664 314.883 425.479 316.713 420.847 316.713C418.722 316.713 416.376 317.947 413.807 316.289C412.026 315.307 416.811 311.332 415.385 308.905C412.33 307.823 410.934 309.785 408.345 309.785C406.221 309.785 406.089 314.084 404.177 313.163C402.397 312.304 403.014 309.299 399.322 309.724L393.931 310.402C392.26 310.169 390.562 310.21 388.904 310.523C385.162 310.826 390.866 304.829 390.866 302.239C390.866 298.173 391.676 293.288 387.609 293.288C386.315 293.288 384.919 294.825 383.28 295.209C379.396 295.746 379.255 292.489 376.2 292.489C372.184 292.489 368.31 293.915 365.579 296.049C362.515 298.456 361.119 300.904 357.073 299.791C355.111 300.864 353.684 303.635 351.065 303.635C347.919 303.635 343.074 303.655 340.201 304.95C334.011 307.701 333.091 310.321 327.254 313.284C323.097 315.318 319.769 314.63 315.238 315.743C312.092 316.481 310.353 321.528 307.753 319.606C303.464 316.41 300.926 316.289 294.998 316.289C292.874 316.289 290.275 318.211 290.275 320.335C290.275 328.204 301.745 329.842 302.18 334.698C302.261 335.608 301.017 336.417 300.086 336.417C297.224 336.417 295.969 333.221 293.097 333.221C289.86 333.221 287.675 333.98 287.675 337.216C287.675 339.543 289.971 341.697 289.971 344.013C289.971 348.181 285.005 346.471 283.346 350.76C282.517 352.925 284.145 352.186 284.145 354.502C284.145 355.15 284.57 356.445 285.086 356.839C289.536 360.278 297.385 356.991 299.044 361.998C297.082 367.682 292.318 372.193 284.631 372.345C281.859 371.242 283.518 369.462 280.463 369.462C277.601 369.462 277.621 373.205 275.497 375.046C263.905 371.809 265.18 362.473 260.598 362.351C257.078 362.26 257.24 366.761 253.72 366.761C251.312 366.761 252.445 362.847 250.048 362.847C247.267 362.847 247.176 363.211 244.404 363.211C241.066 363.211 238.467 368.552 235.139 368.552C232.266 368.552 230.547 362.918 228.868 360.693C223.578 356.93 225.631 369.219 222.991 369.654C219.785 370.099 221.272 358.184 217.6 357.082C216.224 354.027 216.042 350.548 212.34 350.548C210.216 350.548 210.176 352.297 207.161 352.024L205.685 351.65C202.943 349.425 204.016 346.36 203.55 342.85C201.983 342.749 201.699 342.405 200.132 342.405C197.805 342.405 197.279 347.078 194.963 347.078C191.726 347.078 192.93 341.495 189.693 341.495C185.526 341.495 186.932 348.616 180.549 348.181C173.691 347.725 172.822 352.227 169.625 354.867C167.693 356.485 164.669 353.956 162.889 355.423C161.169 356.768 163.749 368.916 162.211 370.201C160.927 371.283 157.811 370.201 157.123 369.037C152.309 364.223 153.078 356.465 150.62 356.465C146.007 356.465 149.426 364.921 143.934 366.216C139.271 367.328 141.8 374.56 139.584 379.466C137.824 383.441 131.189 384.938 132.403 389.216C133.313 392.473 140.252 390.754 137.754 394.597C137.046 395.68 136.884 395.771 136.884 397.066C136.884 400.859 140.191 402.153 143.509 403.812C144.338 404.227 146.715 404.52 147.555 404.925C150.255 406.209 150.761 408.98 152.339 411.671C153.917 414.351 156.962 417.315 156.021 420.32C155.343 422.464 150.559 420.623 150.559 422.828C150.559 426.813 157.002 428.472 160.977 428.472C166.54 428.472 168.563 422.545 174.126 422.545C177.92 422.545 178.466 422.524 182.208 423.384C183.928 423.991 184.909 424.062 187.64 424.396Z" fill="#36ADE8"/>
<path d="M187.64 424.396C195.145 425.327 198.645 432.356 198.645 439.77V446.972C198.645 450.128 195.105 452.636 191.959 452.636C187.336 452.636 185.232 449.106 180.61 449.106C176.625 449.106 172.579 451.908 172.579 455.893C172.579 458.755 177.98 460.749 177.12 462.327C175.826 464.107 175.128 463.682 174.116 463.682C169.302 463.682 168.755 456.51 163.951 456.51C161.169 456.51 160.805 458.937 160.805 461.719C160.805 466.17 165.66 465.462 167.43 469.447C168.776 472.522 170.819 478.014 171.476 480.735C172.124 483.405 174.41 485.773 177.181 487.614C182.572 491.164 185.708 493.429 185.455 497.657C185.283 500.601 180.549 503.463 180.549 507.529C180.549 508.844 181.763 509.987 183.068 509.987C187.134 509.987 189.359 505.567 193.436 505.567C197.097 505.567 200.86 506.052 203.247 507.964C207.05 511.019 209.033 513.294 212.381 517.35C215.354 520.931 219.127 527.162 222.344 527.031C224.711 527.405 224.397 520.213 225.044 517.189C226.511 510.321 225.955 503.261 226.663 494.653C226.582 488.918 227.715 487.047 228.332 480.543C228.736 476.274 229.303 469.619 229.495 465.523C229.647 462.286 230.648 461.042 234.036 461.042C236.343 461.042 236.444 462.458 238.76 462.458C243.382 462.458 242.897 456.561 247.53 456.561C251.666 456.561 253.598 455.893 257.037 456.631C260.466 458.047 264.168 457.784 266.424 460.556C270.713 465.826 275.497 468.779 280.221 472.754C283.548 475.526 284.095 476.619 287.301 479.744C294.26 486.501 293.198 488.453 296.9 491.345C300.066 493.813 301.118 493.985 305.851 493.985C308.168 493.985 316.361 493.682 318.677 493.682C323.391 493.682 322.723 496.251 327.447 496.251C331.887 496.251 331.412 494.127 334.375 490.789C337.379 488.159 338.957 493.439 340.636 495.341C343.155 498.183 344.854 501.208 349.315 502.32C351.672 503.129 350.387 505.163 350.387 505.82C350.387 508.784 348.485 507.398 348.485 510.372C348.485 515.257 348.172 516.137 348.172 521.032C348.425 523.116 350.781 522.721 352.349 522.802C354.676 522.934 354.251 520.476 355.91 521.154C358.054 523.177 356.213 525.888 356.213 528.204C356.213 530.986 357.629 534.07 360.421 534.07C362.636 534.07 367.734 533.787 369.403 533.787C370.879 533.787 372.457 531.947 373.934 531.947C379.214 531.947 375.047 542.436 380.307 542.436C383.644 542.436 379.346 534.778 382.633 535.072C389.39 535.689 388.449 527.819 391.969 525.695C395.165 523.723 395.59 522.823 398.038 521.043C400.769 519.03 404.916 517.867 406.878 514.165C408.264 511.383 410.418 509.633 411.349 506.679C412.188 503.989 413.999 501.218 416.861 501.218C420.017 501.218 421.939 502.563 425.095 502.563C427.775 502.563 429.829 502.32 432.509 502.32C436.211 502.32 435.068 504.849 438.76 504.849C440.884 504.849 441.39 502.735 441.39 500.601C441.39 497.182 437.172 497.364 438.578 494.774L440.469 492.326C442.998 490.607 444.535 488.382 446.923 488.948C450.18 489.737 456.997 493.854 461.215 493.854C469.732 493.854 467.051 487.421 475.568 487.421C477.51 487.421 482.436 487.846 485.986 487.846C489.698 487.846 493.269 486.683 496.971 486.683C503.444 486.683 502.514 487.846 508.997 487.846C513.063 487.846 515.41 490.172 519.486 490.111C524.2 490.051 525.858 481.322 525.858 474.1C525.858 471.147 522.015 468.031 521.388 465.148C520.482 461.147 518.989 457.303 516.957 453.739C514.884 450.219 509.472 452.758 509.917 448.479C510.585 445.404 512.183 442.329 517.827 443.129C529.783 443.746 526.314 438.223 531.078 438.475C535.923 438.718 541.627 437.363 541.557 434.126C541.496 431.051 535.124 428.563 535.124 423.01C535.124 418.762 536.894 414.959 536.894 410.701C536.894 409.871 535.043 405.42 535.043 403.761C535.043 401.445 537.551 400.423 539.857 400.423C547.17 400.423 555.363 400.565 557.639 405.906C560.37 399.21 565.873 399.564 567.167 396.449C568.239 393.819 560.491 387.194 560.491 380.437C560.491 375.157 563.526 371.485 567.319 368.36C569.231 366.792 567.521 361.259 568.118 359.165C568.887 356.444 574.743 358.184 575.725 355.544C571.982 354.331 568.24 351.064 564.194 345.43C561.554 348.363 561.281 354.26 556.102 354.26C551.378 354.26 548.698 350.831 544.632 348.616C540.464 346.391 538.492 350.072 534.314 347.574C529.51 344.701 528.286 338.066 522.733 338.066C520.599 338.066 517.22 343.123 515.552 344.317C511.202 347.462 508.228 347.018 502.857 347.018C498.235 347.018 500.126 339.047 495.494 339.047C492.449 339.047 491.084 342.8 491.084 345.854C491.084 347.796 491.185 352.904 489.243 352.904C484.054 352.904 482.85 345.268 480.534 340.635C477.297 334.071 473.504 332.038 469.246 326.1C464.998 320.092 461.195 317.037 454.529 313.993C450.918 312.324 444.414 312.577 444.414 308.501C444.414 303.312 445.446 304.879 446.316 299.296C446.407 298.658 446.467 294.451 445.638 294.451C439.245 294.451 439.994 300.034 435.382 305.102C435.382 305.102 433.531 307.024 431.164 310.402C427.664 314.883 425.479 316.713 420.847 316.713C418.722 316.713 416.376 317.947 413.807 316.289C412.026 315.307 416.811 311.332 415.385 308.905C412.33 307.823 410.934 309.785 408.345 309.785C406.221 309.785 406.089 314.084 404.177 313.163C402.397 312.304 403.014 309.299 399.322 309.724L393.931 310.402C392.26 310.169 390.562 310.21 388.904 310.523C385.162 310.826 390.866 304.829 390.866 302.239C390.866 298.173 391.676 293.288 387.609 293.288C386.315 293.288 384.919 294.825 383.28 295.209C379.396 295.746 379.255 292.489 376.2 292.489C372.184 292.489 368.31 293.915 365.579 296.049C362.515 298.456 361.119 300.904 357.073 299.791C355.111 300.864 353.684 303.635 351.065 303.635C347.919 303.635 343.074 303.655 340.201 304.95C334.011 307.701 333.091 310.321 327.254 313.284C323.097 315.318 319.769 314.63 315.238 315.743C312.092 316.481 310.353 321.528 307.753 319.606C303.464 316.41 300.926 316.289 294.998 316.289C292.874 316.289 290.275 318.211 290.275 320.335C290.275 328.204 301.745 329.842 302.18 334.698C302.261 335.608 301.017 336.417 300.086 336.417C297.224 336.417 295.969 333.221 293.097 333.221C289.86 333.221 287.675 333.98 287.675 337.216C287.675 339.543 289.971 341.697 289.971 344.013C289.971 348.181 285.005 346.471 283.346 350.76C282.517 352.925 284.145 352.186 284.145 354.502C284.145 355.15 284.57 356.445 285.086 356.839C289.536 360.278 297.385 356.991 299.044 361.998C297.082 367.682 292.318 372.193 284.631 372.345C281.859 371.242 283.518 369.462 280.463 369.462C277.601 369.462 277.621 373.205 275.497 375.046C263.905 371.809 265.18 362.473 260.598 362.351C257.078 362.26 257.24 366.761 253.72 366.761C251.312 366.761 252.445 362.847 250.048 362.847C247.267 362.847 247.176 363.211 244.404 363.211C241.066 363.211 238.467 368.552 235.139 368.552C232.266 368.552 230.547 362.918 228.868 360.693C223.578 356.93 225.631 369.219 222.991 369.654C219.785 370.099 221.272 358.184 217.6 357.082C216.224 354.027 216.042 350.548 212.34 350.548C210.216 350.548 210.176 352.297 207.161 352.024L205.685 351.65C202.943 349.425 204.016 346.36 203.55 342.85C201.983 342.749 201.699 342.405 200.132 342.405C197.805 342.405 197.279 347.078 194.963 347.078C191.726 347.078 192.93 341.495 189.693 341.495C185.526 341.495 186.932 348.616 180.549 348.181C173.691 347.725 172.822 352.227 169.625 354.867C167.693 356.485 164.669 353.956 162.889 355.423C161.169 356.768 163.749 368.916 162.211 370.201C160.927 371.283 157.811 370.201 157.123 369.037C152.309 364.223 153.078 356.465 150.62 356.465C146.007 356.465 149.426 364.921 143.934 366.216C139.271 367.328 141.8 374.56 139.584 379.466C137.824 383.441 131.189 384.938 132.403 389.216C133.313 392.473 140.252 390.754 137.754 394.597C137.046 395.68 136.884 395.771 136.884 397.066C136.884 400.859 140.191 402.153 143.509 403.812C144.338 404.227 146.715 404.52 147.555 404.925C150.255 406.209 150.761 408.98 152.339 411.671C153.917 414.351 156.962 417.315 156.021 420.32C155.343 422.464 150.559 420.623 150.559 422.828C150.559 426.813 157.002 428.472 160.977 428.472C166.54 428.472 168.563 422.545 174.126 422.545C177.92 422.545 178.466 422.524 182.208 423.384C183.928 423.991 184.909 424.062 187.64 424.396Z" stroke="black" stroke-width="4.25833" stroke-miterlimit="2.613"/>
<path fill-rule="evenodd" clip-rule="evenodd" d="M169.848 439.528L189.916 427.006L185.152 406.604L202.327 421.797L221.939 410.569L212.189 429.727L229.242 447.023L208.335 443.614L199.717 464.127L193.931 443.503L169.848 439.528Z" fill="white"/>
<path d="M169.848 439.528L189.916 427.006L185.152 406.604L202.327 421.797L221.939 410.569L212.189 429.727L229.242 447.023L208.335 443.614L199.717 464.127L193.931 443.503L169.848 439.528Z" stroke="black" stroke-width="4.25833" stroke-miterlimit="2.613"/>
<path d="M275.507 351.965C282.941 190.381 314.975 95.9586 362.666 96.5048M362.666 96.5048C405.978 97.0105 429.586 166.338 444.343 289.465M362.666 96.5048C404.653 96.9094 443.403 119.567 478.875 164.477M362.666 96.5048C318.181 95.8574 278.896 119.435 244.809 167.228M535.346 328.407C533.708 298.679 529.874 277.125 523.825 263.703M226.167 260.415C253.103 266.484 283.609 269.954 317.716 270.834M408.163 270.834C432.62 270.642 451.626 269.175 465.17 266.444M552.875 246.72C570.677 239.346 582.916 232.772 589.602 226.976M136.823 226.976C151.196 239.842 171.658 249.168 198.21 254.933M200.405 262.064C192.556 293.976 188.722 318.1 188.894 334.425M194.922 157.356L213.564 163.384M283.73 178.738L319.355 182.026M404.875 182.026L441.602 178.738M530.956 157.356L507.935 164.477M587.963 357.993H626.329M100.096 357.993H134.628M135.72 489.01L160.937 475.86M535.346 466.535C555.431 470.92 574.679 478.51 592.353 489.01M195.469 560.279C231.639 545.066 278.956 536.104 337.45 533.414M406.514 535.609C452.01 538.815 493.309 547.039 530.41 560.289M427.897 521.903C413.534 583.806 391.716 621.129 362.666 621.676M362.666 621.676C331.341 622.262 306.893 579.467 289.213 500.521M362.666 621.676C422.971 620.027 473.858 579.598 506.286 507.651M362.666 621.676C308.957 623.142 264.927 590.279 230.557 533.414M494.229 188.054C507.621 212.734 515.106 229.727 516.705 239.032M362.12 95.959V176.543M362.12 199.565V254.387M362.12 278.511V289.465M362.12 555.343V619.481" stroke="black" stroke-width="3.04455" stroke-miterlimit="2.613"/>
<path fill-rule="evenodd" clip-rule="evenodd" d="M216.861 165.437C217.873 163.879 219.178 163.475 220.766 164.223C236.342 169.26 254.67 173.428 275.75 176.715C277.085 177.211 277.732 178.313 277.702 180.032L274.243 191.048C273.393 192.555 272.301 193.202 270.935 193L251.646 189.5C250.007 188.964 248.956 189.268 248.49 190.4C236.393 213.836 227.452 236.382 221.676 258.018C220.462 260.172 218.763 260.982 216.558 260.426L204.825 258.322C202.124 257.715 201.072 256.804 201.527 255.004C207.192 236.352 216.942 213.472 230.739 186.344C231.265 184.959 231.062 184.109 230.132 183.785L213.544 179.123C211.652 178.354 211.146 177.777 211.743 175.967L216.861 165.437ZM397.532 180.023C399.353 180.104 400.607 181.469 401.345 184.079L401.952 202.629C401.102 204.187 399.737 204.895 397.835 204.733L387.903 204.885C385.88 205.097 384.868 204.389 384.898 202.771L384.747 198.866C385 197.228 384.352 196.469 382.795 196.611L342.305 196.914C340.434 196.327 339.534 196.975 339.594 198.866L337.936 255.449C337.895 256.946 338.542 258.908 340.039 258.767L383.998 258.322C385.445 258.402 386.092 257.694 385.961 256.207L385.495 248.237C385.455 246.517 386.153 245.617 387.619 245.526L402.387 245.081C404.643 245.395 405.543 246.345 405.098 247.933L404.794 271.602C404.511 273.878 403.409 274.98 401.487 274.899L326.92 275.81C323.714 276.022 321.711 274.91 320.902 272.492L324.361 185.586C324.806 181.621 326.263 179.669 328.721 179.719L397.532 180.023ZM447.246 181.823C446.204 179.365 446.902 177.706 449.36 176.867L496.92 166.196C501.047 165.447 503.596 166.651 504.587 169.807C519.85 193.192 533.262 218.691 544.834 246.274C546.331 248.985 544.975 250.887 542.578 251.544C511.495 259.95 488.899 264.926 474.809 266.474C471.775 266.99 469.822 266.089 468.902 263.763C460.547 222.94 453.325 195.62 447.246 181.833M467.85 192.403C466.919 191.028 467.425 190.057 469.357 189.49L492.105 184.534C494.371 184.392 495.828 185.151 496.455 186.789C504.283 197.663 512.456 214.13 521.023 236.2C522.055 238.871 521.155 240.58 518.323 241.318L488.646 247.63C486.259 248.652 484.863 248.156 484.438 246.123C477.904 221.453 472.371 203.56 467.85 192.403ZM143.306 545.885C144.935 544.874 145.147 544.347 144.551 543.558C144.075 542.911 143.509 542.881 142.437 542.992C140.717 543.144 140.13 542.891 138.512 540.727L122.632 519.657C121.367 517.988 121.934 517.716 122.612 516.987C123.279 516.249 122.915 515.53 122.682 515.237C121.984 514.307 120.791 514.671 120.326 514.863L112.062 518.171C111.404 518.434 110.767 518.605 110.282 518.98C109.452 519.607 109.452 520.224 109.928 520.851C110.484 521.589 111 521.66 114.095 521.478C120.599 521.033 121.418 522.641 123.502 525.393C124.715 527.011 124.412 527.223 123.775 527.719L99.4184 546.057C96.3839 548.353 94.189 548.697 92.0042 546.118C91.5491 545.612 90.8916 544.732 90.0015 545.41C88.8889 546.239 89.7284 547.372 90.1027 547.858C92.0953 550.508 94.3812 552.935 96.3738 555.575C98.3664 558.225 100.066 561.098 102.058 563.748C102.433 564.233 103.282 565.366 104.415 564.507C105.538 563.657 104.344 562.787 103.808 561.573C102.594 558.741 103.768 557.234 106.367 555.272L130.714 536.924C131.118 536.63 131.654 536.216 132.241 537.005L133.829 539.108C136.418 542.547 134.618 545.349 133.222 547.564C132.322 548.929 131.715 549.769 132.615 550.943C133.566 552.217 134.921 550.963 138.512 548.798L143.306 545.875V545.885ZM150.174 599.676C150.913 598.937 150.68 598.199 150.134 597.633C149.305 596.823 148.212 597.197 146.695 597.683C144.095 598.462 139.149 599.413 134.679 594.952L133.859 594.123C129.995 590.259 132.817 587.093 134.901 585.019L141.273 578.627C142.366 577.545 143.064 577.211 145.056 579.193L145.866 580.023C148.87 583.017 148.961 584.402 148.131 586.445C147.049 589.085 146.361 589.864 147.423 590.957C148.303 591.827 149.001 591.392 150.559 589.561C157.639 581.449 151.085 589.399 158.499 581.975C159.197 581.277 159.197 580.498 158.59 579.891C157.578 578.89 156.597 579.81 154.989 580.458C151.166 581.924 149.871 580.538 147.959 578.637L145.916 576.594C145.006 575.683 144.925 574.985 146.574 573.337L153.856 566.054C155.07 564.84 155.859 563.88 159.237 567.268C164.275 572.295 163.88 574.854 163.152 578.455C162.798 579.931 162.666 580.326 163.354 581.024C163.88 581.54 164.406 581.884 167.046 579.244L169.474 576.816C170.991 575.299 171.476 575.248 170.05 573.812C169.393 573.165 168.695 572.558 168.007 571.951C166.53 570.646 161.189 565.579 159.156 563.455L152.905 557.022C150.913 554.938 148.647 551.732 146.786 550.467C145.916 549.86 145.137 549.688 144.53 550.295C143.752 551.074 144.53 551.863 144.965 552.379C147.221 554.907 146.574 557.032 143.883 559.712L125.575 578.03C122.885 580.72 120.751 581.368 118.242 579.112C117.716 578.677 116.927 577.898 116.158 578.677C115.147 579.689 116.158 580.67 116.593 581.105C119.365 583.886 121.185 585.272 125.09 589.095C127.173 591.169 129.864 593.859 133.586 597.855L138.977 603.58C141.587 606.351 141.799 606.311 143.964 604.409C145.097 603.448 145.967 602.751 146.523 602.285C148.475 600.849 148.485 601.375 150.174 599.676ZM193.982 643.301C194.224 642.957 194.538 642.421 193.789 641.875C193.001 641.298 192.131 640.822 191.372 640.195C188.418 637.677 190.634 635.26 191.716 633.773L206.939 612.825C209.174 609.74 211.167 608.769 214.019 610.61C214.596 610.954 215.486 611.601 216.143 610.701C216.962 609.558 215.82 608.738 215.334 608.374C212.643 606.422 209.751 604.773 207.07 602.831C204.39 600.879 201.922 598.634 199.241 596.692C198.746 596.328 197.603 595.498 196.773 596.641C196.126 597.531 197.016 598.189 197.532 598.634C200.162 600.768 199.838 602.963 197.603 606.038L192.586 612.936C191.979 613.786 191.716 614.352 190.472 613.452L179.305 605.34C178.111 604.47 178.364 603.813 178.941 603.024L183.958 596.125C186.193 593.04 188.186 592.069 191.038 593.9C191.605 594.254 192.505 594.901 193.162 594.001C193.982 592.868 192.839 592.039 192.353 591.675C189.663 589.723 186.76 588.074 184.079 586.122C181.399 584.18 178.941 581.934 176.261 579.992C175.765 579.628 174.622 578.799 173.792 579.942C173.145 580.832 174.035 581.479 174.541 581.934C177.171 584.058 176.867 586.263 174.622 589.338L159.399 610.286C157.174 613.371 155.161 614.342 152.329 612.511C151.742 612.167 150.852 611.51 150.205 612.41C149.375 613.553 150.508 614.372 151.014 614.736C153.694 616.678 156.587 618.337 159.268 620.279C161.948 622.232 164.426 624.477 167.097 626.429C167.602 626.783 168.735 627.613 169.565 626.47C170.212 625.58 169.312 624.932 168.806 624.487C166.186 622.353 166.5 620.148 168.735 617.073L175.188 608.182C176.23 606.746 176.503 607.009 177.737 607.909L188.762 615.92C189.895 616.749 189.197 617.609 188.661 618.347L182.39 626.996C180.145 630.071 178.152 631.041 175.31 629.211C174.733 628.867 173.833 628.209 173.186 629.1C172.356 630.253 173.499 631.082 173.995 631.436C176.675 633.388 182.259 636.979 182.259 636.979C182.259 636.979 185.981 639.164 186.385 641.733C186.729 644.181 183.23 648.996 182.774 650.563C182.481 651.484 182.876 651.989 183.482 652.424C184.514 653.183 185.242 653.112 188.014 650.037L191.079 646.649C191.969 645.637 193.587 643.847 193.982 643.301ZM223.719 658.078C224.205 657.087 223.213 656.602 222.627 656.258C218.905 654.235 220.3 650.958 221.271 648.975L232.62 625.711C233.591 623.708 235.311 620.593 239.195 622.282C239.832 622.525 240.823 623.01 241.309 622.019C241.926 620.755 240.661 620.128 240.105 619.865C237.131 618.408 233.996 617.285 231.012 615.829C228.038 614.382 225.216 612.602 222.242 611.146C221.686 610.873 220.422 610.256 219.805 611.52C219.319 612.531 220.31 613.007 220.887 613.351C224.609 615.374 223.224 618.651 222.252 620.633L210.904 643.918C209.933 645.89 208.203 649.016 204.319 647.326C203.692 647.084 202.691 646.598 202.215 647.6C201.588 648.864 202.862 649.481 203.409 649.744C206.392 651.2 209.528 652.323 212.502 653.77C215.486 655.226 218.308 657.006 221.281 658.463C221.828 658.726 223.102 659.343 223.719 658.078ZM270.116 665.361C273.757 655.914 265.058 651.14 262.327 649.885L262.388 649.714C264.209 650.28 272.938 652.708 275.77 645.324C277.226 641.551 277.955 634.339 262.833 628.533C259.345 627.149 255.676 626.27 251.939 625.924C250.099 625.742 250.169 625.903 248.763 628.189L246.407 631.942C245.709 633.065 244.505 634.835 246.336 635.543C247.55 635.998 248.561 634.885 249.492 633.995C252.364 631.143 255.743 628.503 261.134 630.566C267.142 632.872 266.839 637.626 265.453 641.237C264.806 642.896 262.074 648.803 255.722 646.366L251.879 644.889C251.201 644.626 250.938 644.798 250.705 645.04L249.745 646.183C249.542 646.366 249.35 646.891 250.21 647.215L253.588 648.51C261.275 651.453 260.345 657.937 258.949 661.598C256.481 668.011 251.211 669.407 246.518 667.607C239.751 665.007 239.235 658.17 238.8 654.993C238.638 653.537 238.375 653.183 237.698 652.92C236.09 652.313 235.644 653.972 235.199 655.651L234.532 658.078C234.228 659.211 233.763 660.415 234.481 661.801C235.695 664.107 240.763 668.021 246.265 670.145C261.619 676.032 267.779 671.43 270.116 665.361ZM349.487 688.706C349.618 687.614 348.526 687.472 347.868 687.33C344.53 686.744 343.741 684.67 344.207 680.887L347.352 655.196C347.828 651.433 349.102 649.602 352.47 649.835C353.158 649.855 354.251 649.987 354.382 648.894C354.544 647.498 353.148 647.316 352.541 647.246C349.305 646.841 346.098 646.821 342.871 646.426C339.706 646.042 336.641 645.293 333.475 644.909C332.868 644.828 331.462 644.656 331.29 646.062C331.169 647.155 332.261 647.276 332.929 647.438C336.236 648.085 336.671 650.614 336.277 653.84L332.696 683.001C332.524 684.337 332.322 684.994 329.945 684.711L320.083 683.487C318.92 683.345 318.171 682.941 318.414 680.938L321.954 652.08C322.359 648.844 323.39 646.507 326.769 646.679C327.446 646.699 328.539 646.831 328.691 645.738C328.842 644.342 327.446 644.171 326.84 644.09C323.734 643.715 320.518 643.685 317.413 643.311C314.307 642.927 311.182 642.168 308.077 641.794C307.47 641.713 306.064 641.541 305.892 642.947C305.76 644.039 306.863 644.161 307.52 644.312C310.838 644.97 311.273 647.498 310.878 650.725L307.298 679.886C307.126 681.221 306.924 681.879 304.547 681.585L294.685 680.372C293.582 680.24 292.763 679.957 293.016 677.822L296.566 648.965C296.971 645.728 297.992 643.392 301.37 643.564C302.048 643.584 303.141 643.716 303.272 642.623C303.444 641.207 302.058 641.045 301.451 640.974C298.275 640.59 295.12 640.57 291.954 640.165C288.727 639.781 285.602 639.032 282.375 638.638C281.768 638.557 280.362 638.385 280.19 639.791C280.059 640.883 281.161 641.005 281.819 641.156C285.156 641.753 285.945 643.827 285.48 647.61L282.324 673.291C281.859 677.064 280.585 678.895 277.216 678.652C276.539 678.642 275.436 678.51 275.305 679.603C275.133 680.998 276.529 681.181 277.146 681.252C280.382 681.646 283.579 681.656 286.805 682.061C290.042 682.465 293.279 683.234 296.515 683.628L302.544 684.367C305.781 684.761 309.038 684.792 312.264 685.176C315.501 685.581 318.677 686.339 321.904 686.744L327.932 687.482C331.169 687.877 334.507 687.917 337.723 688.312C340.96 688.706 344.075 689.465 347.302 689.859C347.909 689.94 349.325 690.102 349.487 688.706ZM398.169 676.255C398.098 675.213 397.4 674.899 396.601 674.95C395.438 675.031 395.023 676.113 394.376 677.559C393.263 680.038 390.735 684.397 384.443 684.842L383.28 684.923C377.818 685.307 377.292 681.1 377.08 678.156L376.463 669.164C376.341 667.647 376.544 666.878 379.356 666.686L380.519 666.605C384.747 666.312 385.849 667.151 386.851 669.114C388.135 671.673 388.267 672.704 389.784 672.593C391.018 672.512 391.149 671.703 390.795 669.326C389.319 658.675 390.998 668.831 390.28 658.362C390.209 657.381 389.622 656.875 388.762 656.946C387.346 657.026 387.387 658.382 386.83 660.021C385.435 663.864 383.533 663.935 380.843 664.127L377.96 664.329C376.675 664.41 376.099 664.026 375.937 661.7L375.209 651.423C375.097 649.714 374.885 648.5 379.659 648.156C386.76 647.66 388.439 649.633 390.674 652.556C391.554 653.78 391.777 654.134 392.748 654.073C393.486 654.022 394.083 653.851 393.82 650.128L393.587 646.699C393.435 644.555 393.719 644.171 391.686 644.302C386.714 644.923 381.725 645.396 376.726 645.718L367.774 646.224C364.902 646.365 360.987 645.961 358.823 646.548C357.791 646.801 357.144 647.276 357.204 648.136C357.285 649.228 358.388 649.157 359.065 649.167C362.444 649.117 363.617 650.998 363.88 654.801L365.691 680.614C365.964 684.407 365.053 686.44 361.695 686.855C361.038 686.966 359.925 687.057 360.006 688.15C360.107 689.566 361.513 689.465 362.13 689.414C366.045 689.141 368.29 688.676 373.732 688.231C376.665 688.029 380.468 687.765 385.92 687.563L393.779 687.26C397.582 687.118 397.694 686.926 397.673 684.043C397.694 682.556 397.734 681.454 397.744 680.715C397.947 678.298 398.331 678.642 398.169 676.265M446.831 664.643C444.738 655.56 435.826 655.155 430.223 656.521L430.172 656.339C434.39 655.489 441.966 652.04 440.307 644.879C438.042 635.007 426.834 636.645 419.835 638.264C413.139 639.811 404.45 642.572 400.435 644.818C399.1 645.566 398.978 646.163 399.14 646.821C399.423 648.075 400.688 647.782 400.981 647.721C401.578 647.579 402.195 647.306 402.822 647.215C405.31 646.841 405.887 649.036 406.231 650.533L412.178 676.295C412.856 679.218 412.987 682.02 409.214 683.072C408.567 683.295 407.495 683.548 407.738 684.61C408.061 685.985 409.437 685.672 410.034 685.52C413.26 684.792 416.406 683.689 419.633 682.941C424.174 681.889 428.736 681.221 433.288 680.169C439.276 678.793 449.34 675.456 446.831 664.643ZM428.928 647.377C429.899 651.555 428.412 655.803 422.202 657.229L421.484 657.401C419.633 657.826 419.501 656.723 419.299 655.833L416.942 645.668C416.538 643.938 416.335 641.713 420.058 640.863C424.892 639.74 427.988 643.311 428.928 647.377ZM435.462 667.768C437.162 675.122 433.075 677.57 430.203 678.237C425.115 679.411 423.871 675.668 423.355 673.382L420.786 662.276C420.31 660.253 421.554 659.899 422.202 659.747L423.173 659.525C428.433 658.311 433.713 660.172 435.462 667.768ZM485.156 630.182C480.827 618.894 468.042 623.607 465.129 624.73C463.119 625.497 461.132 626.323 459.171 627.208C457.309 628.057 455.42 628.847 453.507 629.575C450.422 630.769 447.185 631.608 444.1 632.791C443.524 633.014 442.199 633.52 442.715 634.845C443.22 636.16 444.384 635.249 445.688 635.077C448.763 634.683 449.886 636.231 451.049 639.265L460.335 663.439C461.498 666.474 461.7 668.355 459.161 670.125C458.059 670.874 456.592 670.975 457.088 672.29C457.604 673.605 458.919 673.109 459.495 672.897C462.59 671.693 465.544 670.166 468.639 668.982C471.845 667.748 475.133 666.878 478.349 665.654C478.906 665.432 480.23 664.926 479.725 663.611C479.32 662.579 478.278 662.924 477.641 663.156C473.878 664.471 472.331 662.509 471.097 659.292L467.557 650.088C467.405 649.683 467.182 649.096 468.103 648.753C469.023 648.409 469.903 648.651 471.744 648.479C473.585 648.297 475.719 647.873 477.378 647.235C479.015 646.635 480.516 645.715 481.795 644.53C483.074 643.346 484.106 641.919 484.83 640.333C485.554 638.748 485.957 637.034 486.014 635.291C486.072 633.549 485.784 631.812 485.167 630.182M474.202 634.531C475.345 637.495 476.367 643.412 470.257 645.759C469.415 646.128 468.493 646.277 467.577 646.194C467.172 646.153 465.979 645.961 465.513 644.757L461.872 635.249C461.433 634.157 461.127 633.016 460.962 631.851C460.84 629.656 462.277 628.776 463.531 628.29C468.568 626.368 472.503 630.111 474.202 634.521M534.142 612.42C528.003 601.789 514.065 598.502 501.209 605.926C489.465 612.703 485.025 625.539 491.751 637.171C498.194 648.338 512.173 651.312 524.877 643.988C537.723 636.554 540.585 623.577 534.142 612.42ZM524.978 620.107C529.126 627.289 531.3 637.444 524.018 641.642C515.41 646.618 505.507 637.444 501.057 629.747C496.343 621.554 495.413 612.107 502.109 608.243C510.777 603.236 520.599 612.521 524.968 620.118M547.231 558.65C546.998 558.367 546.321 558.61 545.997 558.893C545.188 559.561 545.693 560.734 545.693 563.303C545.693 566.924 545.208 568.36 543.468 569.817C541.637 571.354 539.655 571.101 537.875 569.544C537.187 568.917 535.649 567.48 534.163 568.745C532.544 570.08 532.21 574.065 533.657 575.805C536.115 578.718 541.445 576.958 544.419 574.47C549.304 570.373 548.89 563.677 547.858 559.803C547.738 559.376 547.524 558.982 547.231 558.65ZM592.383 590.218C591.675 589.369 590.826 590.077 590.259 590.461C587.569 592.494 585.505 591.675 583.068 588.752L566.419 568.907C563.971 565.993 563.516 563.818 565.974 561.522C566.459 561.027 567.289 560.319 566.581 559.469C565.67 558.387 564.598 559.297 564.123 559.692C561.594 561.826 559.288 564.243 556.739 566.367C554.21 568.491 551.439 570.343 548.9 572.477C548.435 572.882 547.352 573.772 548.253 574.854C548.961 575.704 549.81 574.985 550.367 574.601C552.592 572.882 554.898 573.124 557.184 575.855L557.427 576.139L557.548 603.499L544.186 587.568C541.739 584.655 541.273 582.47 543.741 580.164C544.217 579.689 545.056 578.981 544.348 578.141C543.438 577.049 542.366 577.959 541.9 578.354C539.362 580.478 537.045 582.885 534.517 585.029C531.988 587.154 529.206 588.994 526.657 591.129C526.202 591.533 525.12 592.444 526.02 593.516C526.728 594.355 527.578 593.647 528.134 593.263C530.835 591.24 532.888 592.069 535.346 594.982L551.995 614.817C554.443 617.73 554.908 619.905 552.43 622.222C551.954 622.697 551.115 623.415 551.813 624.255C552.723 625.337 553.805 624.426 554.281 624.032C556.81 621.908 559.116 619.49 561.655 617.366C564.183 615.242 566.965 613.381 569.514 611.257C569.979 610.863 571.061 609.952 570.151 608.87C569.443 608.02 568.604 608.728 568.027 609.123C565.336 611.146 563.273 610.316 560.835 607.403L560.593 607.12L560.461 579.76L574.217 596.166C576.675 599.079 577.13 601.254 574.662 603.56C574.187 604.035 573.347 604.753 574.055 605.593C574.966 606.675 576.038 605.775 576.513 605.391C579.042 603.246 581.348 600.839 583.887 598.715C586.416 596.591 589.197 594.729 591.746 592.595C592.211 592.201 593.294 591.291 592.383 590.218ZM631.882 545.298C631.052 544.58 630.324 545.4 629.828 545.885C627.482 548.303 625.317 547.807 622.445 545.309L602.893 528.316C601.234 526.869 598.715 524.431 601.305 521.083C601.709 520.537 602.437 519.698 601.608 518.96C600.526 518.049 599.605 519.111 599.201 519.567C597.026 522.075 595.125 524.816 592.96 527.314C591.109 529.439 588.934 531.38 587.093 533.515L582.946 538.269L575.259 547.129C574.399 548.1 575.107 548.788 575.289 548.95C576.351 549.88 576.867 549.102 578.041 547.837C580.509 545.278 582.036 545.875 587.862 550.943C599.494 561.047 605.563 570.242 603.601 572.507C602.953 573.246 602.245 573.033 601.487 572.872C600.735 572.658 599.938 572.666 599.191 572.896C598.445 573.126 597.78 573.567 597.279 574.166C595.357 576.391 595.63 579.244 597.663 581.014C601.608 584.433 604.976 580.366 605.3 580.002C606.382 578.748 610.823 573.094 602.114 561.219C599.221 557.244 595.762 553.734 591.665 549.85C585.111 543.741 583.149 542.618 586.618 538.623L588.034 537.005C590.876 533.727 591.908 534.051 593.85 535.74L614.889 554.017C617.741 556.505 618.54 558.589 616.477 561.259C616.072 561.806 615.344 562.635 616.184 563.363C617.246 564.274 618.166 563.222 618.581 562.756C620.755 560.258 622.637 557.517 624.811 555.019C626.996 552.511 629.444 550.255 631.619 547.756C632.023 547.291 632.944 546.229 631.882 545.298Z" fill="black"/>
</g>
</svg>
